{"glyphs":{"0":{"ha":1149,"x_min":47,"x_max":1103,"o":"m 839 -100 q 706 -163 792 -140 q 486 -186 621 -186 q 267 -158 353 -186 q 132 -82 181 -129 q 65 26 83 -35 q 47 153 47 88 l 47 585 q 65 704 47 650 q 131 797 83 758 l 311 949 q 444 1012 358 989 q 665 1035 529 1035 q 885 1013 799 1035 q 1019 951 971 990 q 1085 856 1067 911 q 1103 736 1103 801 l 1103 263 q 1085 144 1103 199 q 1019 50 1067 89 l 839 -100 m 1089 263 l 1089 736 q 1071 852 1089 800 q 1006 942 1053 904 q 876 1000 958 979 q 665 1021 793 1021 q 455 1000 538 1021 q 325 942 372 979 q 259 852 278 904 q 240 736 240 800 l 240 263 q 259 147 240 199 q 325 58 278 94 q 455 0 372 21 q 665 -21 538 -21 q 876 0 793 -21 q 1006 58 958 21 q 1071 147 1053 94 q 1089 263 1089 199 m 390 294 l 390 704 q 403 781 390 746 q 446 840 415 815 q 530 878 476 864 q 664 892 583 892 q 883 839 825 892 q 940 704 940 786 l 940 294 q 883 159 940 211 q 664 107 825 107 q 530 121 583 107 q 446 159 476 135 q 403 218 415 183 q 390 294 390 253 m 664 878 q 460 831 515 878 q 404 704 404 783 l 404 294 q 460 168 404 215 q 664 121 515 121 q 869 168 813 121 q 926 294 926 215 l 926 704 q 869 830 926 782 q 664 878 813 878 m 554 313 l 554 686 q 574 731 554 713 q 665 750 594 750 q 756 731 736 750 q 776 686 776 713 l 776 313 q 756 266 776 285 q 665 247 736 247 q 574 266 594 247 q 554 313 554 285 m 568 313 q 571 293 568 303 q 583 278 574 283 l 583 535 q 581 554 583 544 q 568 569 578 564 l 568 313 z "},"1":{"ha":974,"x_min":33,"x_max":954,"o":"m 711 -165 l 97 -165 q 49 -150 64 -165 q 33 -101 33 -135 l 33 67 q 38 97 33 85 q 53 118 43 110 l 232 269 q 235 272 233 271 q 239 274 238 272 l 239 567 l 125 567 q 76 582 92 567 q 61 631 61 597 l 61 799 q 66 829 61 817 q 81 850 71 842 l 260 1001 q 278 1010 267 1007 q 304 1014 290 1014 l 707 1014 q 756 999 740 1014 q 771 950 771 983 l 771 282 l 890 282 q 939 267 924 282 q 954 218 954 251 l 954 50 q 949 19 954 32 q 935 -1 944 7 l 754 -151 q 737 -161 749 -157 q 711 -165 725 -165 m 890 0 q 928 12 917 0 q 940 50 940 24 l 940 218 q 928 256 940 244 q 890 268 917 268 l 757 268 l 757 950 q 745 988 757 976 q 707 1000 733 1000 l 304 1000 q 266 988 278 1000 q 254 950 254 976 l 254 782 q 266 744 254 756 q 304 732 278 732 l 432 732 l 432 268 l 276 268 q 238 256 250 268 q 226 218 226 244 l 226 50 q 238 12 226 24 q 276 0 250 0 l 890 0 m 351 118 l 351 132 l 588 132 l 588 861 l 379 861 l 379 875 l 601 875 l 601 132 l 815 132 l 815 118 l 351 118 z "},"2":{"ha":1026,"x_min":22,"x_max":990,"o":"m 747 -165 l 86 -165 q 38 -150 53 -165 q 22 -101 22 -135 l 22 138 q 46 296 22 238 q 111 389 69 354 l 290 540 q 314 558 301 550 q 340 572 326 565 l 139 572 q 90 588 106 572 q 75 636 75 603 l 75 799 q 80 829 75 817 q 94 850 85 842 l 274 1001 q 292 1010 281 1007 q 318 1014 304 1014 l 728 1014 q 919 951 853 1014 q 986 769 986 888 l 986 639 q 965 529 986 575 q 906 451 944 483 l 726 301 q 709 289 718 296 q 690 276 700 282 l 926 276 q 975 261 960 276 q 990 213 990 246 l 990 50 q 985 19 990 32 q 971 -1 981 7 l 790 -151 q 773 -161 785 -157 q 747 -165 761 -165 m 926 0 q 965 12 953 0 q 976 50 976 24 l 976 213 q 965 251 976 239 q 926 263 953 263 l 531 263 l 531 292 q 538 321 531 314 q 567 333 546 328 l 756 393 q 914 479 856 424 q 972 639 972 535 l 972 769 q 909 941 972 882 q 728 1000 846 1000 l 318 1000 q 280 988 292 1000 q 268 950 268 976 l 268 788 q 280 749 268 761 q 318 738 292 738 l 619 738 q 649 730 640 738 q 657 701 657 722 q 649 668 657 679 q 619 651 642 657 l 433 593 q 346 560 386 579 q 276 507 306 540 q 231 422 247 474 q 215 289 215 369 l 215 50 q 227 12 215 24 q 265 0 239 0 l 926 0 m 443 456 l 767 563 q 796 585 785 569 q 807 628 807 601 l 807 754 q 771 840 807 818 q 672 861 735 861 l 393 861 l 393 875 l 672 875 q 782 849 743 875 q 821 754 821 824 l 821 628 q 808 578 821 596 q 772 550 794 560 l 449 443 q 394 409 410 429 q 379 342 379 389 l 379 139 l 851 139 l 851 125 l 367 125 l 367 342 q 383 417 367 393 q 443 456 400 442 z "},"3":{"ha":1024,"x_min":35,"x_max":1000,"o":"m 99 -165 q 50 -150 65 -165 q 35 -101 35 -135 l 35 61 q 40 92 35 79 q 54 113 44 104 l 183 221 q 156 241 165 226 q 147 281 147 256 l 147 429 q 152 460 147 447 q 167 481 157 472 l 272 569 l 99 569 q 50 585 65 569 q 35 633 35 600 l 35 799 q 40 829 35 817 q 54 850 44 842 l 233 1001 q 252 1010 240 1007 q 278 1014 264 1014 l 665 1014 q 848 956 789 1014 q 907 801 907 897 l 907 721 q 894 640 907 675 q 854 581 882 604 l 851 578 q 967 508 933 560 q 1000 369 1000 457 l 1000 231 q 981 126 1000 172 q 922 47 961 79 l 744 -103 q 658 -149 710 -133 q 538 -165 606 -165 l 99 -165 m 278 263 q 240 251 251 263 q 228 213 228 239 l 228 50 q 240 12 228 24 q 278 0 251 0 l 717 0 q 918 62 850 0 q 986 231 986 124 l 986 369 q 948 510 986 461 q 811 571 910 560 q 875 629 857 590 q 893 721 893 668 l 893 801 q 837 947 893 893 q 665 1000 781 1000 l 278 1000 q 240 988 251 1000 q 228 950 228 976 l 228 785 q 240 747 228 758 q 278 735 251 735 l 536 735 q 579 722 569 735 q 589 693 589 710 l 589 672 q 579 643 589 656 q 536 631 569 631 l 390 631 q 352 619 364 631 q 340 581 340 607 l 340 432 q 352 394 340 406 q 390 382 364 382 l 626 382 q 669 370 660 382 q 679 342 679 358 l 679 304 q 669 275 679 288 q 626 263 660 263 l 278 263 m 465 499 l 465 513 l 581 513 q 664 523 633 513 q 710 551 694 533 q 731 591 726 568 q 735 639 735 614 l 735 733 q 701 824 735 788 q 567 861 668 861 l 353 861 l 353 875 l 567 875 q 660 863 624 875 q 715 831 696 851 q 742 785 735 811 q 749 728 749 758 l 749 639 q 734 562 749 600 q 657 510 719 524 l 679 510 q 803 471 765 510 q 840 360 840 432 l 840 264 q 833 208 840 233 q 808 164 826 182 q 753 135 789 146 q 658 125 717 125 l 353 125 l 353 139 l 658 139 q 794 173 763 139 q 826 264 826 207 l 826 360 q 791 464 826 429 q 676 499 756 499 l 465 499 z "},"4":{"ha":1124,"x_min":54,"x_max":1063,"o":"m 819 -165 l 606 -165 q 557 -150 572 -165 q 542 -101 542 -135 l 542 67 l 321 67 q 116 147 178 67 q 54 353 54 228 l 54 799 q 59 829 54 817 q 74 850 64 842 l 253 1001 q 272 1010 260 1007 q 297 1014 283 1014 l 513 1014 q 561 999 546 1014 q 576 950 576 983 l 576 863 l 740 1001 q 759 1010 747 1007 q 785 1014 771 1014 l 999 1014 q 1047 999 1032 1014 q 1063 950 1063 983 l 1063 50 q 1058 19 1063 32 q 1043 -1 1053 7 l 863 -151 q 845 -161 857 -157 q 819 -165 833 -165 m 735 232 l 735 50 q 747 12 735 24 q 785 0 758 0 l 999 0 q 1037 12 1025 0 q 1049 50 1049 24 l 1049 950 q 1037 988 1049 976 q 999 1000 1025 1000 l 785 1000 q 747 988 758 1000 q 735 950 735 976 l 735 522 l 606 522 q 574 535 586 522 q 563 569 563 547 l 563 950 q 551 988 563 976 q 513 1000 539 1000 l 297 1000 q 259 988 271 1000 q 247 950 247 976 l 247 463 q 306 288 247 344 q 500 232 365 232 l 735 232 m 885 125 l 885 371 l 553 371 q 436 408 474 371 q 399 517 399 444 l 399 875 l 413 875 l 413 517 q 447 417 413 450 q 553 385 482 385 l 885 385 l 885 875 l 899 875 l 899 125 l 885 125 z "},"5":{"ha":1038,"x_min":43,"x_max":1013,"o":"m 107 -165 q 58 -150 74 -165 q 43 -101 43 -135 l 43 61 q 48 92 43 79 q 63 113 53 104 l 185 215 l 121 215 q 72 231 88 215 q 57 279 57 246 l 57 799 q 62 829 57 817 q 76 850 67 842 l 256 1001 q 274 1010 263 1007 q 300 1014 286 1014 l 899 1014 q 947 999 932 1014 q 963 950 963 983 l 963 785 q 958 754 963 767 q 943 733 953 742 l 843 649 q 967 574 922 631 q 1013 424 1013 517 l 1013 231 q 992 128 1013 175 q 933 50 972 82 l 753 -101 q 665 -149 717 -132 q 549 -165 613 -165 l 107 -165 m 728 0 q 926 63 853 0 q 999 231 999 125 l 999 424 q 933 589 999 533 q 756 644 868 644 l 565 644 l 565 735 l 899 735 q 937 747 925 735 q 949 785 949 758 l 949 950 q 937 988 949 976 q 899 1000 925 1000 l 300 1000 q 262 988 274 1000 q 250 950 250 976 l 250 431 q 262 392 250 404 q 300 381 274 381 l 644 381 q 672 373 661 381 q 682 349 682 365 l 682 294 q 672 270 682 278 q 644 263 661 263 l 286 263 q 248 251 260 263 q 236 213 236 239 l 236 50 q 248 12 236 24 q 286 0 260 0 l 728 0 m 361 125 l 361 139 l 689 139 q 800 168 767 139 q 833 261 833 197 l 833 383 q 799 477 833 449 q 701 506 765 506 l 401 506 l 401 875 l 824 875 l 824 861 l 415 861 l 415 519 l 701 519 q 810 487 774 519 q 847 383 847 454 l 847 261 q 811 158 847 190 q 689 125 775 125 l 361 125 z "},"6":{"ha":1101,"x_min":47,"x_max":1071,"o":"m 478 -186 q 260 -158 344 -186 q 128 -84 175 -131 q 64 24 81 -37 q 47 150 47 85 l 47 564 q 67 693 47 635 q 135 790 88 751 l 314 942 q 420 995 354 976 q 582 1014 486 1014 l 901 1014 q 951 999 936 1014 q 965 950 965 983 l 965 786 q 960 756 965 768 q 946 735 956 743 l 844 650 q 1022 567 974 632 q 1071 393 1071 501 l 1071 260 q 1053 140 1071 194 q 988 47 1035 86 l 807 -104 q 681 -165 761 -143 q 478 -186 601 -186 m 657 -21 q 854 -1 776 -21 q 977 56 932 19 q 1040 144 1022 93 q 1057 260 1057 196 l 1057 393 q 988 580 1057 517 q 731 643 918 643 q 631 638 675 643 q 554 622 588 632 l 554 653 q 572 720 554 704 q 642 736 590 736 l 901 736 q 940 748 928 736 q 951 786 951 760 l 951 950 q 940 988 951 976 q 901 1000 928 1000 l 582 1000 q 313 921 386 1000 q 240 715 240 842 l 240 260 q 258 144 240 196 q 321 56 275 93 q 448 -1 367 19 q 657 -21 529 -21 m 661 99 q 557 103 606 99 q 472 125 508 108 q 416 174 436 142 q 396 260 396 207 l 396 715 q 445 841 396 807 q 582 875 494 875 l 826 875 l 826 861 l 582 861 q 456 831 503 861 q 410 715 410 801 l 410 454 q 504 521 435 510 q 665 532 574 532 q 760 528 717 532 q 837 510 804 525 q 888 465 869 496 q 907 382 907 435 l 907 260 q 888 175 907 207 q 836 126 869 143 q 758 104 803 110 q 661 99 713 99 m 661 113 q 751 117 708 113 q 825 136 793 121 q 875 181 857 151 q 893 260 893 211 l 893 382 q 874 460 893 432 q 825 501 856 488 q 753 516 794 514 q 665 518 711 518 q 574 517 619 518 q 492 503 528 515 q 433 463 456 490 q 410 386 410 436 l 410 260 q 430 180 410 210 q 484 135 450 150 q 564 117 518 121 q 661 113 610 113 m 554 364 q 571 399 554 385 q 647 414 588 414 q 726 399 710 414 q 743 364 743 385 l 743 282 q 726 245 743 260 q 647 231 710 231 q 571 245 588 231 q 554 282 554 260 l 554 364 z "},"7":{"ha":1010,"x_min":19,"x_max":972,"o":"m 410 -165 l 185 -165 q 136 -150 151 -165 q 121 -101 121 -135 l 121 150 q 141 284 121 232 q 200 369 161 336 l 379 521 q 411 542 393 532 q 450 563 429 553 l 450 567 l 83 567 q 35 582 50 567 q 19 631 19 597 l 19 799 q 24 829 19 817 q 39 850 29 842 l 218 1001 q 237 1010 225 1007 q 263 1014 249 1014 l 908 1014 q 957 999 942 1014 q 972 950 972 983 l 972 599 q 952 465 972 517 q 893 379 932 414 l 713 229 q 685 210 700 219 q 653 192 671 200 l 653 50 q 648 19 653 32 q 633 -1 643 7 l 453 -151 q 435 -161 447 -157 q 410 -165 424 -165 m 908 1000 l 263 1000 q 224 988 236 1000 q 213 950 213 976 l 213 782 q 224 744 213 756 q 263 732 236 732 l 643 732 l 643 607 l 531 576 q 434 540 475 560 q 367 489 393 519 q 327 413 340 458 q 314 301 314 367 l 314 50 q 326 12 314 24 q 364 0 338 0 l 589 0 q 627 12 615 0 q 639 50 639 24 l 639 293 l 742 324 q 838 360 797 340 q 906 411 879 381 q 945 488 932 442 q 958 599 958 533 l 958 950 q 947 988 958 976 q 908 1000 935 1000 m 469 125 l 469 333 q 483 383 469 365 q 518 411 496 401 l 754 506 q 785 528 775 514 q 794 569 794 543 l 794 861 l 338 861 l 338 875 l 808 875 l 808 569 q 797 519 808 538 q 760 492 785 501 l 524 397 q 494 375 506 390 q 483 333 483 360 l 483 125 l 469 125 z "},"8":{"ha":1126,"x_min":32,"x_max":1096,"o":"m 475 -186 q 257 -162 343 -186 q 121 -100 171 -139 q 51 -10 71 -61 q 32 97 32 42 l 32 204 q 52 319 32 272 q 106 394 72 367 l 149 431 q 109 490 121 454 q 97 569 97 525 l 97 650 q 113 740 97 699 q 164 810 128 781 l 343 961 q 460 1015 385 996 q 656 1035 536 1035 q 840 1018 767 1035 q 955 971 913 1001 q 1014 897 997 940 q 1031 801 1031 854 l 1031 721 q 1018 640 1031 675 q 978 581 1006 604 l 971 575 q 1060 501 1025 554 q 1096 356 1096 447 l 1096 221 q 1079 126 1096 169 q 1024 50 1063 83 l 844 -100 q 708 -163 797 -140 q 475 -186 618 -186 m 1082 356 q 1040 506 1082 453 q 935 571 997 558 q 999 629 981 590 q 1017 721 1017 668 l 1017 801 q 999 893 1017 853 q 941 962 982 933 q 830 1006 900 990 q 656 1021 760 1021 q 481 1006 551 1021 q 368 962 410 990 q 308 893 326 933 q 290 801 290 853 l 290 721 q 308 629 290 668 q 372 571 326 590 q 267 506 310 558 q 225 356 225 453 l 225 221 q 245 122 225 167 q 314 46 265 78 q 446 -3 363 14 q 654 -21 529 -21 q 862 -3 779 -21 q 993 46 944 14 q 1062 122 1042 78 q 1082 221 1082 167 l 1082 356 m 654 93 q 516 104 571 93 q 429 135 461 115 q 385 181 397 154 q 372 240 372 208 l 372 368 q 410 460 372 421 q 549 513 449 499 q 452 553 482 524 q 422 632 422 583 l 422 775 q 478 872 422 839 q 654 906 533 906 q 830 871 775 906 q 885 764 885 836 l 885 632 q 856 553 885 583 q 760 513 826 524 q 897 460 860 499 q 935 369 935 422 l 935 240 q 922 181 935 208 q 878 135 910 154 q 792 104 847 115 q 654 93 738 93 m 436 775 l 436 632 q 490 546 436 572 q 654 519 544 519 q 817 546 764 519 q 871 632 871 572 l 871 764 q 817 862 871 832 q 654 892 763 892 q 491 863 546 892 q 436 775 436 835 m 567 667 l 567 728 q 581 763 567 749 q 654 778 596 778 q 727 763 714 778 q 740 728 740 749 l 740 667 q 727 630 740 644 q 654 615 714 615 q 581 630 596 615 q 567 667 567 644 m 386 368 l 386 240 q 445 144 386 181 q 654 107 504 107 q 863 144 804 107 q 921 240 921 181 l 921 369 q 862 467 921 429 q 654 506 803 506 q 446 467 506 506 q 386 368 386 428 m 532 274 l 532 347 q 556 383 532 368 q 654 397 579 397 q 752 383 729 397 q 775 347 775 368 l 775 274 q 752 237 775 251 q 654 222 729 222 q 556 237 579 222 q 532 274 532 251 z "},"9":{"ha":1101,"x_min":32,"x_max":1056,"o":"m 201 -165 q 152 -150 167 -165 q 138 -101 138 -135 l 138 63 q 142 93 138 81 q 157 114 147 106 l 258 200 q 81 283 129 218 q 32 456 32 347 l 32 589 q 50 710 32 656 q 115 803 68 764 l 294 953 q 420 1013 340 992 q 625 1035 500 1035 q 843 1013 758 1035 q 975 953 928 992 q 1039 860 1022 914 q 1056 740 1056 806 l 1056 285 q 1035 156 1056 214 q 968 58 1015 99 l 788 -92 q 681 -146 747 -126 q 521 -165 615 -165 l 201 -165 m 700 0 q 969 79 896 0 q 1042 285 1042 158 l 1042 740 q 1024 856 1042 804 q 961 944 1007 907 q 834 1001 915 981 q 625 1021 753 1021 q 428 1001 506 1021 q 305 944 350 981 q 242 856 260 907 q 225 740 225 804 l 225 607 q 294 420 225 483 q 551 357 364 357 q 651 363 607 357 q 728 378 694 368 l 728 347 q 710 280 728 296 q 640 264 692 264 l 381 264 q 342 252 354 264 q 331 214 331 240 l 331 50 q 342 12 331 24 q 381 0 354 0 l 700 0 m 456 125 l 456 139 l 700 139 q 826 169 779 139 q 872 285 872 199 l 872 546 q 778 479 847 490 q 617 468 708 468 q 522 472 565 468 q 445 490 478 475 q 394 535 413 504 q 375 618 375 565 l 375 740 q 394 825 375 793 q 446 874 413 857 q 524 896 479 890 q 621 901 569 901 q 725 897 676 901 q 810 875 774 892 q 866 826 846 858 q 886 740 886 793 l 886 285 q 837 159 886 193 q 700 125 788 125 l 456 125 m 617 482 q 708 483 663 482 q 790 497 754 485 q 849 537 826 510 q 872 614 872 564 l 872 740 q 852 820 872 790 q 798 865 832 850 q 718 883 764 879 q 621 888 672 888 q 531 883 574 888 q 457 864 489 879 q 407 819 425 849 q 389 740 389 789 l 389 618 q 408 540 389 568 q 457 499 426 513 q 529 484 488 486 q 617 482 571 482 m 728 636 q 711 601 728 615 q 635 586 694 586 q 556 601 572 586 q 539 636 539 615 l 539 718 q 556 755 539 740 q 635 769 572 769 q 711 755 694 769 q 728 718 728 740 l 728 636 z "}," ":{"ha":451,"x_min":0,"x_max":0,"o":""},"A":{"ha":1153,"x_min":42,"x_max":1113,"o":"m 396 421 l 396 378 l 938 378 l 938 421 q 931 490 938 458 q 915 550 925 522 l 819 776 q 788 837 804 813 q 732 861 771 861 l 596 861 q 538 837 554 861 q 507 778 521 813 l 418 550 q 402 490 408 522 q 396 421 396 458 m 618 708 q 630 726 624 721 q 644 732 636 732 l 679 732 q 694 726 688 732 q 706 708 700 721 l 771 497 l 553 497 l 618 708 m 938 125 l 938 364 l 396 364 l 396 125 l 382 125 l 382 421 q 388 492 382 460 q 406 556 394 525 l 494 783 q 529 849 510 822 q 596 875 549 875 l 732 875 q 797 849 778 875 q 832 782 815 822 l 928 556 q 945 492 939 525 q 951 421 951 460 l 951 125 l 938 125 m 539 50 l 539 244 l 785 244 l 785 50 q 798 12 785 24 q 839 0 811 0 l 1049 0 q 1087 12 1075 0 q 1099 50 1099 24 l 1099 417 q 1085 513 1099 458 q 1044 639 1072 567 l 924 954 q 898 989 915 978 q 854 1000 881 1000 l 481 1000 q 435 989 453 1000 q 410 954 418 978 l 289 639 q 248 513 261 567 q 235 417 235 458 l 235 50 q 247 12 235 24 q 285 0 258 0 l 489 0 q 527 12 515 0 q 539 50 539 24 m 353 -151 q 335 -161 347 -157 q 310 -165 324 -165 l 106 -165 q 57 -150 72 -165 q 42 -101 42 -135 l 42 265 q 55 363 42 308 q 97 493 68 418 l 217 807 q 227 828 221 819 q 240 844 233 838 l 242 846 l 419 994 q 446 1009 431 1004 q 481 1014 461 1014 l 854 1014 q 906 1001 886 1014 q 936 960 926 988 l 1057 644 q 1099 515 1086 569 q 1113 417 1113 460 l 1113 50 q 1108 19 1113 32 q 1093 -1 1103 7 l 913 -151 q 895 -161 907 -157 q 869 -165 883 -165 l 660 -165 q 608 -149 625 -165 q 592 -101 592 -133 l 592 79 l 553 79 l 553 50 q 548 19 553 32 q 533 -1 543 7 l 353 -151 z "},"À":{"ha":1153,"x_min":42,"x_max":1113,"o":"m 910 1046 q 945 1056 933 1043 q 957 1092 957 1068 l 957 1225 q 945 1262 957 1251 q 907 1275 933 1272 l 422 1335 q 387 1325 399 1338 q 375 1289 375 1313 l 375 1156 q 387 1119 375 1129 q 425 1106 399 1108 l 910 1046 m 500 1204 l 500 1218 l 832 1176 l 832 1163 l 500 1204 m 396 421 l 396 378 l 938 378 l 938 421 q 931 490 938 458 q 915 550 925 522 l 819 776 q 788 837 804 813 q 732 861 771 861 l 596 861 q 538 837 554 861 q 507 778 521 813 l 418 550 q 402 490 408 522 q 396 421 396 458 m 618 708 q 630 726 624 721 q 644 732 636 732 l 679 732 q 694 726 688 732 q 706 708 700 721 l 771 497 l 553 497 l 618 708 m 938 125 l 938 364 l 396 364 l 396 125 l 382 125 l 382 421 q 388 492 382 460 q 406 556 394 525 l 494 783 q 529 849 510 822 q 596 875 549 875 l 732 875 q 797 849 778 875 q 832 782 815 822 l 928 556 q 945 492 939 525 q 951 421 951 460 l 951 125 l 938 125 m 539 50 l 539 244 l 785 244 l 785 50 q 798 12 785 24 q 839 0 811 0 l 1049 0 q 1087 12 1075 0 q 1099 50 1099 24 l 1099 417 q 1085 513 1099 458 q 1044 639 1072 567 l 924 954 q 898 989 915 978 q 854 1000 881 1000 l 481 1000 q 435 989 453 1000 q 410 954 418 978 l 289 639 q 248 513 261 567 q 235 417 235 458 l 235 50 q 247 12 235 24 q 285 0 258 0 l 489 0 q 527 12 515 0 q 539 50 539 24 m 353 -151 q 335 -161 347 -157 q 310 -165 324 -165 l 106 -165 q 57 -150 72 -165 q 42 -101 42 -135 l 42 265 q 55 363 42 308 q 97 493 68 418 l 217 807 q 227 828 221 819 q 240 844 233 838 l 242 846 l 340 928 l 244 940 q 197 958 211 944 q 182 1004 182 972 l 182 1138 q 187 1167 182 1156 q 201 1188 192 1179 l 381 1339 q 399 1347 389 1344 q 424 1349 410 1350 l 908 1289 q 956 1271 942 1285 q 971 1225 971 1257 l 971 1092 q 966 1062 971 1074 q 951 1042 961 1050 l 904 1003 q 923 985 915 996 q 936 960 931 974 l 1057 644 q 1099 515 1086 569 q 1113 417 1113 460 l 1113 50 q 1108 19 1113 32 q 1093 -1 1103 7 l 913 -151 q 895 -161 907 -157 q 869 -165 883 -165 l 660 -165 q 608 -149 625 -165 q 592 -101 592 -133 l 592 79 l 553 79 l 553 50 q 548 19 553 32 q 533 -1 543 7 l 353 -151 z "},"Á":{"ha":1153,"x_min":42,"x_max":1113,"o":"m 907 1106 q 945 1119 933 1108 q 957 1156 957 1129 l 957 1289 q 945 1325 957 1313 q 910 1335 933 1338 l 425 1275 q 387 1262 399 1272 q 375 1225 375 1251 l 375 1092 q 387 1056 375 1068 q 422 1046 399 1043 l 907 1106 m 500 1176 l 832 1218 l 832 1204 l 500 1163 l 500 1176 m 396 421 l 396 378 l 938 378 l 938 421 q 931 490 938 458 q 915 550 925 522 l 819 776 q 788 837 804 813 q 732 861 771 861 l 596 861 q 538 837 554 861 q 507 778 521 813 l 418 550 q 402 490 408 522 q 396 421 396 458 m 618 708 q 630 726 624 721 q 644 732 636 732 l 679 732 q 694 726 688 732 q 706 708 700 721 l 771 497 l 553 497 l 618 708 m 938 125 l 938 364 l 396 364 l 396 125 l 382 125 l 382 421 q 388 492 382 460 q 406 556 394 525 l 494 783 q 529 849 510 822 q 596 875 549 875 l 732 875 q 797 849 778 875 q 832 782 815 822 l 928 556 q 945 492 939 525 q 951 421 951 460 l 951 125 l 938 125 m 539 50 l 539 244 l 785 244 l 785 50 q 798 12 785 24 q 839 0 811 0 l 1049 0 q 1087 12 1075 0 q 1099 50 1099 24 l 1099 417 q 1085 513 1099 458 q 1044 639 1072 567 l 924 954 q 898 989 915 978 q 854 1000 881 1000 l 481 1000 q 435 989 453 1000 q 410 954 418 978 l 289 639 q 248 513 261 567 q 235 417 235 458 l 235 50 q 247 12 235 24 q 285 0 258 0 l 489 0 q 527 12 515 0 q 539 50 539 24 m 353 -151 q 335 -161 347 -157 q 310 -165 324 -165 l 106 -165 q 57 -150 72 -165 q 42 -101 42 -135 l 42 265 q 55 363 42 308 q 97 493 68 418 l 217 807 q 227 828 221 819 q 240 844 233 838 l 242 846 l 290 886 l 244 881 q 198 892 214 876 q 182 940 182 908 l 182 1074 q 187 1103 182 1092 q 200 1122 192 1115 l 381 1274 q 398 1283 386 1279 q 424 1289 410 1288 l 908 1349 q 955 1337 939 1353 q 971 1289 971 1321 l 971 1156 q 966 1125 971 1138 q 951 1107 961 1113 l 842 1014 l 854 1014 q 906 1001 886 1014 q 936 960 926 988 l 1057 644 q 1099 515 1086 569 q 1113 417 1113 460 l 1113 50 q 1108 19 1113 32 q 1093 -1 1103 7 l 913 -151 q 895 -161 907 -157 q 869 -165 883 -165 l 660 -165 q 608 -149 625 -165 q 592 -101 592 -133 l 592 79 l 553 79 l 553 50 q 548 19 553 32 q 533 -1 543 7 l 353 -151 z "},"Â":{"ha":1153,"x_min":42,"x_max":1113,"o":"m 831 1181 l 710 1219 q 690 1225 700 1222 q 665 1228 679 1228 q 641 1225 651 1228 q 621 1219 631 1222 l 500 1181 l 500 1196 l 615 1233 q 639 1239 628 1236 q 665 1242 650 1242 q 692 1239 681 1242 q 715 1233 703 1236 l 831 1196 l 831 1181 m 622 1107 q 665 1113 646 1113 q 708 1107 685 1113 l 899 1051 q 946 1049 935 1040 q 957 1094 957 1057 l 957 1207 q 945 1256 957 1244 q 899 1281 933 1267 l 708 1350 q 688 1356 699 1354 q 664 1357 676 1357 q 637 1353 651 1356 q 610 1344 622 1350 l 432 1281 q 387 1256 399 1267 q 375 1207 375 1244 l 375 1094 q 386 1049 375 1057 q 432 1051 397 1040 l 622 1107 m 396 421 l 396 378 l 938 378 l 938 421 q 931 490 938 458 q 915 550 925 522 l 819 776 q 788 837 804 813 q 732 861 771 861 l 596 861 q 538 837 554 861 q 507 778 521 813 l 418 550 q 402 490 408 522 q 396 421 396 458 m 618 708 q 630 726 624 721 q 644 732 636 732 l 679 732 q 694 726 688 732 q 706 708 700 721 l 771 497 l 553 497 l 618 708 m 938 125 l 938 364 l 396 364 l 396 125 l 382 125 l 382 421 q 388 492 382 460 q 406 556 394 525 l 494 783 q 529 849 510 822 q 596 875 549 875 l 732 875 q 797 849 778 875 q 832 782 815 822 l 928 556 q 945 492 939 525 q 951 421 951 460 l 951 125 l 938 125 m 539 50 l 539 244 l 785 244 l 785 50 q 798 12 785 24 q 839 0 811 0 l 1049 0 q 1087 12 1075 0 q 1099 50 1099 24 l 1099 417 q 1085 513 1099 458 q 1044 639 1072 567 l 924 954 q 898 989 915 978 q 854 1000 881 1000 l 481 1000 q 435 989 453 1000 q 410 954 418 978 l 289 639 q 248 513 261 567 q 235 417 235 458 l 235 50 q 247 12 235 24 q 285 0 258 0 l 489 0 q 527 12 515 0 q 539 50 539 24 m 353 -151 q 335 -161 347 -157 q 310 -165 324 -165 l 106 -165 q 57 -150 72 -165 q 42 -101 42 -135 l 42 265 q 55 363 42 308 q 97 493 68 418 l 217 807 q 227 828 221 819 q 240 844 233 838 l 242 846 l 308 901 l 257 886 q 197 883 211 872 q 182 943 182 893 l 182 1056 q 187 1096 182 1082 q 201 1119 192 1110 l 383 1271 l 382 1269 q 401 1282 389 1276 q 428 1293 413 1288 l 604 1357 q 634 1366 618 1363 q 664 1371 650 1369 q 690 1369 678 1371 q 713 1363 703 1368 l 904 1293 q 958 1264 946 1278 q 971 1207 971 1250 l 971 1094 q 967 1058 971 1072 q 957 1039 963 1044 l 956 1038 l 910 999 q 925 983 918 993 q 936 960 932 974 l 1057 644 q 1099 515 1086 569 q 1113 417 1113 460 l 1113 50 q 1108 19 1113 32 q 1093 -1 1103 7 l 913 -151 q 895 -161 907 -157 q 869 -165 883 -165 l 660 -165 q 608 -149 625 -165 q 592 -101 592 -133 l 592 79 l 553 79 l 553 50 q 548 19 553 32 q 533 -1 543 7 l 353 -151 z "},"Ã":{"ha":1153,"x_min":42,"x_max":1113,"o":"m 665 1061 l 688 1058 q 756 1049 729 1053 q 806 1046 783 1046 q 850 1051 828 1046 q 906 1065 872 1056 q 942 1085 929 1075 q 956 1122 956 1096 l 956 1263 q 943 1297 956 1289 q 906 1299 931 1306 q 856 1283 875 1289 q 816 1276 836 1278 q 769 1278 796 1275 q 696 1288 742 1281 l 665 1292 l 642 1294 q 573 1303 600 1300 q 524 1307 546 1307 q 481 1302 503 1307 q 425 1288 458 1297 q 388 1267 401 1278 q 375 1231 375 1257 l 375 1090 q 388 1056 375 1064 q 425 1054 400 1047 q 473 1067 453 1063 q 514 1074 493 1072 q 561 1074 535 1076 q 626 1067 588 1072 l 665 1061 m 831 1168 l 831 1154 q 771 1154 803 1151 q 686 1165 739 1157 l 664 1168 l 625 1174 q 551 1182 579 1181 q 500 1179 522 1183 l 500 1194 q 552 1195 524 1197 q 628 1188 581 1193 l 667 1182 l 689 1179 q 772 1168 742 1171 q 831 1168 803 1165 m 396 421 l 396 378 l 938 378 l 938 421 q 931 490 938 458 q 915 550 925 522 l 819 776 q 788 837 804 813 q 732 861 771 861 l 596 861 q 538 837 554 861 q 507 778 521 813 l 418 550 q 402 490 408 522 q 396 421 396 458 m 618 708 q 630 726 624 721 q 644 732 636 732 l 679 732 q 694 726 688 732 q 706 708 700 721 l 771 497 l 553 497 l 618 708 m 938 125 l 938 364 l 396 364 l 396 125 l 382 125 l 382 421 q 388 492 382 460 q 406 556 394 525 l 494 783 q 529 849 510 822 q 596 875 549 875 l 732 875 q 797 849 778 875 q 832 782 815 822 l 928 556 q 945 492 939 525 q 951 421 951 460 l 951 125 l 938 125 m 539 50 l 539 244 l 785 244 l 785 50 q 798 12 785 24 q 839 0 811 0 l 1049 0 q 1087 12 1075 0 q 1099 50 1099 24 l 1099 417 q 1085 513 1099 458 q 1044 639 1072 567 l 924 954 q 898 989 915 978 q 854 1000 881 1000 l 481 1000 q 435 989 453 1000 q 410 954 418 978 l 289 639 q 248 513 261 567 q 235 417 235 458 l 235 50 q 247 12 235 24 q 285 0 258 0 l 489 0 q 527 12 515 0 q 539 50 539 24 m 353 -151 q 335 -161 347 -157 q 310 -165 324 -165 l 106 -165 q 57 -150 72 -165 q 42 -101 42 -135 l 42 265 q 55 363 42 308 q 97 493 68 418 l 217 807 q 227 828 221 819 q 240 844 233 838 l 242 846 l 314 907 q 285 899 300 904 q 250 889 269 894 q 199 892 215 879 q 182 939 182 904 l 182 1079 q 187 1109 182 1097 q 203 1131 192 1121 l 382 1281 q 398 1291 388 1286 q 419 1300 408 1296 l 421 1300 l 421 1301 q 477 1316 454 1311 q 523 1321 500 1321 q 573 1317 546 1321 q 643 1308 600 1314 l 667 1306 l 697 1301 q 768 1292 742 1294 q 814 1290 794 1289 q 853 1297 833 1292 q 901 1313 872 1303 q 953 1310 936 1322 q 969 1263 969 1297 l 969 1122 q 964 1092 969 1104 q 949 1072 958 1081 l 878 1013 q 915 995 900 1008 q 936 960 929 982 l 1057 644 q 1099 515 1086 569 q 1113 417 1113 460 l 1113 50 q 1108 19 1113 32 q 1093 -1 1103 7 l 913 -151 q 895 -161 907 -157 q 869 -165 883 -165 l 660 -165 q 608 -149 625 -165 q 592 -101 592 -133 l 592 79 l 553 79 l 553 50 q 548 19 553 32 q 533 -1 543 7 l 353 -151 z "},"Ä":{"ha":1153,"x_min":42,"x_max":1113,"o":"m 939 1056 q 974 1067 963 1056 q 985 1101 985 1078 l 985 1269 q 974 1304 985 1293 q 939 1315 963 1315 l 747 1315 q 713 1304 724 1315 q 701 1269 701 1293 l 701 1101 q 713 1067 701 1078 q 747 1056 724 1056 l 939 1056 m 581 1056 q 615 1067 604 1056 q 626 1101 626 1078 l 626 1269 q 615 1304 626 1293 q 581 1315 604 1315 l 389 1315 q 353 1304 365 1315 q 342 1269 342 1293 l 342 1101 q 353 1067 342 1078 q 389 1056 365 1056 l 581 1056 m 850 1153 l 836 1153 l 836 1218 l 850 1218 l 850 1153 m 492 1153 l 478 1153 l 478 1218 l 492 1218 l 492 1153 m 396 421 l 396 378 l 938 378 l 938 421 q 931 490 938 458 q 915 550 925 522 l 819 776 q 788 837 804 813 q 732 861 771 861 l 596 861 q 538 837 554 861 q 507 778 521 813 l 418 550 q 402 490 408 522 q 396 421 396 458 m 618 708 q 630 726 624 721 q 644 732 636 732 l 679 732 q 694 726 688 732 q 706 708 700 721 l 771 497 l 553 497 l 618 708 m 938 125 l 938 364 l 396 364 l 396 125 l 382 125 l 382 421 q 388 492 382 460 q 406 556 394 525 l 494 783 q 529 849 510 822 q 596 875 549 875 l 732 875 q 797 849 778 875 q 832 782 815 822 l 928 556 q 945 492 939 525 q 951 421 951 460 l 951 125 l 938 125 m 539 50 l 539 244 l 785 244 l 785 50 q 798 12 785 24 q 839 0 811 0 l 1049 0 q 1087 12 1075 0 q 1099 50 1099 24 l 1099 417 q 1085 513 1099 458 q 1044 639 1072 567 l 924 954 q 898 989 915 978 q 854 1000 881 1000 l 481 1000 q 435 989 453 1000 q 410 954 418 978 l 289 639 q 248 513 261 567 q 235 417 235 458 l 235 50 q 247 12 235 24 q 285 0 258 0 l 489 0 q 527 12 515 0 q 539 50 539 24 m 353 -151 q 335 -161 347 -157 q 310 -165 324 -165 l 106 -165 q 57 -150 72 -165 q 42 -101 42 -135 l 42 265 q 55 363 42 308 q 97 493 68 418 l 217 807 q 227 828 221 819 q 240 844 233 838 l 242 846 l 294 890 l 210 890 q 164 905 179 890 q 149 950 149 919 l 149 1118 q 153 1147 149 1136 q 167 1165 158 1158 l 346 1317 q 364 1326 353 1322 q 389 1329 375 1329 l 581 1329 q 626 1315 611 1329 q 640 1269 640 1300 l 640 1261 l 706 1317 q 723 1326 713 1322 q 747 1329 733 1329 l 939 1329 q 984 1315 969 1329 q 999 1269 999 1300 l 999 1101 q 994 1073 999 1085 q 981 1054 989 1061 l 911 997 q 926 982 919 992 q 936 960 932 972 l 1057 644 q 1099 515 1086 569 q 1113 417 1113 460 l 1113 50 q 1108 19 1113 32 q 1093 -1 1103 7 l 913 -151 q 895 -161 907 -157 q 869 -165 883 -165 l 660 -165 q 608 -149 625 -165 q 592 -101 592 -133 l 592 79 l 553 79 l 553 50 q 548 19 553 32 q 533 -1 543 7 l 353 -151 z "},"Å":{"ha":1153,"x_min":42,"x_max":1113,"o":"m 472 1056 l 472 1118 q 480 1175 472 1149 q 508 1219 488 1201 q 568 1248 529 1238 q 668 1258 607 1258 q 829 1219 792 1258 q 867 1118 867 1179 l 867 1056 q 829 955 867 993 q 668 917 792 917 q 568 926 607 917 q 508 955 529 936 q 480 999 488 974 q 472 1056 472 1025 m 668 1244 q 522 1210 557 1244 q 486 1118 486 1176 l 486 1056 q 522 964 486 997 q 668 931 557 931 q 816 964 779 931 q 853 1056 853 997 l 853 1118 q 816 1210 853 1175 q 668 1244 779 1244 m 750 1061 q 735 1016 750 1031 q 668 1001 719 1001 q 603 1016 617 1001 q 589 1061 589 1031 l 589 1110 q 603 1151 589 1136 q 668 1165 617 1165 q 735 1151 719 1165 q 750 1110 750 1136 l 750 1061 m 396 421 l 396 378 l 938 378 l 938 421 q 931 490 938 458 q 915 550 925 522 l 819 776 q 788 837 804 813 q 732 861 771 861 l 596 861 q 538 837 554 861 q 507 778 521 813 l 418 550 q 402 490 408 522 q 396 421 396 458 m 618 708 q 629 726 622 721 q 644 732 636 732 l 679 732 q 694 726 688 732 q 706 708 701 721 l 771 497 l 553 497 l 618 708 m 938 125 l 938 364 l 396 364 l 396 125 l 382 125 l 382 421 q 388 492 382 460 q 406 556 394 525 l 494 783 q 529 849 510 822 q 596 875 549 875 l 732 875 q 797 849 778 875 q 832 782 815 822 l 928 556 q 945 492 939 525 q 951 421 951 460 l 951 125 l 938 125 m 539 50 l 539 244 l 785 244 l 785 50 q 798 12 785 24 q 839 0 811 0 l 1049 0 q 1087 12 1075 0 q 1099 50 1099 24 l 1099 417 q 1085 513 1099 458 q 1044 639 1072 567 l 928 944 q 959 1001 950 969 q 968 1071 968 1033 l 968 1151 q 955 1233 968 1196 q 908 1295 942 1269 q 815 1335 874 1321 q 667 1350 757 1350 q 518 1335 576 1350 q 426 1295 460 1321 q 378 1233 392 1269 q 365 1151 365 1196 l 365 1071 q 374 1001 365 1033 q 406 944 383 969 l 289 639 q 248 513 261 567 q 235 417 235 458 l 235 50 q 247 12 235 24 q 285 0 258 0 l 489 0 q 527 12 515 0 q 539 50 539 24 m 533 -1 l 353 -151 q 335 -161 347 -157 q 310 -165 324 -165 l 106 -165 q 57 -150 72 -165 q 42 -101 42 -135 l 42 265 q 55 363 42 308 q 97 493 68 418 l 211 790 q 181 849 190 817 q 172 919 172 882 l 172 1000 q 185 1085 172 1046 q 232 1151 197 1124 l 413 1303 q 509 1347 447 1331 q 667 1364 571 1364 q 824 1348 763 1364 q 921 1304 886 1332 q 969 1237 956 1276 q 982 1151 982 1197 l 982 1071 q 973 1001 982 1033 q 943 942 964 968 l 1057 644 q 1099 515 1086 569 q 1113 417 1113 460 l 1113 50 q 1108 19 1113 32 q 1093 -1 1103 7 l 913 -151 q 895 -161 907 -157 q 869 -165 883 -165 l 660 -165 q 608 -149 625 -165 q 592 -101 592 -133 l 592 79 l 553 79 l 553 50 q 548 19 553 32 q 533 -1 543 7 z "},"Ā":{"ha":1153,"x_min":42,"x_max":1113,"o":"m 907 1056 q 945 1067 933 1056 q 957 1106 957 1079 l 957 1235 q 945 1273 957 1261 q 907 1285 933 1285 l 425 1285 q 387 1273 399 1285 q 375 1235 375 1261 l 375 1106 q 387 1067 375 1079 q 425 1056 399 1056 l 907 1056 m 500 1176 l 832 1176 l 832 1163 l 500 1163 l 500 1176 m 396 421 l 396 378 l 938 378 l 938 421 q 931 490 938 458 q 915 550 925 522 l 819 776 q 788 837 804 813 q 732 861 771 861 l 596 861 q 538 837 554 861 q 507 778 521 813 l 418 550 q 402 490 408 522 q 396 421 396 458 m 618 708 q 630 726 624 721 q 644 732 636 732 l 679 732 q 694 726 688 732 q 706 708 700 721 l 771 497 l 553 497 l 618 708 m 938 125 l 938 364 l 396 364 l 396 125 l 382 125 l 382 421 q 388 492 382 460 q 406 556 394 525 l 494 783 q 529 849 510 822 q 596 875 549 875 l 732 875 q 797 849 778 875 q 832 782 815 822 l 928 556 q 945 492 939 525 q 951 421 951 460 l 951 125 l 938 125 m 539 50 l 539 244 l 785 244 l 785 50 q 798 12 785 24 q 839 0 811 0 l 1049 0 q 1087 12 1075 0 q 1099 50 1099 24 l 1099 417 q 1085 513 1099 458 q 1044 639 1072 567 l 924 954 q 898 989 915 978 q 854 1000 881 1000 l 481 1000 q 435 989 453 1000 q 410 954 418 978 l 289 639 q 248 513 261 567 q 235 417 235 458 l 235 50 q 247 12 235 24 q 285 0 258 0 l 489 0 q 527 12 515 0 q 539 50 539 24 m 353 -151 q 335 -161 347 -157 q 310 -165 324 -165 l 106 -165 q 57 -150 72 -165 q 42 -101 42 -135 l 42 265 q 55 363 42 308 q 97 493 68 418 l 217 807 q 227 828 221 819 q 240 844 233 838 l 242 846 l 294 890 l 246 890 q 197 906 213 890 q 182 954 182 921 l 182 1083 q 187 1114 182 1101 q 201 1135 192 1126 l 381 1286 q 399 1295 388 1292 q 425 1299 411 1299 l 907 1299 q 956 1283 940 1299 q 971 1235 971 1268 l 971 1106 q 966 1075 971 1088 q 951 1054 961 1063 l 896 1007 q 920 990 910 1001 q 936 960 931 978 l 1057 644 q 1099 515 1086 569 q 1113 417 1113 460 l 1113 50 q 1108 19 1113 32 q 1093 -1 1103 7 l 913 -151 q 895 -161 907 -157 q 869 -165 883 -165 l 660 -165 q 608 -149 625 -165 q 592 -101 592 -133 l 592 79 l 553 79 l 553 50 q 548 19 553 32 q 533 -1 543 7 l 353 -151 z "},"Ă":{"ha":1153,"x_min":42,"x_max":1113,"o":"m 968 1246 l 968 1307 q 956 1345 968 1333 q 918 1357 944 1357 l 792 1357 q 759 1348 768 1357 q 750 1314 750 1339 l 750 1285 q 735 1252 750 1265 q 668 1239 719 1239 q 603 1252 617 1239 q 589 1285 589 1265 l 589 1314 q 580 1348 589 1339 q 549 1357 571 1357 l 415 1357 q 377 1345 389 1357 q 365 1307 365 1333 l 365 1246 q 378 1165 365 1201 q 426 1102 392 1128 q 518 1062 460 1076 q 667 1047 576 1047 q 815 1062 757 1047 q 908 1102 874 1076 q 955 1165 942 1128 q 968 1246 968 1201 m 853 1260 l 867 1260 l 867 1247 q 859 1208 867 1228 q 831 1172 851 1188 q 769 1146 810 1156 q 665 1136 729 1136 q 563 1146 601 1136 q 503 1172 524 1156 q 477 1208 483 1188 q 471 1247 471 1228 l 471 1260 l 485 1260 l 485 1247 q 519 1180 485 1210 q 665 1150 553 1150 q 815 1180 778 1150 q 853 1247 853 1210 l 853 1260 m 396 421 l 396 378 l 938 378 l 938 421 q 931 490 938 458 q 915 550 925 522 l 819 776 q 788 837 804 813 q 732 861 771 861 l 596 861 q 538 837 554 861 q 507 778 521 813 l 418 550 q 402 490 408 522 q 396 421 396 458 m 618 708 q 630 726 624 721 q 644 732 636 732 l 679 732 q 694 726 688 732 q 706 708 700 721 l 771 497 l 553 497 l 618 708 m 938 125 l 938 364 l 396 364 l 396 125 l 382 125 l 382 421 q 388 492 382 460 q 406 556 394 525 l 494 783 q 529 849 510 822 q 596 875 549 875 l 732 875 q 797 849 778 875 q 832 782 815 822 l 928 556 q 945 492 939 525 q 951 421 951 460 l 951 125 l 938 125 m 539 50 l 539 244 l 785 244 l 785 50 q 798 12 785 24 q 839 0 811 0 l 1049 0 q 1087 12 1075 0 q 1099 50 1099 24 l 1099 417 q 1085 513 1099 458 q 1044 639 1072 567 l 924 954 q 898 989 915 978 q 854 1000 881 1000 l 481 1000 q 435 989 453 1000 q 410 954 418 978 l 289 639 q 248 513 261 567 q 235 417 235 458 l 235 50 q 247 12 235 24 q 285 0 258 0 l 489 0 q 527 12 515 0 q 539 50 539 24 m 353 -151 q 335 -161 347 -157 q 310 -165 324 -165 l 106 -165 q 57 -150 72 -165 q 42 -101 42 -135 l 42 265 q 55 363 42 308 q 97 493 68 418 l 217 807 q 227 828 221 819 q 240 844 233 838 l 242 846 l 310 903 q 201 978 229 928 q 172 1094 172 1029 l 172 1156 q 177 1186 172 1174 q 192 1207 182 1199 l 371 1358 q 390 1367 378 1364 q 415 1371 401 1371 l 549 1371 q 590 1359 578 1371 q 603 1314 603 1347 l 603 1285 q 608 1267 603 1275 q 628 1257 614 1260 l 753 1361 l 751 1360 q 767 1368 757 1365 q 792 1371 776 1371 l 918 1371 q 967 1356 951 1371 q 982 1307 982 1340 l 982 1246 q 969 1161 982 1200 q 921 1094 956 1122 l 824 1014 l 854 1014 q 906 1001 886 1014 q 936 960 926 988 l 1057 644 q 1099 515 1086 569 q 1113 417 1113 460 l 1113 50 q 1108 19 1113 32 q 1093 -1 1103 7 l 913 -151 q 895 -161 907 -157 q 869 -165 883 -165 l 660 -165 q 608 -149 625 -165 q 592 -101 592 -133 l 592 79 l 553 79 l 553 50 q 548 19 553 32 q 533 -1 543 7 l 353 -151 z "},"Ą":{"ha":1153,"x_min":42,"x_max":1113,"o":"m 874 -424 l 719 -424 q 591 -368 633 -424 q 565 -219 549 -312 l 592 -75 l 592 79 l 553 79 l 553 50 q 548 19 553 32 q 533 -1 543 7 l 353 -151 q 335 -161 347 -157 q 310 -165 324 -165 l 106 -165 q 57 -150 72 -165 q 42 -101 42 -135 l 42 265 q 55 363 42 308 q 97 493 68 418 l 217 807 q 227 828 221 819 q 240 844 233 838 l 242 846 l 419 994 q 446 1009 431 1004 q 481 1014 461 1014 l 854 1014 q 906 1001 886 1014 q 936 960 926 988 l 1057 644 q 1099 515 1086 569 q 1113 417 1113 460 l 1113 50 q 1097 1 1113 17 q 1049 -14 1082 -14 l 1014 -14 l 1008 -50 l 1049 -50 q 1099 -63 1086 -50 q 1113 -111 1113 -76 l 1113 -211 q 1107 -246 1113 -233 q 1092 -267 1101 -258 l 915 -412 q 899 -421 910 -418 q 874 -424 888 -424 m 899 -258 l 1053 -258 q 1089 -248 1079 -258 q 1099 -211 1099 -237 l 1099 -111 q 1088 -74 1099 -85 q 1049 -64 1078 -64 l 992 -64 l 1001 0 l 1049 0 q 1087 12 1075 0 q 1099 50 1099 24 l 1099 417 q 1085 513 1099 458 q 1044 639 1072 567 l 924 954 q 898 989 915 978 q 854 1000 881 1000 l 481 1000 q 435 989 453 1000 q 410 954 418 978 l 289 639 q 248 513 261 567 q 235 417 235 458 l 235 50 q 247 12 235 24 q 285 0 258 0 l 489 0 q 527 12 515 0 q 539 50 539 24 l 539 244 l 785 244 l 785 79 l 758 -71 q 777 -212 744 -167 q 899 -258 810 -258 m 940 -147 l 974 -147 l 974 -161 l 940 -161 q 875 -135 889 -161 q 869 -57 861 -108 l 886 58 q 900 106 892 92 q 938 136 908 119 l 938 364 l 396 364 l 396 125 l 382 125 l 382 421 q 388 492 382 460 q 406 556 394 525 l 494 783 q 529 849 510 822 q 596 875 549 875 l 732 875 q 797 849 778 875 q 832 782 815 822 l 928 556 q 945 492 939 525 q 951 421 951 460 l 951 125 l 946 125 q 912 100 919 111 q 900 58 904 89 l 883 -60 q 888 -124 878 -101 q 940 -147 897 -147 m 396 421 l 396 378 l 938 378 l 938 421 q 931 490 938 458 q 915 550 925 522 l 819 776 q 788 837 804 813 q 732 861 771 861 l 596 861 q 538 837 554 861 q 507 778 521 813 l 418 550 q 402 490 408 522 q 396 421 396 458 m 618 708 q 630 726 624 721 q 644 732 636 732 l 679 732 q 694 726 688 732 q 706 708 700 721 l 771 497 l 553 497 l 618 708 z "},"B":{"ha":1146,"x_min":63,"x_max":1122,"o":"m 126 -165 q 78 -150 93 -165 q 63 -101 63 -135 l 63 799 q 67 829 63 817 q 82 850 72 842 l 261 1001 q 280 1010 268 1007 q 306 1014 292 1014 l 749 1014 q 961 958 893 1014 q 1029 788 1029 901 l 1029 721 q 1016 638 1029 672 q 976 582 1003 603 l 972 579 q 1085 508 1047 563 q 1122 356 1122 453 l 1122 228 q 1104 120 1122 165 q 1050 44 1086 75 l 871 -107 q 783 -151 836 -136 q 660 -165 731 -165 l 126 -165 m 839 0 q 1042 56 976 0 q 1108 228 1108 111 l 1108 356 q 1065 510 1108 457 q 933 571 1022 563 q 995 626 975 589 q 1015 721 1015 663 l 1015 788 q 950 948 1015 896 q 749 1000 885 1000 l 306 1000 q 267 988 279 1000 q 256 950 256 976 l 256 50 q 267 12 256 24 q 306 0 279 0 l 839 0 m 783 125 l 410 125 l 410 875 l 692 875 q 785 863 749 875 q 840 831 821 851 q 867 785 860 811 q 874 728 874 758 l 874 639 q 859 563 874 597 q 785 513 844 528 q 878 501 842 513 q 933 467 914 489 q 959 417 953 446 q 965 353 965 388 l 965 264 q 958 208 965 233 q 933 164 951 182 q 878 135 914 146 q 783 125 842 125 m 692 861 l 424 861 l 424 513 l 692 513 q 782 523 749 513 q 833 551 815 533 q 855 591 850 568 q 860 639 860 614 l 860 728 q 828 822 860 783 q 692 861 796 861 m 568 764 l 686 764 q 726 750 713 764 q 739 708 739 736 l 739 669 q 726 628 739 642 q 686 614 713 614 l 568 614 l 568 764 m 785 499 l 424 499 l 424 139 l 783 139 q 919 173 888 139 q 951 264 951 207 l 951 353 q 920 457 951 415 q 785 499 889 499 m 568 400 l 749 400 q 788 387 775 400 q 801 346 801 374 l 801 292 q 788 250 801 264 q 749 236 775 236 l 568 236 l 568 400 z "},"C":{"ha":1011,"x_min":47,"x_max":985,"o":"m 742 -165 l 403 -165 q 134 -71 221 -165 q 47 174 47 24 l 47 564 q 69 697 47 640 q 135 790 92 753 l 315 942 q 425 996 358 978 q 582 1014 492 1014 l 921 1014 q 969 999 954 1014 q 985 950 985 983 l 985 782 q 980 751 985 764 q 965 731 975 739 l 785 581 q 767 571 779 575 q 742 567 756 567 l 571 567 l 571 332 q 589 291 571 303 q 642 279 607 279 l 921 279 q 969 264 954 279 q 985 215 985 249 l 985 50 q 980 19 985 32 q 965 -1 975 7 l 785 -151 q 767 -161 779 -157 q 742 -165 756 -165 m 921 0 q 959 12 947 0 q 971 50 971 24 l 971 215 q 959 253 971 242 q 921 265 947 265 l 642 265 q 578 281 599 265 q 557 332 557 297 l 557 663 q 578 715 557 697 q 642 732 599 732 l 921 732 q 959 744 947 732 q 971 782 971 756 l 971 950 q 959 988 971 976 q 921 1000 947 1000 l 582 1000 q 324 930 408 1000 q 240 715 240 860 l 240 283 q 324 69 240 139 q 582 0 408 0 l 921 0 m 844 139 l 844 125 l 613 125 q 434 167 478 125 q 390 304 390 208 l 390 693 q 435 833 390 792 q 613 875 479 875 l 844 875 l 844 861 l 613 861 q 447 823 490 861 q 404 693 404 785 l 404 304 q 446 176 404 214 q 613 139 488 139 l 844 139 z "},"Ç":{"ha":1011,"x_min":47,"x_max":985,"o":"m 764 -133 l 811 0 l 921 0 q 942 2 932 0 q 957 10 951 4 q 967 26 964 15 q 971 50 971 36 l 971 215 q 959 253 971 242 q 921 265 947 265 l 642 265 q 578 281 599 265 q 557 332 557 297 l 557 663 q 563 693 557 681 q 578 715 568 706 q 603 728 588 724 q 642 732 619 732 l 921 732 q 942 734 932 732 q 957 742 951 736 q 967 758 964 747 q 971 782 971 768 l 971 950 q 959 988 971 976 q 921 1000 947 1000 l 582 1000 q 430 983 494 1000 q 324 931 365 965 q 260 842 281 896 q 240 715 240 788 l 240 283 q 309 83 240 153 q 518 3 378 14 l 529 3 l 483 -119 q 482 -160 474 -144 q 525 -175 490 -175 l 700 -175 q 726 -172 715 -175 q 746 -162 738 -168 q 756 -150 751 -157 q 764 -133 761 -143 m 844 125 l 722 125 l 658 -50 l 644 -50 l 707 125 l 613 125 q 434 167 478 125 q 390 304 390 208 l 390 693 q 435 833 390 792 q 613 875 479 875 l 844 875 l 844 861 l 613 861 q 447 823 490 861 q 404 693 404 785 l 404 304 q 446 176 404 214 q 613 139 488 139 l 844 139 l 844 125 m 575 -322 q 553 -336 567 -332 q 521 -340 539 -340 l 346 -340 q 289 -319 299 -340 q 292 -265 279 -299 l 331 -161 q 205 -127 258 -156 q 117 -55 151 -99 q 65 47 82 -11 q 47 174 47 106 l 47 564 q 69 697 47 640 q 135 790 92 753 l 315 942 q 425 996 358 978 q 582 1014 492 1014 l 921 1014 q 969 999 954 1014 q 985 950 985 983 l 985 782 q 980 751 985 764 q 965 731 975 739 l 785 581 q 767 571 779 575 q 742 567 756 567 l 571 567 l 571 332 q 589 291 571 303 q 642 279 607 279 l 921 279 q 969 264 954 279 q 985 215 985 249 l 985 50 q 980 19 985 32 q 965 -1 975 7 l 574 -324 l 575 -322 z "},"Ć":{"ha":1011,"x_min":47,"x_max":985,"o":"m 742 -165 l 403 -165 q 134 -71 221 -165 q 47 174 47 24 l 47 564 q 69 697 47 640 q 135 790 92 753 l 242 881 q 208 897 219 882 q 196 940 196 913 l 196 1074 q 201 1103 196 1092 q 214 1122 206 1115 l 394 1274 q 412 1283 400 1279 q 438 1289 424 1288 l 922 1349 q 969 1337 953 1353 q 985 1289 985 1321 l 985 1156 q 980 1125 985 1138 q 965 1107 975 1113 l 854 1014 l 921 1014 q 969 999 954 1014 q 985 950 985 983 l 985 782 q 980 751 985 764 q 965 731 975 739 l 785 581 q 767 571 779 575 q 742 567 756 567 l 571 567 l 571 332 q 589 291 571 303 q 642 279 607 279 l 921 279 q 969 264 954 279 q 985 215 985 249 l 985 50 q 980 19 985 32 q 965 -1 975 7 l 785 -151 q 767 -161 779 -157 q 742 -165 756 -165 m 921 1106 q 959 1119 947 1108 q 971 1156 971 1129 l 971 1289 q 959 1325 971 1313 q 924 1335 947 1338 l 439 1275 q 401 1262 413 1272 q 389 1225 389 1251 l 389 1092 q 401 1056 389 1068 q 436 1046 413 1043 l 921 1106 m 514 1176 l 846 1218 l 846 1204 l 514 1163 l 514 1176 m 921 0 q 959 12 947 0 q 971 50 971 24 l 971 215 q 959 253 971 242 q 921 265 947 265 l 642 265 q 578 281 599 265 q 557 332 557 297 l 557 663 q 578 715 557 697 q 642 732 599 732 l 921 732 q 959 744 947 732 q 971 782 971 756 l 971 950 q 959 988 971 976 q 921 1000 947 1000 l 582 1000 q 324 930 408 1000 q 240 715 240 860 l 240 283 q 324 69 240 139 q 582 0 408 0 l 921 0 m 844 139 l 844 125 l 613 125 q 434 167 478 125 q 390 304 390 208 l 390 693 q 435 833 390 792 q 613 875 479 875 l 844 875 l 844 861 l 613 861 q 447 823 490 861 q 404 693 404 785 l 404 304 q 446 176 404 214 q 613 139 488 139 l 844 139 z "},"Ĉ":{"ha":1011,"x_min":47,"x_max":985,"o":"m 742 -165 l 403 -165 q 134 -71 221 -165 q 47 174 47 24 l 47 564 q 69 697 47 640 q 135 790 92 753 l 260 896 l 229 886 q 169 883 183 872 q 154 943 154 893 l 154 1056 q 159 1096 154 1082 q 174 1119 164 1110 l 356 1271 l 354 1269 q 373 1282 361 1276 q 400 1293 385 1288 l 576 1357 q 606 1366 590 1363 q 636 1371 622 1369 q 663 1369 650 1371 q 685 1363 675 1368 l 876 1293 q 931 1264 918 1278 q 943 1207 943 1250 l 943 1094 q 939 1058 943 1072 q 929 1039 935 1044 l 928 1038 l 899 1014 l 921 1014 q 969 999 954 1014 q 985 950 985 983 l 985 782 q 980 751 985 764 q 965 731 975 739 l 785 581 q 767 571 779 575 q 742 567 756 567 l 571 567 l 571 332 q 589 291 571 303 q 642 279 607 279 l 921 279 q 969 264 954 279 q 985 215 985 249 l 985 50 q 980 19 985 32 q 965 -1 975 7 l 785 -151 q 767 -161 779 -157 q 742 -165 756 -165 m 803 1181 l 682 1219 q 662 1225 672 1222 q 638 1228 651 1228 q 613 1225 624 1228 q 593 1219 603 1222 l 472 1181 l 472 1196 l 588 1233 q 611 1239 600 1236 q 638 1242 622 1242 q 664 1239 653 1242 q 688 1233 675 1236 l 803 1196 l 803 1181 m 594 1107 q 638 1113 618 1113 q 681 1107 657 1113 l 871 1051 q 918 1049 907 1040 q 929 1094 929 1057 l 929 1207 q 917 1256 929 1244 q 871 1281 906 1267 l 681 1350 q 660 1356 671 1354 q 636 1357 649 1357 q 609 1353 624 1356 q 582 1344 594 1350 l 404 1281 q 359 1256 371 1267 q 347 1207 347 1244 l 347 1094 q 358 1049 347 1057 q 404 1051 369 1040 l 594 1107 m 921 0 q 959 12 947 0 q 971 50 971 24 l 971 215 q 959 253 971 242 q 921 265 947 265 l 642 265 q 578 281 599 265 q 557 332 557 297 l 557 663 q 578 715 557 697 q 642 732 599 732 l 921 732 q 959 744 947 732 q 971 782 971 756 l 971 950 q 959 988 971 976 q 921 1000 947 1000 l 582 1000 q 324 930 408 1000 q 240 715 240 860 l 240 283 q 324 69 240 139 q 582 0 408 0 l 921 0 m 844 139 l 844 125 l 613 125 q 434 167 478 125 q 390 304 390 208 l 390 693 q 435 833 390 792 q 613 875 479 875 l 844 875 l 844 861 l 613 861 q 447 823 490 861 q 404 693 404 785 l 404 304 q 446 176 404 214 q 613 139 488 139 l 844 139 z "},"Ċ":{"ha":1011,"x_min":47,"x_max":985,"o":"m 742 -165 l 403 -165 q 134 -71 221 -165 q 47 174 47 24 l 47 564 q 69 697 47 640 q 135 790 92 753 l 303 932 q 301 942 301 936 q 301 954 301 949 l 301 1131 q 306 1161 301 1149 q 321 1182 311 1174 l 500 1333 q 519 1342 507 1339 q 544 1346 531 1346 l 764 1346 q 813 1331 797 1346 q 828 1282 828 1315 l 828 1106 q 823 1075 828 1088 q 808 1054 818 1063 l 760 1014 l 921 1014 q 969 999 954 1014 q 985 950 985 983 l 985 782 q 980 751 985 764 q 965 731 975 739 l 785 581 q 767 571 779 575 q 742 567 756 567 l 571 567 l 571 332 q 589 291 571 303 q 642 279 607 279 l 921 279 q 969 264 954 279 q 985 215 985 249 l 985 50 q 980 19 985 32 q 965 -1 975 7 l 785 -151 q 767 -161 779 -157 q 742 -165 756 -165 m 764 1056 q 802 1067 790 1056 q 814 1106 814 1079 l 814 1282 q 802 1320 814 1308 q 764 1332 790 1332 l 544 1332 q 506 1320 518 1332 q 494 1282 494 1308 l 494 1106 q 506 1067 494 1079 q 544 1056 518 1056 l 764 1056 m 661 1153 l 647 1153 l 647 1235 l 661 1235 l 661 1153 m 921 0 q 959 12 947 0 q 971 50 971 24 l 971 215 q 959 253 971 242 q 921 265 947 265 l 642 265 q 578 281 599 265 q 557 332 557 297 l 557 663 q 578 715 557 697 q 642 732 599 732 l 921 732 q 959 744 947 732 q 971 782 971 756 l 971 950 q 959 988 971 976 q 921 1000 947 1000 l 582 1000 q 324 930 408 1000 q 240 715 240 860 l 240 283 q 324 69 240 139 q 582 0 408 0 l 921 0 m 844 139 l 844 125 l 613 125 q 434 167 478 125 q 390 304 390 208 l 390 693 q 435 833 390 792 q 613 875 479 875 l 844 875 l 844 861 l 613 861 q 447 823 490 861 q 404 693 404 785 l 404 304 q 446 176 404 214 q 613 139 488 139 l 844 139 z "},"Č":{"ha":1011,"x_min":47,"x_max":985,"o":"m 742 -165 l 403 -165 q 134 -71 221 -165 q 47 174 47 24 l 47 564 q 69 697 47 640 q 135 790 92 753 l 300 928 l 221 957 q 167 986 179 972 q 154 1043 154 1000 l 154 1156 q 158 1193 154 1179 q 169 1213 161 1207 l 349 1364 q 370 1370 356 1369 q 410 1364 385 1371 l 600 1308 q 639 1303 622 1303 q 678 1308 656 1303 l 868 1364 q 928 1367 914 1378 q 943 1307 943 1357 l 943 1194 q 938 1154 943 1168 q 921 1131 932 1140 l 783 1014 l 921 1014 q 969 999 954 1014 q 985 950 985 983 l 985 782 q 980 751 985 764 q 965 731 975 739 l 785 581 q 767 571 779 575 q 742 567 756 567 l 571 567 l 571 332 q 589 291 571 303 q 642 279 607 279 l 921 279 q 969 264 954 279 q 985 215 985 249 l 985 50 q 980 19 985 32 q 965 -1 975 7 l 785 -151 q 767 -161 779 -157 q 742 -165 756 -165 m 682 1294 q 639 1289 658 1289 q 596 1294 619 1289 l 406 1350 q 358 1353 369 1361 q 347 1307 347 1344 l 347 1194 q 359 1146 347 1157 q 406 1121 371 1135 l 596 1051 q 617 1046 606 1047 q 640 1044 628 1044 q 667 1049 653 1046 q 694 1057 682 1051 l 872 1121 q 917 1146 906 1135 q 929 1194 929 1157 l 929 1307 q 918 1353 929 1344 q 872 1350 907 1361 l 682 1294 m 472 1221 l 593 1182 q 613 1176 603 1179 q 638 1174 624 1174 q 662 1176 651 1174 q 682 1182 672 1179 l 803 1221 l 803 1206 l 688 1168 q 664 1163 675 1165 q 638 1160 653 1160 q 611 1163 622 1160 q 588 1168 600 1165 l 472 1206 l 472 1221 m 921 0 q 959 12 947 0 q 971 50 971 24 l 971 215 q 959 253 971 242 q 921 265 947 265 l 642 265 q 578 281 599 265 q 557 332 557 297 l 557 663 q 578 715 557 697 q 642 732 599 732 l 921 732 q 959 744 947 732 q 971 782 971 756 l 971 950 q 959 988 971 976 q 921 1000 947 1000 l 582 1000 q 324 930 408 1000 q 240 715 240 860 l 240 283 q 324 69 240 139 q 582 0 408 0 l 921 0 m 844 139 l 844 125 l 613 125 q 434 167 478 125 q 390 304 390 208 l 390 693 q 435 833 390 792 q 613 875 479 875 l 844 875 l 844 861 l 613 861 q 447 823 490 861 q 404 693 404 785 l 404 304 q 446 176 404 214 q 613 139 488 139 l 844 139 z "},"D":{"ha":1175,"x_min":63,"x_max":1129,"o":"m 861 -92 q 751 -147 818 -128 q 594 -165 685 -165 l 126 -165 q 78 -150 93 -165 q 63 -101 63 -135 l 63 799 q 67 829 63 817 q 82 850 72 842 l 261 1001 q 280 1010 268 1007 q 306 1014 292 1014 l 774 1014 q 1042 940 956 1014 q 1129 717 1129 867 l 1129 283 q 1107 152 1129 208 q 1042 58 1085 96 l 861 -92 m 774 0 q 1031 69 947 0 q 1115 283 1115 139 l 1115 717 q 1031 931 1115 861 q 774 1000 947 1000 l 306 1000 q 267 988 279 1000 q 256 950 256 976 l 256 50 q 267 12 256 24 q 306 0 279 0 l 774 0 m 407 125 l 407 875 l 743 875 q 858 860 814 875 q 925 819 901 844 q 957 758 949 793 q 965 682 965 722 l 965 314 q 958 239 965 274 q 926 179 950 204 q 858 140 903 154 q 743 125 814 125 l 407 125 m 743 861 l 421 861 l 421 139 l 743 139 q 851 152 810 139 q 914 188 892 165 q 944 244 936 211 q 951 314 951 276 l 951 682 q 943 753 951 719 q 913 810 935 786 q 849 847 890 833 q 743 861 808 861 m 571 735 l 736 735 q 785 719 769 735 q 801 668 801 703 l 801 331 q 785 279 801 296 q 736 263 769 263 l 571 263 l 571 735 m 608 517 q 603 547 608 535 q 585 565 597 560 l 585 276 l 608 276 l 608 517 z "},"Ď":{"ha":1175,"x_min":63,"x_max":1129,"o":"m 594 -165 l 126 -165 q 78 -150 93 -165 q 63 -101 63 -135 l 63 799 q 67 829 63 817 q 82 850 72 842 l 225 971 q 200 996 207 981 q 193 1043 193 1011 l 193 1156 q 197 1193 193 1179 q 208 1213 200 1207 l 388 1364 q 409 1370 394 1369 q 449 1364 424 1371 l 639 1308 q 678 1303 661 1303 q 717 1308 694 1303 l 907 1364 q 967 1367 953 1378 q 982 1307 982 1357 l 982 1194 q 976 1154 982 1168 q 960 1131 971 1140 l 819 1013 q 1053 931 978 1004 q 1129 717 1129 857 l 1129 283 q 1107 152 1129 208 q 1042 58 1085 96 l 861 -92 q 751 -147 818 -128 q 594 -165 685 -165 m 721 1294 q 678 1289 697 1289 q 635 1294 658 1289 l 444 1350 q 397 1353 408 1361 q 386 1307 386 1344 l 386 1194 q 398 1146 386 1157 q 444 1121 410 1135 l 635 1051 q 656 1046 644 1047 q 679 1044 667 1044 q 706 1049 692 1046 q 733 1057 721 1051 l 911 1121 q 956 1146 944 1135 q 968 1194 968 1157 l 968 1307 q 957 1353 968 1344 q 911 1350 946 1361 l 721 1294 m 511 1221 l 632 1182 q 652 1176 642 1179 q 676 1174 663 1174 q 701 1176 690 1174 q 721 1182 711 1179 l 842 1221 l 842 1206 l 726 1168 q 703 1163 714 1165 q 676 1160 692 1160 q 650 1163 661 1160 q 626 1168 639 1165 l 511 1206 l 511 1221 m 774 0 q 1031 69 947 0 q 1115 283 1115 139 l 1115 717 q 1031 931 1115 861 q 774 1000 947 1000 l 306 1000 q 267 988 279 1000 q 256 950 256 976 l 256 50 q 267 12 256 24 q 306 0 279 0 l 774 0 m 407 125 l 407 875 l 743 875 q 858 860 814 875 q 925 819 901 844 q 957 758 949 793 q 965 682 965 722 l 965 314 q 958 239 965 274 q 926 179 950 204 q 858 140 903 154 q 743 125 814 125 l 407 125 m 743 861 l 421 861 l 421 139 l 743 139 q 851 152 810 139 q 914 188 892 165 q 944 244 936 211 q 951 314 951 276 l 951 682 q 943 753 951 719 q 913 810 935 786 q 849 847 890 833 q 743 861 808 861 m 571 735 l 736 735 q 785 719 769 735 q 801 668 801 703 l 801 331 q 785 279 801 296 q 736 263 769 263 l 571 263 l 571 735 m 608 517 q 603 547 608 535 q 585 565 597 560 l 585 276 l 608 276 l 608 517 z "},"E":{"ha":1047,"x_min":63,"x_max":1014,"o":"m 771 -165 l 126 -165 q 78 -150 93 -165 q 63 -101 63 -135 l 63 799 q 67 829 63 817 q 82 850 72 842 l 261 1001 q 280 1010 268 1007 q 306 1014 292 1014 l 950 1014 q 999 999 983 1014 q 1014 950 1014 983 l 1014 788 q 1009 757 1014 769 q 994 736 1004 744 l 875 638 q 895 617 889 631 q 901 581 901 603 l 901 432 q 897 401 901 414 q 882 381 892 389 l 758 276 l 950 276 q 999 261 983 276 q 1014 213 1014 246 l 1014 50 q 1009 19 1014 32 q 994 -1 1004 7 l 814 -151 q 797 -161 808 -157 q 771 -165 785 -165 m 950 0 q 988 12 976 0 q 1000 50 1000 24 l 1000 213 q 988 251 1000 239 q 950 263 976 263 l 567 263 l 567 382 l 838 382 q 876 394 864 382 q 888 432 888 406 l 888 581 q 876 619 888 607 q 838 631 864 631 l 567 631 l 567 738 l 950 738 q 988 749 976 738 q 1000 788 1000 761 l 1000 950 q 988 988 1000 976 q 950 1000 976 1000 l 306 1000 q 267 988 279 1000 q 256 950 256 976 l 256 50 q 267 12 256 24 q 306 0 279 0 l 950 0 m 875 139 l 875 125 l 407 125 l 407 875 l 875 875 l 875 861 l 421 861 l 421 513 l 763 513 l 763 499 l 421 499 l 421 139 l 875 139 z "},"È":{"ha":1047,"x_min":63,"x_max":1014,"o":"m 771 -165 l 126 -165 q 78 -150 93 -165 q 63 -101 63 -135 l 63 799 q 67 829 63 817 q 82 850 72 842 l 189 940 q 144 959 158 944 q 129 1004 129 974 l 129 1138 q 134 1167 129 1156 q 149 1188 139 1179 l 328 1339 q 347 1347 336 1344 q 371 1349 357 1350 l 856 1289 q 903 1271 889 1285 q 918 1225 918 1257 l 918 1092 q 913 1062 918 1074 q 899 1042 908 1050 l 865 1014 l 950 1014 q 999 999 983 1014 q 1014 950 1014 983 l 1014 788 q 1009 757 1014 769 q 994 736 1004 744 l 875 638 q 895 617 889 631 q 901 581 901 603 l 901 432 q 897 401 901 414 q 882 381 892 389 l 758 276 l 950 276 q 999 261 983 276 q 1014 213 1014 246 l 1014 50 q 1009 19 1014 32 q 994 -1 1004 7 l 814 -151 q 797 -161 808 -157 q 771 -165 785 -165 m 857 1046 q 892 1056 881 1043 q 904 1092 904 1068 l 904 1225 q 892 1262 904 1251 q 854 1275 881 1272 l 369 1335 q 334 1325 346 1338 q 322 1289 322 1313 l 322 1156 q 334 1119 322 1129 q 372 1106 346 1108 l 857 1046 m 447 1204 l 447 1218 l 779 1176 l 779 1163 l 447 1204 m 950 0 q 988 12 976 0 q 1000 50 1000 24 l 1000 213 q 988 251 1000 239 q 950 263 976 263 l 567 263 l 567 382 l 838 382 q 876 394 864 382 q 888 432 888 406 l 888 581 q 876 619 888 607 q 838 631 864 631 l 567 631 l 567 738 l 950 738 q 988 749 976 738 q 1000 788 1000 761 l 1000 950 q 988 988 1000 976 q 950 1000 976 1000 l 306 1000 q 267 988 279 1000 q 256 950 256 976 l 256 50 q 267 12 256 24 q 306 0 279 0 l 950 0 m 875 139 l 875 125 l 407 125 l 407 875 l 875 875 l 875 861 l 421 861 l 421 513 l 763 513 l 763 499 l 421 499 l 421 139 l 875 139 z "},"É":{"ha":1047,"x_min":63,"x_max":1014,"o":"m 771 -165 l 126 -165 q 78 -150 93 -165 q 63 -101 63 -135 l 63 799 q 67 829 63 817 q 82 850 72 842 l 172 926 q 171 933 171 929 q 171 940 171 936 l 171 1074 q 176 1103 171 1092 q 189 1122 181 1115 l 369 1274 q 387 1283 375 1279 q 413 1289 399 1288 l 897 1349 q 944 1337 928 1353 q 960 1289 960 1321 l 960 1156 q 955 1125 960 1138 q 940 1107 950 1113 l 831 1014 l 950 1014 q 999 999 983 1014 q 1014 950 1014 983 l 1014 788 q 1009 757 1014 769 q 994 736 1004 744 l 875 638 q 895 617 889 631 q 901 581 901 603 l 901 432 q 897 401 901 414 q 882 381 892 389 l 758 276 l 950 276 q 999 261 983 276 q 1014 213 1014 246 l 1014 50 q 1009 19 1014 32 q 994 -1 1004 7 l 814 -151 q 797 -161 808 -157 q 771 -165 785 -165 m 896 1106 q 934 1119 922 1108 q 946 1156 946 1129 l 946 1289 q 934 1325 946 1313 q 899 1335 922 1338 l 414 1275 q 376 1262 388 1272 q 364 1225 364 1251 l 364 1092 q 376 1056 364 1068 q 411 1046 388 1043 l 896 1106 m 489 1176 l 821 1218 l 821 1204 l 489 1163 l 489 1176 m 950 0 q 988 12 976 0 q 1000 50 1000 24 l 1000 213 q 988 251 1000 239 q 950 263 976 263 l 567 263 l 567 382 l 838 382 q 876 394 864 382 q 888 432 888 406 l 888 581 q 876 619 888 607 q 838 631 864 631 l 567 631 l 567 738 l 950 738 q 988 749 976 738 q 1000 788 1000 761 l 1000 950 q 988 988 1000 976 q 950 1000 976 1000 l 306 1000 q 267 988 279 1000 q 256 950 256 976 l 256 50 q 267 12 256 24 q 306 0 279 0 l 950 0 m 875 139 l 875 125 l 407 125 l 407 875 l 875 875 l 875 861 l 421 861 l 421 513 l 763 513 l 763 499 l 421 499 l 421 139 l 875 139 z "},"Ê":{"ha":1047,"x_min":63,"x_max":1014,"o":"m 771 -165 l 126 -165 q 78 -150 93 -165 q 63 -101 63 -135 l 63 799 q 67 829 63 817 q 82 850 72 842 l 146 904 q 144 921 144 911 q 143 943 143 931 l 143 1056 q 148 1096 143 1082 q 163 1119 153 1110 l 344 1271 l 343 1269 q 362 1282 350 1276 q 389 1293 374 1288 l 565 1357 q 595 1366 579 1363 q 625 1371 611 1369 q 651 1369 639 1371 q 674 1363 664 1368 l 865 1293 q 919 1264 907 1278 q 932 1207 932 1250 l 932 1094 q 928 1058 932 1072 q 918 1039 924 1044 l 917 1038 l 889 1014 l 950 1014 q 999 999 983 1014 q 1014 950 1014 983 l 1014 788 q 1009 757 1014 769 q 994 736 1004 744 l 875 638 q 895 617 889 631 q 901 581 901 603 l 901 432 q 897 401 901 414 q 882 381 892 389 l 758 276 l 950 276 q 999 261 983 276 q 1014 213 1014 246 l 1014 50 q 1009 19 1014 32 q 994 -1 1004 7 l 814 -151 q 797 -161 808 -157 q 771 -165 785 -165 m 792 1181 l 671 1219 q 651 1225 661 1222 q 626 1228 640 1228 q 602 1225 613 1228 q 582 1219 592 1222 l 461 1181 l 461 1196 l 576 1233 q 600 1239 589 1236 q 626 1242 611 1242 q 653 1239 642 1242 q 676 1233 664 1236 l 792 1196 l 792 1181 m 583 1107 q 626 1113 607 1113 q 669 1107 646 1113 l 860 1051 q 907 1049 896 1040 q 918 1094 918 1057 l 918 1207 q 906 1256 918 1244 q 860 1281 894 1267 l 669 1350 q 649 1356 660 1354 q 625 1357 638 1357 q 598 1353 613 1356 q 571 1344 583 1350 l 393 1281 q 348 1256 360 1267 q 336 1207 336 1244 l 336 1094 q 347 1049 336 1057 q 393 1051 358 1040 l 583 1107 m 950 0 q 988 12 976 0 q 1000 50 1000 24 l 1000 213 q 988 251 1000 239 q 950 263 976 263 l 567 263 l 567 382 l 838 382 q 876 394 864 382 q 888 432 888 406 l 888 581 q 876 619 888 607 q 838 631 864 631 l 567 631 l 567 738 l 950 738 q 988 749 976 738 q 1000 788 1000 761 l 1000 950 q 988 988 1000 976 q 950 1000 976 1000 l 306 1000 q 267 988 279 1000 q 256 950 256 976 l 256 50 q 267 12 256 24 q 306 0 279 0 l 950 0 m 875 139 l 875 125 l 407 125 l 407 875 l 875 875 l 875 861 l 421 861 l 421 513 l 763 513 l 763 499 l 421 499 l 421 139 l 875 139 z "},"Ë":{"ha":1047,"x_min":63,"x_max":1014,"o":"m 771 -165 l 126 -165 q 78 -150 93 -165 q 63 -101 63 -135 l 63 799 q 67 829 63 817 q 82 850 72 842 l 143 901 q 128 920 133 908 q 124 950 124 932 l 124 1118 q 128 1147 124 1136 q 142 1165 133 1158 l 321 1317 q 339 1326 328 1322 q 364 1329 350 1329 l 556 1329 q 601 1315 586 1329 q 615 1269 615 1300 l 615 1261 l 681 1317 q 698 1326 688 1322 q 722 1329 708 1329 l 914 1329 q 959 1315 944 1329 q 974 1269 974 1300 l 974 1101 q 969 1073 974 1085 q 956 1054 964 1061 l 907 1014 l 950 1014 q 999 999 983 1014 q 1014 950 1014 983 l 1014 788 q 1009 757 1014 769 q 994 736 1004 744 l 875 638 q 895 617 889 631 q 901 581 901 603 l 901 432 q 897 401 901 414 q 882 381 892 389 l 758 276 l 950 276 q 999 261 983 276 q 1014 213 1014 246 l 1014 50 q 1009 19 1014 32 q 994 -1 1004 7 l 814 -151 q 797 -161 808 -157 q 771 -165 785 -165 m 914 1056 q 949 1067 938 1056 q 960 1101 960 1078 l 960 1269 q 949 1304 960 1293 q 914 1315 938 1315 l 722 1315 q 688 1304 699 1315 q 676 1269 676 1293 l 676 1101 q 688 1067 676 1078 q 722 1056 699 1056 l 914 1056 m 556 1056 q 590 1067 579 1056 q 601 1101 601 1078 l 601 1269 q 590 1304 601 1293 q 556 1315 579 1315 l 364 1315 q 328 1304 340 1315 q 317 1269 317 1293 l 317 1101 q 328 1067 317 1078 q 364 1056 340 1056 l 556 1056 m 825 1153 l 811 1153 l 811 1218 l 825 1218 l 825 1153 m 467 1153 l 453 1153 l 453 1218 l 467 1218 l 467 1153 m 950 0 q 988 12 976 0 q 1000 50 1000 24 l 1000 213 q 988 251 1000 239 q 950 263 976 263 l 567 263 l 567 382 l 838 382 q 876 394 864 382 q 888 432 888 406 l 888 581 q 876 619 888 607 q 838 631 864 631 l 567 631 l 567 738 l 950 738 q 988 749 976 738 q 1000 788 1000 761 l 1000 950 q 988 988 1000 976 q 950 1000 976 1000 l 306 1000 q 267 988 279 1000 q 256 950 256 976 l 256 50 q 267 12 256 24 q 306 0 279 0 l 950 0 m 875 139 l 875 125 l 407 125 l 407 875 l 875 875 l 875 861 l 421 861 l 421 513 l 763 513 l 763 499 l 421 499 l 421 139 l 875 139 z "},"Ē":{"ha":1047,"x_min":63,"x_max":1014,"o":"m 771 -165 l 126 -165 q 78 -150 93 -165 q 63 -101 63 -135 l 63 799 q 67 829 63 817 q 82 850 72 842 l 154 911 q 146 929 149 918 q 143 954 143 940 l 143 1083 q 148 1114 143 1101 q 163 1135 153 1126 l 342 1286 q 360 1295 349 1292 q 386 1299 372 1299 l 868 1299 q 917 1283 901 1299 q 932 1235 932 1268 l 932 1106 q 927 1075 932 1088 q 913 1054 922 1063 l 865 1014 l 950 1014 q 999 999 983 1014 q 1014 950 1014 983 l 1014 788 q 1009 757 1014 769 q 994 736 1004 744 l 875 638 q 895 617 889 631 q 901 581 901 603 l 901 432 q 897 401 901 414 q 882 381 892 389 l 758 276 l 950 276 q 999 261 983 276 q 1014 213 1014 246 l 1014 50 q 1009 19 1014 32 q 994 -1 1004 7 l 814 -151 q 797 -161 808 -157 q 771 -165 785 -165 m 868 1056 q 906 1067 894 1056 q 918 1106 918 1079 l 918 1235 q 906 1273 918 1261 q 868 1285 894 1285 l 386 1285 q 348 1273 360 1285 q 336 1235 336 1261 l 336 1106 q 348 1067 336 1079 q 386 1056 360 1056 l 868 1056 m 461 1176 l 793 1176 l 793 1163 l 461 1163 l 461 1176 m 950 0 q 988 12 976 0 q 1000 50 1000 24 l 1000 213 q 988 251 1000 239 q 950 263 976 263 l 567 263 l 567 382 l 838 382 q 876 394 864 382 q 888 432 888 406 l 888 581 q 876 619 888 607 q 838 631 864 631 l 567 631 l 567 738 l 950 738 q 988 749 976 738 q 1000 788 1000 761 l 1000 950 q 988 988 1000 976 q 950 1000 976 1000 l 306 1000 q 267 988 279 1000 q 256 950 256 976 l 256 50 q 267 12 256 24 q 306 0 279 0 l 950 0 m 875 139 l 875 125 l 407 125 l 407 875 l 875 875 l 875 861 l 421 861 l 421 513 l 763 513 l 763 499 l 421 499 l 421 139 l 875 139 z "},"Ĕ":{"ha":1047,"x_min":63,"x_max":1014,"o":"m 771 -165 l 126 -165 q 78 -150 93 -165 q 63 -101 63 -135 l 63 799 q 67 829 63 817 q 82 850 72 842 l 199 949 q 158 1014 169 976 q 147 1094 147 1051 l 147 1156 q 152 1186 147 1174 q 167 1207 157 1199 l 346 1358 q 365 1367 353 1364 q 390 1371 376 1371 l 524 1371 q 565 1359 553 1371 q 578 1314 578 1347 l 578 1285 q 583 1267 578 1275 q 603 1257 589 1260 l 728 1361 l 726 1360 q 742 1368 732 1365 q 767 1371 751 1371 l 893 1371 q 942 1356 926 1371 q 957 1307 957 1340 l 957 1246 q 944 1161 957 1200 q 896 1094 931 1122 l 799 1014 l 950 1014 q 999 999 983 1014 q 1014 950 1014 983 l 1014 788 q 1009 757 1014 769 q 994 736 1004 744 l 875 638 q 895 617 889 631 q 901 581 901 603 l 901 432 q 897 401 901 414 q 882 381 892 389 l 758 276 l 950 276 q 999 261 983 276 q 1014 213 1014 246 l 1014 50 q 1009 19 1014 32 q 994 -1 1004 7 l 814 -151 q 797 -161 808 -157 q 771 -165 785 -165 m 943 1246 l 943 1307 q 931 1345 943 1333 q 893 1357 919 1357 l 767 1357 q 734 1348 743 1357 q 725 1314 725 1339 l 725 1285 q 710 1252 725 1265 q 643 1239 694 1239 q 578 1252 592 1239 q 564 1285 564 1265 l 564 1314 q 555 1348 564 1339 q 524 1357 546 1357 l 390 1357 q 352 1345 364 1357 q 340 1307 340 1333 l 340 1246 q 353 1165 340 1201 q 401 1102 367 1128 q 493 1062 435 1076 q 642 1047 551 1047 q 790 1062 732 1047 q 883 1102 849 1076 q 930 1165 917 1128 q 943 1246 943 1201 m 828 1260 l 842 1260 l 842 1247 q 834 1208 842 1228 q 806 1172 826 1188 q 744 1146 785 1156 q 640 1136 704 1136 q 538 1146 576 1136 q 478 1172 499 1156 q 452 1208 458 1188 q 446 1247 446 1228 l 446 1260 l 460 1260 l 460 1247 q 494 1180 460 1210 q 640 1150 528 1150 q 790 1180 753 1150 q 828 1247 828 1210 l 828 1260 m 950 0 q 988 12 976 0 q 1000 50 1000 24 l 1000 213 q 988 251 1000 239 q 950 263 976 263 l 567 263 l 567 382 l 838 382 q 876 394 864 382 q 888 432 888 406 l 888 581 q 876 619 888 607 q 838 631 864 631 l 567 631 l 567 738 l 950 738 q 988 749 976 738 q 1000 788 1000 761 l 1000 950 q 988 988 1000 976 q 950 1000 976 1000 l 306 1000 q 267 988 279 1000 q 256 950 256 976 l 256 50 q 267 12 256 24 q 306 0 279 0 l 950 0 m 875 139 l 875 125 l 407 125 l 407 875 l 875 875 l 875 861 l 421 861 l 421 513 l 763 513 l 763 499 l 421 499 l 421 139 l 875 139 z "},"Ė":{"ha":1047,"x_min":63,"x_max":1014,"o":"m 771 -165 l 126 -165 q 78 -150 93 -165 q 63 -101 63 -135 l 63 799 q 67 829 63 817 q 82 850 72 842 l 260 1000 l 260 1131 q 265 1161 260 1149 q 279 1182 269 1174 l 458 1333 q 477 1342 465 1339 q 503 1346 489 1346 l 722 1346 q 771 1331 756 1346 q 786 1282 786 1315 l 786 1106 q 781 1075 786 1088 q 767 1054 776 1063 l 718 1014 l 950 1014 q 999 999 983 1014 q 1014 950 1014 983 l 1014 788 q 1009 757 1014 769 q 994 736 1004 744 l 875 638 q 895 617 889 631 q 901 581 901 603 l 901 432 q 897 401 901 414 q 882 381 892 389 l 758 276 l 950 276 q 999 261 983 276 q 1014 213 1014 246 l 1014 50 q 1009 19 1014 32 q 994 -1 1004 7 l 814 -151 q 797 -161 808 -157 q 771 -165 785 -165 m 722 1056 q 760 1067 749 1056 q 772 1106 772 1079 l 772 1282 q 760 1320 772 1308 q 722 1332 749 1332 l 503 1332 q 465 1320 476 1332 q 453 1282 453 1308 l 453 1106 q 465 1067 453 1079 q 503 1056 476 1056 l 722 1056 m 619 1153 l 606 1153 l 606 1235 l 619 1235 l 619 1153 m 950 0 q 988 12 976 0 q 1000 50 1000 24 l 1000 213 q 988 251 1000 239 q 950 263 976 263 l 567 263 l 567 382 l 838 382 q 876 394 864 382 q 888 432 888 406 l 888 581 q 876 619 888 607 q 838 631 864 631 l 567 631 l 567 738 l 950 738 q 988 749 976 738 q 1000 788 1000 761 l 1000 950 q 988 988 1000 976 q 950 1000 976 1000 l 306 1000 q 267 988 279 1000 q 256 950 256 976 l 256 50 q 267 12 256 24 q 306 0 279 0 l 950 0 m 875 139 l 875 125 l 407 125 l 407 875 l 875 875 l 875 861 l 421 861 l 421 513 l 763 513 l 763 499 l 421 499 l 421 139 l 875 139 z "},"Ę":{"ha":1047,"x_min":63,"x_max":1014,"o":"m 621 -424 q 488 -375 525 -424 q 467 -219 451 -326 l 476 -165 l 126 -165 q 78 -150 93 -165 q 63 -101 63 -135 l 63 799 q 67 829 63 817 q 82 850 72 842 l 261 1001 q 280 1010 268 1007 q 306 1014 292 1014 l 950 1014 q 999 999 983 1014 q 1014 950 1014 983 l 1014 788 q 1009 757 1014 769 q 994 736 1004 744 l 875 638 q 895 617 889 631 q 901 581 901 603 l 901 432 q 897 401 901 414 q 882 381 892 389 l 758 276 l 950 276 q 999 261 983 276 q 1014 213 1014 246 l 1014 50 q 1009 19 1014 32 q 994 -1 1004 7 l 936 -50 l 950 -50 q 1001 -63 988 -50 q 1014 -111 1014 -76 l 1014 -211 q 1010 -242 1014 -229 q 997 -261 1006 -254 l 817 -412 q 800 -421 811 -418 q 775 -424 789 -424 l 621 -424 m 1000 -211 l 1000 -111 q 990 -74 1000 -85 q 950 -64 979 -64 l 893 -64 l 903 0 l 950 0 q 971 2 961 0 q 986 10 981 4 q 997 26 993 15 q 1000 50 1000 36 l 1000 213 q 988 251 1000 239 q 950 263 976 263 l 567 263 l 567 382 l 838 382 q 858 384 849 382 q 874 392 868 386 q 884 408 881 397 q 888 432 888 418 l 888 581 q 876 619 888 607 q 838 631 864 631 l 567 631 l 567 738 l 950 738 q 971 740 961 738 q 986 747 981 742 q 997 763 993 753 q 1000 788 1000 774 l 1000 950 q 988 988 1000 976 q 950 1000 976 1000 l 306 1000 q 285 998 294 1000 q 269 990 275 996 q 259 974 263 985 q 256 950 256 964 l 256 50 q 267 12 256 24 q 306 0 279 0 l 672 0 l 660 -71 q 678 -212 646 -167 q 800 -258 711 -258 l 954 -258 q 975 -256 967 -258 q 989 -250 983 -254 q 997 -235 994 -244 q 1000 -211 1000 -225 m 875 -161 l 842 -161 q 776 -135 790 -161 q 771 -57 763 -108 l 788 58 q 798 99 792 85 q 821 125 804 113 l 407 125 l 407 875 l 875 875 l 875 861 l 421 861 l 421 513 l 763 513 l 763 499 l 421 499 l 421 139 l 875 139 l 875 125 l 847 125 q 813 100 821 111 q 801 58 806 89 l 785 -60 q 789 -124 779 -101 q 842 -147 799 -147 l 875 -147 l 875 -161 z "},"Ě":{"ha":1047,"x_min":63,"x_max":1014,"o":"m 771 -165 l 126 -165 q 78 -150 93 -165 q 63 -101 63 -135 l 63 799 q 67 829 63 817 q 82 850 72 842 l 213 960 q 164 988 175 974 q 153 1043 153 1001 l 153 1156 q 156 1193 153 1179 q 168 1213 160 1207 l 347 1364 q 369 1370 354 1369 q 408 1364 383 1371 l 599 1308 q 638 1303 621 1303 q 676 1308 654 1303 l 867 1364 q 927 1367 913 1378 q 942 1307 942 1357 l 942 1194 q 936 1154 942 1168 q 919 1131 931 1140 l 781 1014 l 950 1014 q 999 999 983 1014 q 1014 950 1014 983 l 1014 788 q 1009 757 1014 769 q 994 736 1004 744 l 875 638 q 895 617 889 631 q 901 581 901 603 l 901 432 q 897 401 901 414 q 882 381 892 389 l 758 276 l 950 276 q 999 261 983 276 q 1014 213 1014 246 l 1014 50 q 1009 19 1014 32 q 994 -1 1004 7 l 814 -151 q 797 -161 808 -157 q 771 -165 785 -165 m 681 1294 q 638 1289 657 1289 q 594 1294 618 1289 l 404 1350 q 357 1353 368 1361 q 346 1307 346 1344 l 346 1194 q 358 1146 346 1157 q 404 1121 369 1135 l 594 1051 q 615 1046 604 1047 q 639 1044 626 1044 q 666 1049 651 1046 q 693 1057 681 1051 l 871 1121 q 916 1146 904 1135 q 928 1194 928 1157 l 928 1307 q 917 1353 928 1344 q 871 1350 906 1361 l 681 1294 m 471 1221 l 592 1182 q 612 1176 601 1179 q 636 1174 622 1174 q 660 1176 650 1174 q 681 1182 671 1179 l 801 1221 l 801 1206 l 686 1168 q 663 1163 674 1165 q 636 1160 651 1160 q 610 1163 621 1160 q 586 1168 599 1165 l 471 1206 l 471 1221 m 950 0 q 988 12 976 0 q 1000 50 1000 24 l 1000 213 q 988 251 1000 239 q 950 263 976 263 l 567 263 l 567 382 l 838 382 q 876 394 864 382 q 888 432 888 406 l 888 581 q 876 619 888 607 q 838 631 864 631 l 567 631 l 567 738 l 950 738 q 988 749 976 738 q 1000 788 1000 761 l 1000 950 q 988 988 1000 976 q 950 1000 976 1000 l 306 1000 q 267 988 279 1000 q 256 950 256 976 l 256 50 q 267 12 256 24 q 306 0 279 0 l 950 0 m 875 139 l 875 125 l 407 125 l 407 875 l 875 875 l 875 861 l 421 861 l 421 513 l 763 513 l 763 499 l 421 499 l 421 139 l 875 139 z "},"F":{"ha":997,"x_min":63,"x_max":989,"o":"m 342 -165 l 126 -165 q 78 -150 93 -165 q 63 -101 63 -135 l 63 799 q 67 829 63 817 q 82 850 72 842 l 261 1001 q 280 1010 268 1007 q 306 1014 292 1014 l 925 1014 q 974 999 958 1014 q 989 950 989 983 l 989 785 q 984 754 989 767 q 969 733 979 742 l 814 604 q 861 589 846 604 q 876 540 876 574 l 876 374 q 872 343 876 356 q 857 322 867 331 l 676 172 q 659 163 671 167 q 633 158 647 158 l 585 158 l 585 50 q 580 19 585 32 q 565 -1 575 7 l 385 -151 q 367 -161 379 -157 q 342 -165 356 -165 m 521 0 q 559 12 547 0 q 571 50 571 24 l 571 324 l 813 324 q 851 335 839 324 q 863 374 863 347 l 863 540 q 851 578 863 567 q 813 590 839 590 l 571 590 l 571 735 l 925 735 q 963 747 951 735 q 975 785 975 758 l 975 950 q 963 988 975 976 q 925 1000 951 1000 l 306 1000 q 267 988 279 1000 q 256 950 256 976 l 256 50 q 267 12 256 24 q 306 0 279 0 l 521 0 m 407 125 l 407 875 l 850 875 l 850 861 l 421 861 l 421 464 l 738 464 l 738 450 l 421 450 l 421 125 l 407 125 z "},"G":{"ha":1122,"x_min":47,"x_max":1083,"o":"m 840 -165 l 403 -165 q 134 -71 221 -165 q 47 174 47 24 l 47 565 q 69 697 47 642 q 135 790 92 753 l 314 942 q 424 996 357 978 q 582 1014 492 1014 l 929 1014 q 978 999 963 1014 q 993 950 993 983 l 993 782 q 988 751 993 764 q 974 731 983 739 l 793 581 q 776 571 788 575 q 750 567 764 567 l 569 567 l 569 367 q 574 373 571 369 q 581 379 578 376 l 760 531 q 778 540 767 536 q 804 543 790 543 l 1019 543 q 1068 528 1053 543 q 1083 479 1083 513 l 1083 50 q 1078 19 1083 32 q 1064 -1 1074 7 l 883 -151 q 866 -161 878 -157 q 840 -165 854 -165 m 1019 0 q 1058 12 1046 0 q 1069 50 1069 24 l 1069 479 q 1058 517 1069 506 q 1019 529 1046 529 l 804 529 q 766 517 778 529 q 754 479 754 506 l 754 263 l 619 263 q 572 279 588 263 q 556 331 556 296 l 556 663 q 576 715 556 697 q 640 732 597 732 l 929 732 q 967 744 956 732 q 979 782 979 756 l 979 950 q 967 988 979 976 q 929 1000 956 1000 l 582 1000 q 324 931 408 1000 q 240 717 240 861 l 240 283 q 324 69 240 139 q 582 0 408 0 l 1019 0 m 642 125 q 517 135 565 125 q 440 166 468 144 q 402 222 413 188 q 392 304 392 256 l 392 693 q 436 833 392 792 q 614 875 481 875 l 854 875 l 854 861 l 614 861 q 449 823 492 861 q 406 693 406 785 l 406 304 q 453 176 406 214 q 642 139 501 139 l 904 139 l 904 404 l 918 404 l 918 125 l 642 125 z "},"Ĝ":{"ha":1122,"x_min":47,"x_max":1083,"o":"m 840 -165 l 403 -165 q 134 -71 221 -165 q 47 174 47 24 l 47 565 q 69 697 47 642 q 135 790 92 753 l 238 878 q 211 892 218 876 q 204 943 204 908 l 204 1056 q 209 1096 204 1082 q 224 1119 214 1110 l 406 1271 l 404 1269 q 423 1282 411 1276 q 450 1293 435 1288 l 626 1357 q 656 1366 640 1363 q 686 1371 672 1369 q 713 1369 700 1371 q 735 1363 725 1368 l 926 1293 q 981 1264 968 1278 q 993 1207 993 1250 l 993 1094 q 989 1058 993 1072 q 979 1039 985 1044 l 978 1038 l 947 1013 q 982 993 971 1008 q 993 950 993 978 l 993 782 q 988 751 993 764 q 974 731 983 739 l 793 581 q 776 571 788 575 q 750 567 764 567 l 569 567 l 569 367 q 574 373 571 369 q 581 379 578 376 l 760 531 q 778 540 767 536 q 804 543 790 543 l 1019 543 q 1068 528 1053 543 q 1083 479 1083 513 l 1083 50 q 1078 19 1083 32 q 1064 -1 1074 7 l 883 -151 q 866 -161 878 -157 q 840 -165 854 -165 m 853 1181 l 732 1219 q 712 1225 722 1222 q 688 1228 701 1228 q 663 1225 674 1228 q 643 1219 653 1222 l 522 1181 l 522 1196 l 638 1233 q 661 1239 650 1236 q 688 1242 672 1242 q 714 1239 703 1242 q 738 1233 725 1236 l 853 1196 l 853 1181 m 644 1107 q 688 1113 668 1113 q 731 1107 707 1113 l 921 1051 q 968 1049 957 1040 q 979 1094 979 1057 l 979 1207 q 967 1256 979 1244 q 921 1281 956 1267 l 731 1350 q 710 1356 721 1354 q 686 1357 699 1357 q 659 1353 674 1356 q 632 1344 644 1350 l 454 1281 q 409 1256 421 1267 q 397 1207 397 1244 l 397 1094 q 408 1049 397 1057 q 454 1051 419 1040 l 644 1107 m 1019 0 q 1058 12 1046 0 q 1069 50 1069 24 l 1069 479 q 1058 517 1069 506 q 1019 529 1046 529 l 804 529 q 766 517 778 529 q 754 479 754 506 l 754 263 l 619 263 q 572 279 588 263 q 556 331 556 296 l 556 663 q 576 715 556 697 q 640 732 597 732 l 929 732 q 967 744 956 732 q 979 782 979 756 l 979 950 q 967 988 979 976 q 929 1000 956 1000 l 582 1000 q 324 931 408 1000 q 240 717 240 861 l 240 283 q 324 69 240 139 q 582 0 408 0 l 1019 0 m 642 125 q 517 135 565 125 q 440 166 468 144 q 402 222 413 188 q 392 304 392 256 l 392 693 q 436 833 392 792 q 614 875 481 875 l 854 875 l 854 861 l 614 861 q 449 823 492 861 q 406 693 406 785 l 406 304 q 453 176 406 214 q 642 139 501 139 l 904 139 l 904 404 l 918 404 l 918 125 l 642 125 z "},"Ğ":{"ha":1122,"x_min":47,"x_max":1083,"o":"m 840 -165 l 403 -165 q 134 -71 221 -165 q 47 174 47 24 l 47 565 q 69 697 47 642 q 135 790 92 753 l 285 918 q 206 991 226 944 q 185 1094 185 1038 l 185 1156 q 190 1186 185 1174 q 204 1207 194 1199 l 383 1358 q 402 1367 390 1364 q 428 1371 414 1371 l 561 1371 q 603 1359 590 1371 q 615 1314 615 1347 l 615 1285 q 621 1267 615 1275 q 640 1257 626 1260 l 765 1361 l 764 1360 q 779 1368 769 1365 q 804 1371 789 1371 l 931 1371 q 979 1356 964 1371 q 994 1307 994 1340 l 994 1246 q 981 1161 994 1200 q 933 1094 968 1122 l 838 1014 l 929 1014 q 978 999 963 1014 q 993 950 993 983 l 993 782 q 988 751 993 764 q 974 731 983 739 l 793 581 q 776 571 788 575 q 750 567 764 567 l 569 567 l 569 367 q 574 373 571 369 q 581 379 578 376 l 760 531 q 778 540 767 536 q 804 543 790 543 l 1019 543 q 1068 528 1053 543 q 1083 479 1083 513 l 1083 50 q 1078 19 1083 32 q 1064 -1 1074 7 l 883 -151 q 866 -161 878 -157 q 840 -165 854 -165 m 981 1246 l 981 1307 q 969 1345 981 1333 q 931 1357 957 1357 l 804 1357 q 772 1348 781 1357 q 763 1314 763 1339 l 763 1285 q 747 1252 763 1265 q 681 1239 732 1239 q 615 1252 629 1239 q 601 1285 601 1265 l 601 1314 q 592 1348 601 1339 q 561 1357 583 1357 l 428 1357 q 390 1345 401 1357 q 378 1307 378 1333 l 378 1246 q 391 1165 378 1201 q 438 1102 404 1128 q 531 1062 472 1076 q 679 1047 589 1047 q 828 1062 769 1047 q 920 1102 886 1076 q 967 1165 954 1128 q 981 1246 981 1201 m 865 1260 l 879 1260 l 879 1247 q 872 1208 879 1228 q 843 1172 864 1188 q 782 1146 822 1156 q 678 1136 742 1136 q 575 1146 614 1136 q 516 1172 536 1156 q 490 1208 496 1188 q 483 1247 483 1228 l 483 1260 l 497 1260 l 497 1247 q 531 1180 497 1210 q 678 1150 565 1150 q 828 1180 790 1150 q 865 1247 865 1210 l 865 1260 m 1019 0 q 1058 12 1046 0 q 1069 50 1069 24 l 1069 479 q 1058 517 1069 506 q 1019 529 1046 529 l 804 529 q 766 517 778 529 q 754 479 754 506 l 754 263 l 619 263 q 572 279 588 263 q 556 331 556 296 l 556 663 q 576 715 556 697 q 640 732 597 732 l 929 732 q 967 744 956 732 q 979 782 979 756 l 979 950 q 967 988 979 976 q 929 1000 956 1000 l 582 1000 q 324 931 408 1000 q 240 717 240 861 l 240 283 q 324 69 240 139 q 582 0 408 0 l 1019 0 m 642 125 q 517 135 565 125 q 440 166 468 144 q 402 222 413 188 q 392 304 392 256 l 392 693 q 436 833 392 792 q 614 875 481 875 l 854 875 l 854 861 l 614 861 q 449 823 492 861 q 406 693 406 785 l 406 304 q 453 176 406 214 q 642 139 501 139 l 904 139 l 904 404 l 918 404 l 918 125 l 642 125 z "},"Ġ":{"ha":1122,"x_min":47,"x_max":1083,"o":"m 840 -165 l 403 -165 q 134 -71 221 -165 q 47 174 47 24 l 47 565 q 69 697 47 642 q 135 790 92 753 l 314 942 q 321 947 317 944 q 328 953 325 950 l 328 1131 q 333 1161 328 1149 q 347 1182 338 1174 l 526 1333 q 545 1342 533 1339 q 571 1346 557 1346 l 790 1346 q 839 1331 824 1346 q 854 1282 854 1315 l 854 1106 q 849 1075 854 1088 q 835 1054 844 1063 l 786 1014 l 929 1014 q 978 999 963 1014 q 993 950 993 983 l 993 782 q 988 751 993 764 q 974 731 983 739 l 793 581 q 776 571 788 575 q 750 567 764 567 l 569 567 l 569 367 q 574 373 571 369 q 581 379 578 376 l 760 531 q 778 540 767 536 q 804 543 790 543 l 1019 543 q 1068 528 1053 543 q 1083 479 1083 513 l 1083 50 q 1078 19 1083 32 q 1064 -1 1074 7 l 883 -151 q 866 -161 878 -157 q 840 -165 854 -165 m 790 1056 q 828 1067 817 1056 q 840 1106 840 1079 l 840 1282 q 828 1320 840 1308 q 790 1332 817 1332 l 571 1332 q 533 1320 544 1332 q 521 1282 521 1308 l 521 1106 q 533 1067 521 1079 q 571 1056 544 1056 l 790 1056 m 688 1153 l 674 1153 l 674 1235 l 688 1235 l 688 1153 m 1019 0 q 1058 12 1046 0 q 1069 50 1069 24 l 1069 479 q 1058 517 1069 506 q 1019 529 1046 529 l 804 529 q 766 517 778 529 q 754 479 754 506 l 754 263 l 619 263 q 572 279 588 263 q 556 331 556 296 l 556 663 q 576 715 556 697 q 640 732 597 732 l 929 732 q 967 744 956 732 q 979 782 979 756 l 979 950 q 967 988 979 976 q 929 1000 956 1000 l 582 1000 q 324 931 408 1000 q 240 717 240 861 l 240 283 q 324 69 240 139 q 582 0 408 0 l 1019 0 m 642 125 q 517 135 565 125 q 440 166 468 144 q 402 222 413 188 q 392 304 392 256 l 392 693 q 436 833 392 792 q 614 875 481 875 l 854 875 l 854 861 l 614 861 q 449 823 492 861 q 406 693 406 785 l 406 304 q 453 176 406 214 q 642 139 501 139 l 904 139 l 904 404 l 918 404 l 918 125 l 642 125 z "},"Ģ":{"ha":1122,"x_min":47,"x_max":1083,"o":"m 488 -668 l 396 -668 q 353 -655 367 -668 q 340 -611 340 -642 l 340 -564 q 344 -535 340 -546 q 357 -519 349 -525 l 399 -485 l 390 -485 q 340 -470 354 -485 q 325 -417 325 -456 l 325 -265 q 329 -230 325 -243 q 343 -208 333 -217 l 396 -165 q 135 -66 224 -160 q 47 174 47 28 l 47 565 q 69 697 47 642 q 135 790 92 753 l 314 942 q 424 996 357 978 q 582 1014 492 1014 l 929 1014 q 978 999 963 1014 q 993 950 993 983 l 993 782 q 988 751 993 764 q 974 731 983 739 l 793 581 q 776 571 788 575 q 750 567 764 567 l 569 567 l 569 367 q 574 373 571 369 q 581 379 578 376 l 760 531 q 778 540 767 536 q 804 543 790 543 l 1019 543 q 1068 528 1053 543 q 1083 479 1083 513 l 1083 50 q 1078 19 1083 32 q 1064 -1 1074 7 l 883 -151 q 869 -160 878 -157 q 854 -164 861 -164 l 854 -325 q 838 -415 854 -376 q 794 -476 822 -453 l 615 -628 q 559 -658 592 -647 q 488 -668 526 -668 m 1019 0 q 1058 12 1046 0 q 1069 50 1069 24 l 1069 479 q 1058 517 1069 506 q 1019 529 1046 529 l 804 529 q 766 517 778 529 q 754 479 754 506 l 754 263 l 619 263 q 572 279 588 263 q 556 331 556 296 l 556 663 q 576 715 556 697 q 640 732 597 732 l 929 732 q 967 744 956 732 q 979 782 979 756 l 979 950 q 967 988 979 976 q 929 1000 956 1000 l 582 1000 q 324 931 408 1000 q 240 717 240 861 l 240 283 q 324 69 240 139 q 582 0 408 0 l 1019 0 m 642 125 q 517 135 565 125 q 440 166 468 144 q 402 222 413 188 q 392 304 392 256 l 392 693 q 436 833 392 792 q 614 875 481 875 l 854 875 l 854 861 l 614 861 q 449 823 492 861 q 406 693 406 785 l 406 304 q 453 176 406 214 q 642 139 501 139 l 904 139 l 904 404 l 918 404 l 918 125 l 642 125 m 667 -503 q 793 -458 746 -503 q 840 -325 840 -414 l 840 -114 q 829 -72 840 -83 q 789 -60 818 -60 l 569 -60 q 529 -72 540 -60 q 518 -114 518 -83 l 518 -265 q 529 -308 518 -296 q 569 -319 540 -319 l 689 -319 l 689 -337 q 681 -362 689 -353 q 657 -371 672 -371 l 575 -371 q 543 -381 553 -371 q 533 -412 533 -390 l 533 -460 q 543 -492 533 -482 q 575 -503 553 -503 l 667 -503 m 761 -183 l 761 -318 q 731 -410 761 -382 q 646 -437 701 -437 l 597 -437 l 597 -424 l 646 -424 q 722 -399 696 -424 q 747 -318 747 -374 l 747 -197 l 597 -197 l 597 -183 l 761 -183 z "},"H":{"ha":1193,"x_min":63,"x_max":1132,"o":"m 406 125 l 406 875 l 419 875 l 419 507 l 953 507 l 953 875 l 967 875 l 967 125 l 953 125 l 953 493 l 419 493 l 419 125 l 406 125 m 521 0 q 559 12 547 0 q 571 50 571 24 l 571 358 l 803 358 l 803 50 q 815 12 803 24 q 853 0 826 0 l 1068 0 q 1106 12 1094 0 q 1118 50 1118 24 l 1118 950 q 1106 988 1118 976 q 1068 1000 1094 1000 l 853 1000 q 815 988 826 1000 q 803 950 803 976 l 803 649 l 571 649 l 571 950 q 559 988 571 976 q 521 1000 547 1000 l 306 1000 q 267 988 279 1000 q 256 950 256 976 l 256 50 q 267 12 256 24 q 306 0 279 0 l 521 0 m 565 -1 l 385 -151 q 367 -161 379 -157 q 342 -165 356 -165 l 126 -165 q 78 -150 93 -165 q 63 -101 63 -135 l 63 799 q 67 829 63 817 q 82 850 72 842 l 261 1001 q 280 1010 268 1007 q 306 1014 292 1014 l 521 1014 q 569 999 554 1014 q 585 950 585 983 l 585 663 l 610 663 l 610 799 q 615 829 610 817 q 629 850 619 842 l 808 1001 q 827 1010 815 1007 q 853 1014 839 1014 l 1068 1014 q 1117 999 1101 1014 q 1132 950 1132 983 l 1132 50 q 1127 19 1132 32 q 1113 -1 1122 7 l 932 -151 q 915 -161 926 -157 q 889 -165 903 -165 l 674 -165 q 625 -150 640 -165 q 610 -101 610 -135 l 610 193 l 585 193 l 585 50 q 580 19 585 32 q 565 -1 575 7 z "},"Ĥ":{"ha":1193,"x_min":63,"x_max":1132,"o":"m 850 1181 l 729 1219 q 709 1225 719 1222 q 685 1228 699 1228 q 660 1225 671 1228 q 640 1219 650 1222 l 519 1181 l 519 1196 l 635 1233 q 658 1239 647 1236 q 685 1242 669 1242 q 711 1239 700 1242 q 735 1233 722 1236 l 850 1196 l 850 1181 m 642 1107 q 685 1113 665 1113 q 728 1107 704 1113 l 918 1051 q 965 1049 954 1040 q 976 1094 976 1057 l 976 1207 q 965 1256 976 1244 q 918 1281 953 1267 l 728 1350 q 707 1356 718 1354 q 683 1357 696 1357 q 656 1353 671 1356 q 629 1344 642 1350 l 451 1281 q 406 1256 418 1267 q 394 1207 394 1244 l 394 1094 q 406 1049 394 1057 q 451 1051 417 1040 l 642 1107 m 585 663 l 610 663 l 610 799 q 615 829 610 817 q 629 850 619 842 l 688 900 l 585 931 l 585 663 m 406 125 l 406 875 l 419 875 l 419 507 l 953 507 l 953 875 l 967 875 l 967 125 l 953 125 l 953 493 l 419 493 l 419 125 l 406 125 m 521 0 q 559 12 547 0 q 571 50 571 24 l 571 358 l 803 358 l 803 50 q 815 12 803 24 q 853 0 826 0 l 1068 0 q 1106 12 1094 0 q 1118 50 1118 24 l 1118 950 q 1106 988 1118 976 q 1068 1000 1094 1000 l 853 1000 q 815 988 826 1000 q 803 950 803 976 l 803 649 l 571 649 l 571 950 q 559 988 571 976 q 521 1000 547 1000 l 306 1000 q 267 988 279 1000 q 256 950 256 976 l 256 50 q 267 12 256 24 q 306 0 279 0 l 521 0 m 385 -151 q 367 -161 379 -157 q 342 -165 356 -165 l 126 -165 q 78 -150 93 -165 q 63 -101 63 -135 l 63 799 q 67 829 63 817 q 82 850 72 842 l 201 951 l 201 1056 q 206 1096 201 1082 q 221 1119 211 1110 l 403 1271 l 401 1269 q 420 1282 408 1276 q 447 1293 432 1288 l 624 1357 q 653 1366 638 1363 q 683 1371 669 1369 q 710 1369 697 1371 q 732 1363 722 1368 l 924 1293 q 978 1264 965 1278 q 990 1207 990 1250 l 990 1094 q 986 1058 990 1072 q 976 1039 982 1044 l 975 1038 l 946 1014 l 1068 1014 q 1117 999 1101 1014 q 1132 950 1132 983 l 1132 50 q 1127 19 1132 32 q 1113 -1 1122 7 l 932 -151 q 915 -161 926 -157 q 889 -165 903 -165 l 674 -165 q 625 -150 640 -165 q 610 -101 610 -135 l 610 193 l 585 193 l 585 50 q 580 19 585 32 q 565 -1 575 7 l 385 -151 z "},"I":{"ha":979,"x_min":40,"x_max":939,"o":"m 696 -165 l 104 -165 q 56 -150 71 -165 q 40 -101 40 -135 l 40 64 q 45 94 40 82 q 60 115 50 107 l 228 257 l 228 567 l 104 567 q 56 582 71 567 q 40 631 40 597 l 40 799 q 45 829 40 817 q 60 850 50 842 l 239 1001 q 258 1010 246 1007 q 283 1014 269 1014 l 875 1014 q 924 999 908 1014 q 939 950 939 983 l 939 782 q 934 751 939 764 q 919 731 929 739 l 754 592 l 754 279 l 875 279 q 924 264 908 279 q 939 215 939 249 l 939 50 q 934 19 939 32 q 919 -1 929 7 l 739 -151 q 722 -161 733 -157 q 696 -165 710 -165 m 283 0 l 875 0 q 913 12 901 0 q 925 50 925 24 l 925 215 q 913 253 925 242 q 875 265 901 265 l 740 265 l 740 732 l 875 732 q 913 744 901 732 q 925 782 925 756 l 925 950 q 913 988 925 976 q 875 1000 901 1000 l 283 1000 q 245 988 257 1000 q 233 950 233 976 l 233 782 q 245 744 233 756 q 283 732 257 732 l 421 732 l 421 265 l 283 265 q 245 253 257 265 q 233 215 233 242 l 233 50 q 245 12 233 24 q 283 0 257 0 m 800 125 l 358 125 l 358 139 l 574 139 l 574 861 l 358 861 l 358 875 l 800 875 l 800 861 l 588 861 l 588 139 l 800 139 l 800 125 z "},"Ì":{"ha":979,"x_min":40,"x_max":939,"o":"m 696 -165 l 104 -165 q 56 -150 71 -165 q 40 -101 40 -135 l 40 64 q 45 94 40 82 q 60 115 50 107 l 228 257 l 228 567 l 104 567 q 56 582 71 567 q 40 631 40 597 l 40 799 q 45 829 40 817 q 60 850 50 842 l 165 939 l 157 940 q 109 958 124 944 q 94 1004 94 972 l 94 1138 q 99 1167 94 1156 q 114 1188 104 1179 l 293 1339 q 312 1347 301 1344 q 336 1349 322 1350 l 821 1289 q 869 1271 854 1285 q 883 1225 883 1257 l 883 1092 q 878 1062 883 1074 q 864 1042 874 1050 l 831 1014 l 875 1014 q 924 999 908 1014 q 939 950 939 983 l 939 782 q 934 751 939 764 q 919 731 929 739 l 754 592 l 754 279 l 875 279 q 924 264 908 279 q 939 215 939 249 l 939 50 q 934 19 939 32 q 919 -1 929 7 l 739 -151 q 722 -161 733 -157 q 696 -165 710 -165 m 822 1046 q 858 1056 846 1043 q 869 1092 869 1068 l 869 1225 q 858 1262 869 1251 q 819 1275 846 1272 l 335 1335 q 299 1325 311 1338 q 288 1289 288 1313 l 288 1156 q 299 1119 288 1129 q 338 1106 311 1108 l 822 1046 m 413 1204 l 413 1218 l 744 1176 l 744 1163 l 413 1204 m 283 0 l 875 0 q 913 12 901 0 q 925 50 925 24 l 925 215 q 913 253 925 242 q 875 265 901 265 l 740 265 l 740 732 l 875 732 q 913 744 901 732 q 925 782 925 756 l 925 950 q 913 988 925 976 q 875 1000 901 1000 l 283 1000 q 245 988 257 1000 q 233 950 233 976 l 233 782 q 245 744 233 756 q 283 732 257 732 l 421 732 l 421 265 l 283 265 q 245 253 257 265 q 233 215 233 242 l 233 50 q 245 12 233 24 q 283 0 257 0 m 800 125 l 358 125 l 358 139 l 574 139 l 574 861 l 358 861 l 358 875 l 800 875 l 800 861 l 588 861 l 588 139 l 800 139 l 800 125 z "},"Í":{"ha":979,"x_min":40,"x_max":939,"o":"m 696 -165 l 104 -165 q 56 -150 71 -165 q 40 -101 40 -135 l 40 64 q 45 94 40 82 q 60 115 50 107 l 228 257 l 228 567 l 104 567 q 56 582 71 567 q 40 631 40 597 l 40 799 q 45 829 40 817 q 60 850 50 842 l 110 893 q 99 913 103 900 q 94 940 94 925 l 94 1074 q 99 1103 94 1092 q 113 1122 104 1115 l 293 1274 q 310 1283 299 1279 q 336 1289 322 1288 l 821 1349 q 867 1337 851 1353 q 883 1289 883 1321 l 883 1156 q 878 1125 883 1138 q 864 1107 874 1113 l 754 1014 l 875 1014 q 924 999 908 1014 q 939 950 939 983 l 939 782 q 934 751 939 764 q 919 731 929 739 l 754 592 l 754 279 l 875 279 q 924 264 908 279 q 939 215 939 249 l 939 50 q 934 19 939 32 q 919 -1 929 7 l 739 -151 q 722 -161 733 -157 q 696 -165 710 -165 m 819 1106 q 858 1119 846 1108 q 869 1156 869 1129 l 869 1289 q 858 1325 869 1313 q 822 1335 846 1338 l 338 1275 q 299 1262 311 1272 q 288 1225 288 1251 l 288 1092 q 299 1056 288 1068 q 335 1046 311 1043 l 819 1106 m 413 1176 l 744 1218 l 744 1204 l 413 1163 l 413 1176 m 283 0 l 875 0 q 913 12 901 0 q 925 50 925 24 l 925 215 q 913 253 925 242 q 875 265 901 265 l 740 265 l 740 732 l 875 732 q 913 744 901 732 q 925 782 925 756 l 925 950 q 913 988 925 976 q 875 1000 901 1000 l 283 1000 q 245 988 257 1000 q 233 950 233 976 l 233 782 q 245 744 233 756 q 283 732 257 732 l 421 732 l 421 265 l 283 265 q 245 253 257 265 q 233 215 233 242 l 233 50 q 245 12 233 24 q 283 0 257 0 m 800 125 l 358 125 l 358 139 l 574 139 l 574 861 l 358 861 l 358 875 l 800 875 l 800 861 l 588 861 l 588 139 l 800 139 l 800 125 z "},"Î":{"ha":979,"x_min":40,"x_max":939,"o":"m 696 -165 l 104 -165 q 56 -150 71 -165 q 40 -101 40 -135 l 40 64 q 45 94 40 82 q 60 115 50 107 l 228 257 l 228 567 l 104 567 q 56 582 71 567 q 40 631 40 597 l 40 799 q 45 829 40 817 q 60 850 50 842 l 104 888 q 97 908 99 894 q 94 943 94 922 l 94 1056 q 99 1096 94 1082 q 114 1119 104 1110 l 296 1271 l 294 1269 q 313 1282 301 1276 q 340 1293 325 1288 l 517 1357 q 547 1366 531 1363 q 576 1371 563 1369 q 603 1369 590 1371 q 625 1363 615 1368 l 817 1293 q 871 1264 858 1278 q 883 1207 883 1250 l 883 1094 q 879 1058 883 1072 q 869 1039 875 1044 l 868 1038 l 839 1014 l 875 1014 q 924 999 908 1014 q 939 950 939 983 l 939 782 q 934 751 939 764 q 919 731 929 739 l 754 592 l 754 279 l 875 279 q 924 264 908 279 q 939 215 939 249 l 939 50 q 934 19 939 32 q 919 -1 929 7 l 739 -151 q 722 -161 733 -157 q 696 -165 710 -165 m 743 1181 l 622 1219 q 602 1225 613 1222 q 578 1228 592 1228 q 553 1225 564 1228 q 533 1219 543 1222 l 413 1181 l 413 1196 l 528 1233 q 551 1239 540 1236 q 578 1242 563 1242 q 604 1239 593 1242 q 628 1233 615 1236 l 743 1196 l 743 1181 m 535 1107 q 578 1113 558 1113 q 621 1107 597 1113 l 811 1051 q 858 1049 847 1040 q 869 1094 869 1057 l 869 1207 q 858 1256 869 1244 q 811 1281 846 1267 l 621 1350 q 600 1356 611 1354 q 576 1357 589 1357 q 549 1353 564 1356 q 522 1344 535 1350 l 344 1281 q 299 1256 311 1267 q 288 1207 288 1244 l 288 1094 q 299 1049 288 1057 q 344 1051 310 1040 l 535 1107 m 283 0 l 875 0 q 913 12 901 0 q 925 50 925 24 l 925 215 q 913 253 925 242 q 875 265 901 265 l 740 265 l 740 732 l 875 732 q 913 744 901 732 q 925 782 925 756 l 925 950 q 913 988 925 976 q 875 1000 901 1000 l 283 1000 q 245 988 257 1000 q 233 950 233 976 l 233 782 q 245 744 233 756 q 283 732 257 732 l 421 732 l 421 265 l 283 265 q 245 253 257 265 q 233 215 233 242 l 233 50 q 245 12 233 24 q 283 0 257 0 m 800 125 l 358 125 l 358 139 l 574 139 l 574 861 l 358 861 l 358 875 l 800 875 l 800 861 l 588 861 l 588 139 l 800 139 l 800 125 z "},"Ï":{"ha":979,"x_min":40,"x_max":939,"o":"m 696 -165 l 104 -165 q 56 -150 71 -165 q 40 -101 40 -135 l 40 64 q 45 94 40 82 q 60 115 50 107 l 228 257 l 228 567 l 104 567 q 56 582 71 567 q 40 631 40 597 l 40 799 q 45 829 40 817 q 60 850 50 842 l 108 892 q 73 908 85 893 q 61 950 61 924 l 61 1118 q 66 1147 61 1136 q 79 1165 71 1158 l 258 1317 q 276 1326 265 1322 q 301 1329 288 1329 l 493 1329 q 538 1315 524 1329 q 553 1269 553 1300 l 553 1261 l 618 1317 q 635 1326 625 1322 q 660 1329 646 1329 l 851 1329 q 897 1315 882 1329 q 911 1269 911 1300 l 911 1101 q 906 1073 911 1085 q 893 1054 901 1061 l 844 1014 l 875 1014 q 924 999 908 1014 q 939 950 939 983 l 939 782 q 934 751 939 764 q 919 731 929 739 l 754 592 l 754 279 l 875 279 q 924 264 908 279 q 939 215 939 249 l 939 50 q 934 19 939 32 q 919 -1 929 7 l 739 -151 q 722 -161 733 -157 q 696 -165 710 -165 m 851 1056 q 886 1067 875 1056 q 897 1101 897 1078 l 897 1269 q 886 1304 897 1293 q 851 1315 875 1315 l 660 1315 q 625 1304 636 1315 q 614 1269 614 1293 l 614 1101 q 625 1067 614 1078 q 660 1056 636 1056 l 851 1056 m 493 1056 q 528 1067 517 1056 q 539 1101 539 1078 l 539 1269 q 528 1304 539 1293 q 493 1315 517 1315 l 301 1315 q 266 1304 278 1315 q 254 1269 254 1293 l 254 1101 q 266 1067 254 1078 q 301 1056 278 1056 l 493 1056 m 763 1153 l 749 1153 l 749 1218 l 763 1218 l 763 1153 m 404 1153 l 390 1153 l 390 1218 l 404 1218 l 404 1153 m 283 0 l 875 0 q 913 12 901 0 q 925 50 925 24 l 925 215 q 913 253 925 242 q 875 265 901 265 l 740 265 l 740 732 l 875 732 q 913 744 901 732 q 925 782 925 756 l 925 950 q 913 988 925 976 q 875 1000 901 1000 l 283 1000 q 245 988 257 1000 q 233 950 233 976 l 233 782 q 245 744 233 756 q 283 732 257 732 l 421 732 l 421 265 l 283 265 q 245 253 257 265 q 233 215 233 242 l 233 50 q 245 12 233 24 q 283 0 257 0 m 800 125 l 358 125 l 358 139 l 574 139 l 574 861 l 358 861 l 358 875 l 800 875 l 800 861 l 588 861 l 588 139 l 800 139 l 800 125 z "},"Ĩ":{"ha":979,"x_min":40,"x_max":939,"o":"m 696 -165 l 104 -165 q 56 -150 71 -165 q 40 -101 40 -135 l 40 64 q 45 94 40 82 q 60 115 50 107 l 228 257 l 228 567 l 104 567 q 56 582 71 567 q 40 631 40 597 l 40 799 q 45 829 40 817 q 60 850 50 842 l 110 893 q 99 910 103 899 q 94 939 94 922 l 94 1079 q 99 1109 94 1097 q 115 1131 104 1121 l 294 1281 q 310 1291 300 1286 q 332 1300 321 1296 l 333 1300 l 333 1301 q 390 1316 367 1311 q 435 1321 413 1321 q 485 1317 458 1321 q 556 1308 513 1314 l 579 1306 l 610 1301 q 681 1292 654 1294 q 726 1290 707 1289 q 765 1297 746 1292 q 814 1313 785 1303 q 865 1310 849 1322 q 882 1263 882 1297 l 882 1122 q 876 1092 882 1104 q 861 1072 871 1081 l 792 1014 l 875 1014 q 924 999 908 1014 q 939 950 939 983 l 939 782 q 934 751 939 764 q 919 731 929 739 l 754 592 l 754 279 l 875 279 q 924 264 908 279 q 939 215 939 249 l 939 50 q 934 19 939 32 q 919 -1 929 7 l 739 -151 q 722 -161 733 -157 q 696 -165 710 -165 m 578 1061 l 600 1058 q 669 1049 642 1053 q 718 1046 696 1046 q 763 1051 740 1046 q 818 1065 785 1056 q 855 1085 842 1075 q 868 1122 868 1096 l 868 1263 q 856 1297 868 1289 q 818 1299 843 1306 q 768 1283 788 1289 q 728 1276 749 1278 q 681 1278 708 1275 q 608 1288 654 1281 l 578 1292 l 554 1294 q 485 1303 513 1300 q 437 1307 458 1307 q 393 1302 415 1307 q 338 1288 371 1297 q 301 1267 314 1278 q 288 1231 288 1257 l 288 1090 q 300 1056 288 1064 q 338 1054 313 1047 q 385 1067 365 1063 q 426 1074 406 1072 q 474 1074 447 1076 q 539 1067 500 1072 l 578 1061 m 743 1168 l 743 1154 q 683 1154 715 1151 q 599 1165 651 1157 l 576 1168 l 538 1174 q 463 1182 492 1181 q 413 1179 435 1183 l 413 1194 q 465 1195 436 1197 q 540 1188 493 1193 l 579 1182 l 601 1179 q 685 1168 654 1171 q 743 1168 715 1165 m 283 0 l 875 0 q 913 12 901 0 q 925 50 925 24 l 925 215 q 913 253 925 242 q 875 265 901 265 l 740 265 l 740 732 l 875 732 q 913 744 901 732 q 925 782 925 756 l 925 950 q 913 988 925 976 q 875 1000 901 1000 l 283 1000 q 245 988 257 1000 q 233 950 233 976 l 233 782 q 245 744 233 756 q 283 732 257 732 l 421 732 l 421 265 l 283 265 q 245 253 257 265 q 233 215 233 242 l 233 50 q 245 12 233 24 q 283 0 257 0 m 800 125 l 358 125 l 358 139 l 574 139 l 574 861 l 358 861 l 358 875 l 800 875 l 800 861 l 588 861 l 588 139 l 800 139 l 800 125 z "},"Ī":{"ha":979,"x_min":40,"x_max":939,"o":"m 696 -165 l 104 -165 q 56 -150 71 -165 q 40 -101 40 -135 l 40 64 q 45 94 40 82 q 60 115 50 107 l 228 257 l 228 567 l 104 567 q 56 582 71 567 q 40 631 40 597 l 40 799 q 45 829 40 817 q 60 850 50 842 l 118 899 q 100 919 106 906 q 94 954 94 933 l 94 1083 q 99 1114 94 1101 q 114 1135 104 1126 l 293 1286 q 312 1295 300 1292 q 338 1299 324 1299 l 819 1299 q 868 1283 853 1299 q 883 1235 883 1268 l 883 1106 q 878 1075 883 1088 q 864 1054 874 1063 l 815 1014 l 875 1014 q 924 999 908 1014 q 939 950 939 983 l 939 782 q 934 751 939 764 q 919 731 929 739 l 754 592 l 754 279 l 875 279 q 924 264 908 279 q 939 215 939 249 l 939 50 q 934 19 939 32 q 919 -1 929 7 l 739 -151 q 722 -161 733 -157 q 696 -165 710 -165 m 819 1056 q 858 1067 846 1056 q 869 1106 869 1079 l 869 1235 q 858 1273 869 1261 q 819 1285 846 1285 l 338 1285 q 299 1273 311 1285 q 288 1235 288 1261 l 288 1106 q 299 1067 288 1079 q 338 1056 311 1056 l 819 1056 m 413 1176 l 744 1176 l 744 1163 l 413 1163 l 413 1176 m 283 0 l 875 0 q 913 12 901 0 q 925 50 925 24 l 925 215 q 913 253 925 242 q 875 265 901 265 l 740 265 l 740 732 l 875 732 q 913 744 901 732 q 925 782 925 756 l 925 950 q 913 988 925 976 q 875 1000 901 1000 l 283 1000 q 245 988 257 1000 q 233 950 233 976 l 233 782 q 245 744 233 756 q 283 732 257 732 l 421 732 l 421 265 l 283 265 q 245 253 257 265 q 233 215 233 242 l 233 50 q 245 12 233 24 q 283 0 257 0 m 800 125 l 358 125 l 358 139 l 574 139 l 574 861 l 358 861 l 358 875 l 800 875 l 800 861 l 588 861 l 588 139 l 800 139 l 800 125 z "},"Ĭ":{"ha":979,"x_min":40,"x_max":939,"o":"m 696 -165 l 104 -165 q 56 -150 71 -165 q 40 -101 40 -135 l 40 64 q 45 94 40 82 q 60 115 50 107 l 228 257 l 228 567 l 104 567 q 56 582 71 567 q 40 631 40 597 l 40 799 q 45 829 40 817 q 60 850 50 842 l 158 933 q 100 1003 115 961 q 85 1094 85 1044 l 85 1156 q 90 1186 85 1174 q 104 1207 94 1199 l 283 1358 q 302 1367 290 1364 q 328 1371 314 1371 l 461 1371 q 503 1359 490 1371 q 515 1314 515 1347 l 515 1285 q 521 1267 515 1275 q 540 1257 526 1260 l 665 1361 l 664 1360 q 679 1368 669 1365 q 704 1371 689 1371 l 831 1371 q 879 1356 864 1371 q 894 1307 894 1340 l 894 1246 q 881 1161 894 1200 q 833 1094 868 1122 l 736 1014 l 875 1014 q 924 999 908 1014 q 939 950 939 983 l 939 782 q 934 751 939 764 q 919 731 929 739 l 754 592 l 754 279 l 875 279 q 924 264 908 279 q 939 215 939 249 l 939 50 q 934 19 939 32 q 919 -1 929 7 l 739 -151 q 722 -161 733 -157 q 696 -165 710 -165 m 881 1246 l 881 1307 q 869 1345 881 1333 q 831 1357 857 1357 l 704 1357 q 672 1348 681 1357 q 663 1314 663 1339 l 663 1285 q 647 1252 663 1265 q 581 1239 632 1239 q 515 1252 529 1239 q 501 1285 501 1265 l 501 1314 q 492 1348 501 1339 q 461 1357 483 1357 l 328 1357 q 290 1345 301 1357 q 278 1307 278 1333 l 278 1246 q 291 1165 278 1201 q 338 1102 304 1128 q 431 1062 372 1076 q 579 1047 489 1047 q 728 1062 669 1047 q 820 1102 786 1076 q 867 1165 854 1128 q 881 1246 881 1201 m 765 1260 l 779 1260 l 779 1247 q 772 1208 779 1228 q 743 1172 764 1188 q 682 1146 722 1156 q 578 1136 642 1136 q 475 1146 514 1136 q 416 1172 436 1156 q 390 1208 396 1188 q 383 1247 383 1228 l 383 1260 l 397 1260 l 397 1247 q 431 1180 397 1210 q 578 1150 465 1150 q 728 1180 690 1150 q 765 1247 765 1210 l 765 1260 m 283 0 l 875 0 q 913 12 901 0 q 925 50 925 24 l 925 215 q 913 253 925 242 q 875 265 901 265 l 740 265 l 740 732 l 875 732 q 913 744 901 732 q 925 782 925 756 l 925 950 q 913 988 925 976 q 875 1000 901 1000 l 283 1000 q 245 988 257 1000 q 233 950 233 976 l 233 782 q 245 744 233 756 q 283 732 257 732 l 421 732 l 421 265 l 283 265 q 245 253 257 265 q 233 215 233 242 l 233 50 q 245 12 233 24 q 283 0 257 0 m 800 125 l 358 125 l 358 139 l 574 139 l 574 861 l 358 861 l 358 875 l 800 875 l 800 861 l 588 861 l 588 139 l 800 139 l 800 125 z "},"Į":{"ha":979,"x_min":40,"x_max":939,"o":"m 546 -424 q 413 -375 450 -424 q 392 -219 376 -326 l 401 -165 l 104 -165 q 56 -150 71 -165 q 40 -101 40 -135 l 40 64 q 45 94 40 82 q 60 115 50 107 l 228 257 l 228 567 l 104 567 q 56 582 71 567 q 40 631 40 597 l 40 799 q 45 829 40 817 q 60 850 50 842 l 239 1001 q 258 1010 246 1007 q 283 1014 269 1014 l 875 1014 q 924 999 908 1014 q 939 950 939 983 l 939 782 q 934 751 939 764 q 919 731 929 739 l 754 592 l 754 279 l 875 279 q 924 264 908 279 q 939 215 939 249 l 939 50 q 934 19 939 32 q 919 -1 929 7 l 861 -50 l 875 -50 q 926 -63 913 -50 q 939 -111 939 -76 l 939 -211 q 935 -242 939 -229 q 922 -261 931 -254 l 742 -412 q 725 -421 736 -418 q 700 -424 714 -424 l 546 -424 m 925 -211 l 925 -111 q 915 -74 925 -85 q 875 -64 904 -64 l 818 -64 l 828 0 l 875 0 q 896 2 886 0 q 911 10 906 4 q 922 26 918 15 q 925 50 925 36 l 925 215 q 913 253 925 242 q 875 265 901 265 l 740 265 l 740 732 l 875 732 q 896 734 886 732 q 911 742 906 736 q 922 758 918 747 q 925 782 925 768 l 925 950 q 913 988 925 976 q 875 1000 901 1000 l 283 1000 q 263 998 272 1000 q 247 990 253 996 q 237 974 240 985 q 233 950 233 964 l 233 782 q 245 744 233 756 q 283 732 257 732 l 421 732 l 421 265 l 283 265 q 263 263 272 265 q 247 256 253 261 q 237 240 240 250 q 233 215 233 229 l 233 50 q 245 12 233 24 q 283 0 257 0 l 597 0 l 585 -71 q 603 -212 571 -167 q 725 -258 636 -258 l 879 -258 q 900 -256 892 -258 q 914 -250 908 -254 q 922 -235 919 -244 q 925 -211 925 -225 m 767 -161 q 701 -135 715 -161 q 696 -57 688 -108 l 713 58 q 722 97 717 83 q 740 121 726 110 q 743 123 742 122 q 746 125 744 124 l 358 125 l 358 139 l 574 139 l 574 861 l 358 861 l 358 875 l 800 875 l 800 861 l 588 861 l 588 139 l 800 139 l 800 125 l 772 125 q 758 117 764 121 q 747 108 751 113 q 733 90 738 100 q 726 58 729 79 l 710 -60 q 714 -124 704 -101 q 767 -147 724 -147 l 800 -147 l 800 -161 l 767 -161 z "},"İ":{"ha":979,"x_min":40,"x_max":939,"o":"m 696 -165 l 104 -165 q 56 -150 71 -165 q 40 -101 40 -135 l 40 64 q 45 94 40 82 q 60 115 50 107 l 228 257 l 228 567 l 104 567 q 56 582 71 567 q 40 631 40 597 l 40 799 q 45 829 40 817 q 60 850 50 842 l 228 992 l 228 1131 q 233 1161 228 1149 q 247 1182 238 1174 l 426 1333 q 445 1342 433 1339 q 471 1346 457 1346 l 690 1346 q 739 1331 724 1346 q 754 1282 754 1315 l 754 1106 q 749 1075 754 1088 q 735 1054 744 1063 l 686 1014 l 875 1014 q 924 999 908 1014 q 939 950 939 983 l 939 782 q 934 751 939 764 q 919 731 929 739 l 754 592 l 754 279 l 875 279 q 924 264 908 279 q 939 215 939 249 l 939 50 q 934 19 939 32 q 919 -1 929 7 l 739 -151 q 722 -161 733 -157 q 696 -165 710 -165 m 690 1056 q 728 1067 717 1056 q 740 1106 740 1079 l 740 1282 q 728 1320 740 1308 q 690 1332 717 1332 l 471 1332 q 433 1320 444 1332 q 421 1282 421 1308 l 421 1106 q 433 1067 421 1079 q 471 1056 444 1056 l 690 1056 m 588 1153 l 574 1153 l 574 1235 l 588 1235 l 588 1153 m 283 0 l 875 0 q 913 12 901 0 q 925 50 925 24 l 925 215 q 913 253 925 242 q 875 265 901 265 l 740 265 l 740 732 l 875 732 q 913 744 901 732 q 925 782 925 756 l 925 950 q 913 988 925 976 q 875 1000 901 1000 l 283 1000 q 245 988 257 1000 q 233 950 233 976 l 233 782 q 245 744 233 756 q 283 732 257 732 l 421 732 l 421 265 l 283 265 q 245 253 257 265 q 233 215 233 242 l 233 50 q 245 12 233 24 q 283 0 257 0 m 800 125 l 358 125 l 358 139 l 574 139 l 574 861 l 358 861 l 358 875 l 800 875 l 800 861 l 588 861 l 588 139 l 800 139 l 800 125 z "},"J":{"ha":1094,"x_min":24,"x_max":1040,"o":"m 440 -186 q 233 -158 314 -186 q 105 -82 151 -129 q 41 26 58 -35 q 24 153 24 88 l 24 336 q 28 367 24 354 q 42 388 33 381 l 222 539 q 240 548 229 544 q 267 551 251 551 l 468 551 q 495 548 483 551 q 515 538 507 544 l 515 799 q 520 829 515 817 q 535 850 525 842 l 714 1001 q 733 1010 721 1007 q 758 1014 744 1014 l 976 1014 q 1025 999 1010 1014 q 1040 950 1040 983 l 1040 263 q 1022 142 1040 197 q 956 49 1003 88 l 776 -103 q 649 -164 729 -142 q 440 -186 568 -186 m 1026 263 l 1026 950 q 1015 988 1026 976 q 976 1000 1003 1000 l 758 1000 q 720 988 732 1000 q 708 950 708 976 l 708 318 q 692 272 708 290 q 617 253 676 253 q 535 272 553 253 q 518 318 518 290 l 518 488 q 506 526 518 514 q 468 538 494 538 l 267 538 q 228 526 240 538 q 217 488 217 514 l 217 263 q 234 147 217 199 q 297 58 251 94 q 420 0 342 21 q 619 -21 499 -21 q 821 0 742 -21 q 945 58 900 21 q 1008 147 990 94 q 1026 263 1026 199 m 860 875 l 874 875 l 874 296 q 822 161 874 214 q 622 108 769 108 q 494 122 544 108 q 414 160 443 136 q 373 219 385 185 q 361 296 361 254 l 361 406 l 375 406 l 375 296 q 427 169 375 217 q 622 122 479 122 q 810 170 760 122 q 860 296 860 218 l 860 875 z "},"Ĵ":{"ha":1094,"x_min":24,"x_max":1161,"o":"m 1021 1181 l 900 1219 q 880 1225 890 1222 q 856 1228 869 1228 q 831 1225 842 1228 q 811 1219 821 1222 l 690 1181 l 690 1196 l 806 1233 q 829 1239 818 1236 q 856 1242 840 1242 q 882 1239 871 1242 q 906 1233 893 1236 l 1021 1196 l 1021 1181 m 813 1107 q 856 1113 836 1113 q 899 1107 875 1113 l 1089 1051 q 1136 1049 1125 1040 q 1147 1094 1147 1057 l 1147 1207 q 1135 1256 1147 1244 q 1089 1281 1124 1267 l 899 1350 q 878 1356 889 1354 q 854 1357 867 1357 q 827 1353 842 1356 q 800 1344 813 1350 l 622 1281 q 577 1256 589 1267 q 565 1207 565 1244 l 565 1094 q 576 1049 565 1057 q 622 1051 588 1040 l 813 1107 m 440 -186 q 233 -158 314 -186 q 105 -82 151 -129 q 41 26 58 -35 q 24 153 24 88 l 24 336 q 28 367 24 354 q 42 388 33 381 l 222 539 q 240 548 229 544 q 267 551 251 551 l 468 551 q 495 548 483 551 q 515 538 507 544 l 515 799 q 520 829 515 817 q 535 850 525 842 l 646 944 q 642 943 644 943 q 638 942 639 943 l 447 886 q 387 883 401 872 q 372 943 372 893 l 372 1056 q 377 1096 372 1082 q 392 1119 382 1110 l 574 1271 l 572 1269 q 591 1282 579 1276 q 618 1293 603 1288 l 794 1357 q 824 1366 808 1363 q 854 1371 840 1369 q 881 1369 868 1371 q 903 1363 893 1368 l 1094 1293 q 1149 1264 1136 1278 q 1161 1207 1161 1250 l 1161 1094 q 1157 1058 1161 1072 q 1147 1039 1153 1044 l 1146 1038 l 1040 950 l 1040 263 q 1022 142 1040 197 q 956 49 1003 88 l 776 -103 q 649 -164 729 -142 q 440 -186 568 -186 m 1026 263 l 1026 950 q 1015 988 1026 976 q 976 1000 1003 1000 l 758 1000 q 720 988 732 1000 q 708 950 708 976 l 708 318 q 692 272 708 290 q 617 253 676 253 q 535 272 553 253 q 518 318 518 290 l 518 488 q 506 526 518 514 q 468 538 494 538 l 267 538 q 228 526 240 538 q 217 488 217 514 l 217 263 q 234 147 217 199 q 297 58 251 94 q 420 0 342 21 q 619 -21 499 -21 q 821 0 742 -21 q 945 58 900 21 q 1008 147 990 94 q 1026 263 1026 199 m 860 875 l 874 875 l 874 296 q 822 161 874 214 q 622 108 769 108 q 494 122 544 108 q 414 160 443 136 q 373 219 385 185 q 361 296 361 254 l 361 406 l 375 406 l 375 296 q 427 169 375 217 q 622 122 479 122 q 810 170 760 122 q 860 296 860 218 l 860 875 z "},"K":{"ha":1175,"x_min":63,"x_max":1126,"o":"m 421 125 l 407 125 l 407 875 l 421 875 l 421 506 l 722 506 l 882 875 l 897 875 l 738 506 l 794 506 q 921 474 879 506 q 963 369 963 442 l 963 125 l 949 125 l 949 369 q 910 464 949 436 q 794 492 871 492 l 421 492 l 421 125 m 521 0 q 559 12 547 0 q 571 50 571 24 l 571 368 l 754 368 q 788 356 776 368 q 799 321 799 343 l 799 50 q 810 12 799 24 q 849 0 822 0 l 1063 0 q 1101 12 1089 0 q 1113 50 1113 24 l 1113 442 q 1066 576 1113 525 q 942 631 1019 626 l 1083 954 q 1085 988 1093 976 q 1053 1000 1076 1000 l 839 1000 q 796 990 813 1000 q 769 954 779 979 l 626 631 l 571 631 l 571 950 q 559 988 571 976 q 521 1000 547 1000 l 306 1000 q 267 988 279 1000 q 256 950 256 976 l 256 50 q 267 12 256 24 q 306 0 279 0 l 521 0 m 565 -1 l 385 -151 q 367 -161 379 -157 q 342 -165 356 -165 l 126 -165 q 78 -150 93 -165 q 63 -101 63 -135 l 63 799 q 67 829 63 817 q 82 850 72 842 l 261 1001 q 280 1010 268 1007 q 306 1014 292 1014 l 521 1014 q 569 999 554 1014 q 585 950 585 983 l 585 824 q 593 835 589 829 q 603 846 597 842 l 782 997 q 806 1010 792 1006 q 839 1014 821 1014 l 1053 1014 q 1099 997 1088 1014 q 1096 949 1110 979 l 963 643 q 1082 579 1038 633 q 1126 442 1126 525 l 1126 50 q 1122 19 1126 32 q 1107 -1 1117 7 l 926 -151 q 909 -161 921 -157 q 883 -165 897 -165 l 669 -165 q 621 -150 636 -165 q 606 -101 606 -135 l 606 169 q 600 192 606 183 q 585 201 594 200 l 585 50 q 580 19 585 32 q 565 -1 575 7 z "},"Ķ":{"ha":1175,"x_min":63,"x_max":1126,"o":"m 614 -628 q 558 -658 590 -647 q 486 -668 525 -668 l 394 -668 q 352 -655 365 -668 q 339 -611 339 -642 l 339 -564 q 343 -535 339 -546 q 356 -519 347 -525 l 397 -485 l 389 -485 q 338 -470 353 -485 q 324 -417 324 -456 l 324 -265 q 328 -230 324 -243 q 342 -208 332 -217 l 522 -58 l 521 -60 q 538 -50 526 -54 q 568 -46 550 -46 l 606 -46 l 606 169 q 600 192 606 183 q 585 201 594 200 l 585 50 q 580 19 585 32 q 565 -1 575 7 l 385 -151 q 367 -161 379 -157 q 342 -165 356 -165 l 126 -165 q 78 -150 93 -165 q 63 -101 63 -135 l 63 799 q 67 829 63 817 q 82 850 72 842 l 261 1001 q 280 1010 268 1007 q 306 1014 292 1014 l 521 1014 q 569 999 554 1014 q 585 950 585 983 l 585 824 q 593 835 589 829 q 603 846 597 842 l 782 997 q 806 1010 792 1006 q 839 1014 821 1014 l 1053 1014 q 1099 997 1088 1014 q 1096 949 1110 979 l 963 643 q 1082 579 1038 633 q 1126 442 1126 525 l 1126 50 q 1122 19 1126 32 q 1107 -1 1117 7 l 926 -151 q 909 -161 921 -157 q 883 -165 897 -165 l 853 -165 l 853 -325 q 837 -415 853 -376 q 793 -476 821 -453 l 614 -628 m 421 125 l 407 125 l 407 875 l 421 875 l 421 506 l 722 506 l 882 875 l 897 875 l 738 506 l 794 506 q 921 474 879 506 q 963 369 963 442 l 963 125 l 949 125 l 949 369 q 910 464 949 436 q 794 492 871 492 l 421 492 l 421 125 m 521 0 q 559 12 547 0 q 571 50 571 24 l 571 368 l 754 368 q 788 356 776 368 q 799 321 799 343 l 799 50 q 810 12 799 24 q 849 0 822 0 l 1063 0 q 1101 12 1089 0 q 1113 50 1113 24 l 1113 442 q 1066 576 1113 525 q 942 631 1019 626 l 1083 954 q 1085 988 1093 976 q 1053 1000 1076 1000 l 839 1000 q 796 990 813 1000 q 769 954 779 979 l 626 631 l 571 631 l 571 950 q 559 988 571 976 q 521 1000 547 1000 l 306 1000 q 267 988 279 1000 q 256 950 256 976 l 256 50 q 267 12 256 24 q 306 0 279 0 l 521 0 m 665 -503 q 792 -458 744 -503 q 839 -325 839 -414 l 839 -114 q 828 -72 839 -83 q 788 -60 817 -60 l 568 -60 q 528 -72 539 -60 q 517 -114 517 -83 l 517 -265 q 528 -308 517 -296 q 568 -319 539 -319 l 688 -319 l 688 -337 q 679 -362 688 -353 q 656 -371 671 -371 l 574 -371 q 542 -381 551 -371 q 532 -412 532 -390 l 532 -460 q 542 -492 532 -482 q 574 -503 551 -503 l 665 -503 m 760 -183 l 760 -318 q 730 -410 760 -382 q 644 -437 700 -437 l 596 -437 l 596 -424 l 644 -424 q 720 -399 694 -424 q 746 -318 746 -374 l 746 -197 l 596 -197 l 596 -183 l 760 -183 z "},"L":{"ha":1104,"x_min":63,"x_max":1076,"o":"m 833 -165 l 126 -165 q 78 -150 93 -165 q 63 -101 63 -135 l 63 799 q 67 829 63 817 q 82 850 72 842 l 261 1001 q 280 1010 268 1007 q 306 1014 292 1014 l 521 1014 q 569 999 554 1014 q 585 950 585 983 l 585 385 l 588 388 l 767 539 q 785 548 774 544 q 811 551 797 551 l 1013 551 q 1061 536 1046 551 q 1076 488 1076 521 l 1076 50 q 1072 19 1076 32 q 1057 -1 1067 7 l 876 -151 q 859 -161 871 -157 q 833 -165 847 -165 m 1013 0 q 1051 12 1039 0 q 1063 50 1063 24 l 1063 488 q 1051 526 1063 514 q 1013 538 1039 538 l 811 538 q 773 526 785 538 q 761 488 761 514 l 761 263 l 571 263 l 571 950 q 559 988 571 976 q 521 1000 547 1000 l 306 1000 q 267 988 279 1000 q 256 950 256 976 l 256 50 q 267 12 256 24 q 306 0 279 0 l 1013 0 m 407 125 l 407 875 l 421 875 l 421 139 l 904 139 l 904 413 l 918 413 l 918 125 l 407 125 z "},"Ĺ":{"ha":1104,"x_min":63,"x_max":1076,"o":"m 833 -165 l 126 -165 q 78 -150 93 -165 q 63 -101 63 -135 l 63 799 q 67 829 63 817 q 82 850 72 842 l 117 879 q 76 894 90 878 q 63 940 63 910 l 63 1074 q 67 1103 63 1092 q 81 1122 72 1115 l 261 1274 q 278 1283 267 1279 q 304 1289 290 1288 l 789 1349 q 835 1337 819 1353 q 851 1289 851 1321 l 851 1156 q 847 1125 851 1138 q 832 1107 842 1113 l 653 956 q 635 947 646 950 q 610 940 624 943 l 585 938 l 585 385 l 588 388 l 767 539 q 785 548 774 544 q 811 551 797 551 l 1013 551 q 1061 536 1046 551 q 1076 488 1076 521 l 1076 50 q 1072 19 1076 32 q 1057 -1 1067 7 l 876 -151 q 859 -161 871 -157 q 833 -165 847 -165 m 788 1106 q 826 1119 814 1108 q 838 1156 838 1129 l 838 1289 q 826 1325 838 1313 q 790 1335 814 1338 l 306 1275 q 267 1262 279 1272 q 256 1225 256 1251 l 256 1092 q 267 1056 256 1068 q 303 1046 279 1043 l 788 1106 m 381 1176 l 713 1218 l 713 1204 l 381 1163 l 381 1176 m 1013 0 q 1051 12 1039 0 q 1063 50 1063 24 l 1063 488 q 1051 526 1063 514 q 1013 538 1039 538 l 811 538 q 773 526 785 538 q 761 488 761 514 l 761 263 l 571 263 l 571 950 q 559 988 571 976 q 521 1000 547 1000 l 306 1000 q 267 988 279 1000 q 256 950 256 976 l 256 50 q 267 12 256 24 q 306 0 279 0 l 1013 0 m 407 125 l 407 875 l 421 875 l 421 139 l 904 139 l 904 413 l 918 413 l 918 125 l 407 125 z "},"Ļ":{"ha":1104,"x_min":63,"x_max":1076,"o":"m 474 -668 l 382 -668 q 340 -655 353 -668 q 326 -611 326 -642 l 326 -564 q 331 -535 326 -546 q 343 -519 335 -525 l 385 -485 l 376 -485 q 326 -470 340 -485 q 311 -417 311 -456 l 311 -265 q 315 -230 311 -243 q 329 -208 319 -217 l 381 -165 l 126 -165 q 78 -150 93 -165 q 63 -101 63 -135 l 63 799 q 67 829 63 817 q 82 850 72 842 l 261 1001 q 280 1010 268 1007 q 306 1014 292 1014 l 521 1014 q 569 999 554 1014 q 585 950 585 983 l 585 385 l 588 388 l 767 539 q 785 548 774 544 q 811 551 797 551 l 1013 551 q 1061 536 1046 551 q 1076 488 1076 521 l 1076 50 q 1072 19 1076 32 q 1057 -1 1067 7 l 876 -151 q 860 -161 871 -157 q 840 -165 850 -165 l 840 -325 q 824 -415 840 -376 q 781 -476 808 -453 l 601 -628 q 545 -658 578 -647 q 474 -668 513 -668 m 1013 0 q 1051 12 1039 0 q 1063 50 1063 24 l 1063 488 q 1051 526 1063 514 q 1013 538 1039 538 l 811 538 q 773 526 785 538 q 761 488 761 514 l 761 263 l 571 263 l 571 950 q 559 988 571 976 q 521 1000 547 1000 l 306 1000 q 267 988 279 1000 q 256 950 256 976 l 256 50 q 267 12 256 24 q 306 0 279 0 l 1013 0 m 407 125 l 407 875 l 421 875 l 421 139 l 904 139 l 904 413 l 918 413 l 918 125 l 407 125 m 653 -503 q 779 -458 732 -503 q 826 -325 826 -414 l 826 -114 q 815 -72 826 -83 q 775 -60 804 -60 l 556 -60 q 515 -72 526 -60 q 504 -114 504 -83 l 504 -265 q 515 -308 504 -296 q 556 -319 526 -319 l 675 -319 l 675 -337 q 667 -362 675 -353 q 643 -371 658 -371 l 561 -371 q 529 -381 539 -371 q 519 -412 519 -390 l 519 -460 q 529 -492 519 -482 q 561 -503 539 -503 l 653 -503 m 747 -183 l 747 -318 q 717 -410 747 -382 q 632 -437 688 -437 l 583 -437 l 583 -424 l 632 -424 q 708 -399 682 -424 q 733 -318 733 -374 l 733 -197 l 583 -197 l 583 -183 l 747 -183 z "},"Ľ":{"ha":1104,"x_min":63,"x_max":1076,"o":"m 833 -165 l 126 -165 q 78 -150 93 -165 q 63 -101 63 -135 l 63 799 q 67 829 63 817 q 82 850 72 842 l 261 1001 q 280 1010 268 1007 q 306 1014 292 1014 l 521 1014 q 569 999 554 1014 q 585 950 585 983 l 585 846 q 588 849 586 847 q 590 851 589 850 l 769 1001 q 787 1010 776 1007 q 811 1014 797 1014 l 1003 1014 q 1056 996 1038 1014 q 1067 947 1074 978 l 1001 675 q 992 645 997 657 q 978 625 986 633 l 890 551 l 1013 551 q 1061 536 1046 551 q 1076 488 1076 521 l 1076 50 q 1072 19 1076 32 q 1057 -1 1067 7 l 876 -151 q 859 -161 871 -157 q 833 -165 847 -165 m 938 628 q 973 640 964 628 q 988 678 982 653 l 1053 950 q 1044 988 1058 975 q 1003 1000 1029 1000 l 811 1000 q 775 988 785 1000 q 761 950 765 976 l 715 678 q 725 640 711 651 q 765 628 739 628 l 938 628 m 1013 0 q 1051 12 1039 0 q 1063 50 1063 24 l 1063 488 q 1051 526 1063 514 q 1013 538 1039 538 l 811 538 q 773 526 785 538 q 761 488 761 514 l 761 263 l 571 263 l 571 950 q 559 988 571 976 q 521 1000 547 1000 l 306 1000 q 267 988 279 1000 q 256 950 256 976 l 256 50 q 267 12 256 24 q 306 0 279 0 l 1013 0 m 874 746 l 858 746 l 883 875 l 899 875 l 874 746 m 407 125 l 407 875 l 421 875 l 421 139 l 904 139 l 904 413 l 918 413 l 918 125 l 407 125 m 585 385 l 588 388 l 676 463 l 585 463 l 585 385 z "},"M":{"ha":1318,"x_min":63,"x_max":1257,"o":"m 744 535 q 781 546 769 535 q 815 593 792 557 l 985 851 q 1003 870 993 865 q 1025 875 1014 875 l 1049 875 q 1077 865 1068 875 q 1086 832 1086 854 l 1086 125 l 1072 125 l 1072 832 q 1067 852 1072 843 q 1049 861 1063 861 l 1028 861 q 1011 858 1018 861 q 996 842 1004 856 l 826 586 q 788 535 801 549 q 744 521 775 521 q 701 535 714 521 q 663 586 688 549 l 493 842 q 477 858 485 856 q 460 861 469 861 l 439 861 q 421 852 425 861 q 417 832 417 843 l 417 125 l 403 125 l 403 832 q 412 865 403 854 q 439 875 421 875 l 463 875 q 485 870 474 875 q 504 851 496 865 l 674 593 q 708 546 697 557 q 744 535 719 535 m 513 0 q 551 12 539 0 q 563 50 563 24 l 563 539 l 644 388 q 674 353 657 364 q 718 343 692 343 l 774 343 q 817 353 800 343 q 847 388 835 364 l 929 539 l 929 50 q 941 12 929 24 q 979 0 953 0 l 1193 0 q 1231 12 1219 0 q 1243 50 1243 24 l 1243 950 q 1231 988 1243 976 q 1193 1000 1219 1000 l 968 1000 q 931 990 946 1000 q 904 958 917 981 l 781 732 q 769 714 774 719 q 756 708 764 708 l 743 708 q 730 714 735 708 q 718 732 725 719 l 593 958 q 566 990 581 981 q 529 1000 551 1000 l 306 1000 q 267 988 279 1000 q 256 950 256 976 l 256 50 q 267 12 256 24 q 306 0 279 0 l 513 0 m 557 -1 l 376 -151 q 359 -161 371 -157 q 333 -165 347 -165 l 126 -165 q 78 -150 93 -165 q 63 -101 63 -135 l 63 799 q 67 829 63 817 q 82 850 72 842 l 261 1001 q 280 1010 268 1007 q 306 1014 292 1014 l 529 1014 q 573 1003 556 1014 q 606 965 590 992 l 700 792 l 713 814 q 724 833 718 824 q 738 847 731 842 l 917 997 q 940 1010 928 1006 q 968 1014 951 1014 l 1193 1014 q 1242 999 1226 1014 q 1257 950 1257 983 l 1257 50 q 1252 19 1257 32 q 1238 -1 1247 7 l 1057 -151 q 1040 -161 1051 -157 q 1014 -165 1028 -165 l 800 -165 q 751 -150 765 -165 q 736 -101 736 -135 l 736 265 l 654 197 q 628 183 643 188 q 594 178 614 178 l 576 178 l 576 50 q 572 19 576 32 q 557 -1 567 7 z "},"N":{"ha":1185,"x_min":63,"x_max":1124,"o":"m 439 864 l 950 289 l 950 875 l 964 875 l 964 125 l 950 125 l 950 268 l 425 857 q 422 860 424 858 q 418 861 419 861 q 416 860 417 861 q 415 857 415 858 l 415 125 l 401 125 l 401 860 q 407 872 401 868 q 418 876 413 876 q 428 874 424 876 q 439 864 432 871 m 514 0 q 552 12 540 0 q 564 50 564 24 l 564 508 l 801 221 l 801 50 q 813 12 801 24 q 851 0 825 0 l 1060 0 q 1098 12 1086 0 q 1110 50 1110 24 l 1110 950 q 1098 988 1110 976 q 1060 1000 1086 1000 l 851 1000 q 813 988 825 1000 q 801 950 801 976 l 801 654 l 532 963 q 495 992 514 983 q 450 1000 476 1000 l 306 1000 q 267 988 279 1000 q 256 950 256 976 l 256 50 q 267 12 256 24 q 306 0 279 0 l 514 0 m 558 -1 l 378 -151 q 360 -161 372 -157 q 335 -165 349 -165 l 126 -165 q 78 -150 93 -165 q 63 -101 63 -135 l 63 799 q 67 829 63 817 q 82 850 72 842 l 261 1001 q 280 1010 268 1007 q 306 1014 292 1014 l 450 1014 q 501 1004 481 1014 q 543 972 522 994 l 639 861 l 807 1001 q 826 1010 814 1007 q 851 1014 838 1014 l 1060 1014 q 1108 999 1093 1014 q 1124 950 1124 983 l 1124 50 q 1119 19 1124 32 q 1104 -1 1114 7 l 924 -151 q 906 -161 918 -157 q 881 -165 894 -165 l 672 -165 q 624 -150 639 -165 q 608 -101 608 -135 l 608 64 l 578 101 l 578 50 q 573 19 578 32 q 558 -1 568 7 z "},"Ñ":{"ha":1185,"x_min":63,"x_max":1124,"o":"m 681 1061 l 703 1058 q 772 1049 744 1053 q 821 1046 799 1046 q 865 1051 843 1046 q 921 1065 888 1056 q 958 1085 944 1075 q 971 1122 971 1096 l 971 1263 q 958 1297 971 1289 q 921 1299 946 1306 q 871 1283 890 1289 q 831 1276 851 1278 q 784 1278 811 1275 q 711 1288 757 1281 l 681 1292 l 657 1294 q 588 1303 615 1300 q 540 1307 561 1307 q 496 1302 518 1307 q 440 1288 474 1297 q 403 1267 417 1278 q 390 1231 390 1257 l 390 1090 q 403 1056 390 1064 q 440 1054 415 1047 q 488 1067 468 1063 q 529 1074 508 1072 q 576 1074 550 1076 q 642 1067 603 1072 l 681 1061 m 846 1168 l 846 1154 q 786 1154 818 1151 q 701 1165 754 1157 l 679 1168 l 640 1174 q 566 1182 594 1181 q 515 1179 538 1183 l 515 1194 q 567 1195 539 1197 q 643 1188 596 1193 l 682 1182 l 704 1179 q 788 1168 757 1171 q 846 1168 818 1165 m 639 861 l 664 882 q 643 881 654 881 q 622 881 632 881 l 639 861 m 439 864 l 950 289 l 950 875 l 964 875 l 964 125 l 950 125 l 950 268 l 425 857 q 422 860 424 858 q 418 861 419 861 q 416 860 417 861 q 415 857 415 858 l 415 125 l 401 125 l 401 860 q 407 872 401 868 q 418 876 413 876 q 428 874 424 876 q 439 864 432 871 m 514 0 q 552 12 540 0 q 564 50 564 24 l 564 508 l 801 221 l 801 50 q 813 12 801 24 q 851 0 825 0 l 1060 0 q 1098 12 1086 0 q 1110 50 1110 24 l 1110 950 q 1098 988 1110 976 q 1060 1000 1086 1000 l 851 1000 q 813 988 825 1000 q 801 950 801 976 l 801 654 l 532 963 q 495 992 514 983 q 450 1000 476 1000 l 306 1000 q 267 988 279 1000 q 256 950 256 976 l 256 50 q 267 12 256 24 q 306 0 279 0 l 514 0 m 378 -151 q 360 -161 372 -157 q 335 -165 349 -165 l 126 -165 q 78 -150 93 -165 q 63 -101 63 -135 l 63 799 q 67 829 63 817 q 82 850 72 842 l 197 947 l 197 1079 q 202 1109 197 1097 q 218 1131 207 1121 l 397 1281 q 413 1291 403 1286 q 435 1300 424 1296 l 436 1300 l 436 1301 q 492 1316 469 1311 q 538 1321 515 1321 q 588 1317 561 1321 q 658 1308 615 1314 l 682 1306 l 713 1301 q 783 1292 757 1294 q 829 1290 810 1289 q 868 1297 849 1292 q 917 1313 888 1303 q 968 1310 951 1322 q 985 1263 985 1297 l 985 1122 q 979 1092 985 1104 q 964 1072 974 1081 l 894 1014 l 1060 1014 q 1108 999 1093 1014 q 1124 950 1124 983 l 1124 50 q 1119 19 1124 32 q 1104 -1 1114 7 l 924 -151 q 906 -161 918 -157 q 881 -165 894 -165 l 672 -165 q 624 -150 639 -165 q 608 -101 608 -135 l 608 64 l 578 101 l 578 50 q 573 19 578 32 q 558 -1 568 7 l 378 -151 z "},"Ń":{"ha":1185,"x_min":63,"x_max":1124,"o":"m 936 1106 q 974 1119 963 1108 q 986 1156 986 1129 l 986 1289 q 974 1325 986 1313 q 939 1335 963 1338 l 454 1275 q 416 1262 428 1272 q 404 1225 404 1251 l 404 1092 q 416 1056 404 1068 q 451 1046 428 1043 l 936 1106 m 529 1176 l 861 1218 l 861 1204 l 529 1163 l 529 1176 m 639 861 l 729 936 l 589 919 l 639 861 m 439 864 l 950 289 l 950 875 l 964 875 l 964 125 l 950 125 l 950 268 l 425 857 q 422 860 424 858 q 418 861 419 861 q 416 860 417 861 q 415 857 415 858 l 415 125 l 401 125 l 401 860 q 407 872 401 868 q 418 876 413 876 q 428 874 424 876 q 439 864 432 871 m 514 0 q 552 12 540 0 q 564 50 564 24 l 564 508 l 801 221 l 801 50 q 813 12 801 24 q 851 0 825 0 l 1060 0 q 1098 12 1086 0 q 1110 50 1110 24 l 1110 950 q 1098 988 1110 976 q 1060 1000 1086 1000 l 851 1000 q 813 988 825 1000 q 801 950 801 976 l 801 654 l 532 963 q 495 992 514 983 q 450 1000 476 1000 l 306 1000 q 267 988 279 1000 q 256 950 256 976 l 256 50 q 267 12 256 24 q 306 0 279 0 l 514 0 m 378 -151 q 360 -161 372 -157 q 335 -165 349 -165 l 126 -165 q 78 -150 93 -165 q 63 -101 63 -135 l 63 799 q 67 829 63 817 q 82 850 72 842 l 211 960 l 211 1074 q 216 1103 211 1092 q 229 1122 221 1115 l 410 1274 q 427 1283 415 1279 q 453 1289 439 1288 l 938 1349 q 984 1337 968 1353 q 1000 1289 1000 1321 l 1000 1156 q 995 1125 1000 1138 q 981 1107 990 1113 l 871 1014 l 1060 1014 q 1108 999 1093 1014 q 1124 950 1124 983 l 1124 50 q 1119 19 1124 32 q 1104 -1 1114 7 l 924 -151 q 906 -161 918 -157 q 881 -165 894 -165 l 672 -165 q 624 -150 639 -165 q 608 -101 608 -135 l 608 64 l 578 101 l 578 50 q 573 19 578 32 q 558 -1 568 7 l 378 -151 z "},"Ņ":{"ha":1185,"x_min":63,"x_max":1124,"o":"m 618 -628 q 562 -658 594 -647 q 490 -668 529 -668 l 399 -668 q 356 -655 369 -668 q 343 -611 343 -642 l 343 -564 q 347 -535 343 -546 q 360 -519 351 -525 l 401 -485 l 393 -485 q 342 -470 357 -485 q 328 -417 328 -456 l 328 -265 q 332 -230 328 -243 q 346 -208 336 -217 l 526 -58 l 525 -60 q 542 -50 531 -54 q 572 -46 554 -46 l 608 -46 l 608 64 l 578 101 l 578 50 q 573 19 578 32 q 558 -1 568 7 l 378 -151 q 360 -161 372 -157 q 335 -165 349 -165 l 126 -165 q 78 -150 93 -165 q 63 -101 63 -135 l 63 799 q 67 829 63 817 q 82 850 72 842 l 261 1001 q 280 1010 268 1007 q 306 1014 292 1014 l 450 1014 q 501 1004 481 1014 q 543 972 522 994 l 639 861 l 807 1001 q 826 1010 814 1007 q 851 1014 838 1014 l 1060 1014 q 1108 999 1093 1014 q 1124 950 1124 983 l 1124 50 q 1119 19 1124 32 q 1104 -1 1114 7 l 924 -151 q 906 -161 918 -157 q 881 -165 894 -165 l 857 -165 l 857 -325 q 841 -415 857 -376 q 797 -476 825 -453 l 618 -628 m 439 864 l 950 289 l 950 875 l 964 875 l 964 125 l 950 125 l 950 268 l 425 857 q 422 860 424 858 q 418 861 419 861 q 416 860 417 861 q 415 857 415 858 l 415 125 l 401 125 l 401 860 q 407 872 401 868 q 418 876 413 876 q 428 874 424 876 q 439 864 432 871 m 514 0 q 552 12 540 0 q 564 50 564 24 l 564 508 l 801 221 l 801 50 q 813 12 801 24 q 851 0 825 0 l 1060 0 q 1098 12 1086 0 q 1110 50 1110 24 l 1110 950 q 1098 988 1110 976 q 1060 1000 1086 1000 l 851 1000 q 813 988 825 1000 q 801 950 801 976 l 801 654 l 532 963 q 495 992 514 983 q 450 1000 476 1000 l 306 1000 q 267 988 279 1000 q 256 950 256 976 l 256 50 q 267 12 256 24 q 306 0 279 0 l 514 0 m 669 -503 q 796 -458 749 -503 q 843 -325 843 -414 l 843 -114 q 832 -72 843 -83 q 792 -60 821 -60 l 572 -60 q 532 -72 543 -60 q 521 -114 521 -83 l 521 -265 q 532 -308 521 -296 q 572 -319 543 -319 l 692 -319 l 692 -337 q 683 -362 692 -353 q 660 -371 675 -371 l 578 -371 q 546 -381 556 -371 q 536 -412 536 -390 l 536 -460 q 546 -492 536 -482 q 578 -503 556 -503 l 669 -503 m 764 -183 l 764 -318 q 734 -410 764 -382 q 649 -437 704 -437 l 600 -437 l 600 -424 l 649 -424 q 724 -399 699 -424 q 750 -318 750 -374 l 750 -197 l 600 -197 l 600 -183 l 764 -183 z "},"Ň":{"ha":1185,"x_min":63,"x_max":1124,"o":"m 711 1294 q 668 1289 688 1289 q 625 1294 649 1289 l 435 1350 q 388 1353 399 1361 q 376 1307 376 1344 l 376 1194 q 388 1146 376 1157 q 435 1121 400 1135 l 625 1051 q 646 1046 635 1047 q 669 1044 657 1044 q 697 1049 682 1046 q 724 1057 711 1051 l 901 1121 q 947 1146 935 1135 q 958 1194 958 1157 l 958 1307 q 947 1353 958 1344 q 901 1350 936 1361 l 711 1294 m 501 1221 l 622 1182 q 642 1176 632 1179 q 667 1174 653 1174 q 691 1176 681 1174 q 711 1182 701 1179 l 832 1221 l 832 1206 l 717 1168 q 693 1163 704 1165 q 667 1160 682 1160 q 640 1163 651 1160 q 617 1168 629 1165 l 501 1206 l 501 1221 m 439 864 l 950 289 l 950 875 l 964 875 l 964 125 l 950 125 l 950 268 l 425 857 q 422 860 424 858 q 418 861 419 861 q 416 860 417 861 q 415 857 415 858 l 415 125 l 401 125 l 401 860 q 407 872 401 868 q 418 876 413 876 q 428 874 424 876 q 439 864 432 871 m 514 0 q 552 12 540 0 q 564 50 564 24 l 564 508 l 801 221 l 801 50 q 813 12 801 24 q 851 0 825 0 l 1060 0 q 1098 12 1086 0 q 1110 50 1110 24 l 1110 950 q 1098 988 1110 976 q 1060 1000 1086 1000 l 851 1000 q 813 988 825 1000 q 801 950 801 976 l 801 654 l 532 963 q 495 992 514 983 q 450 1000 476 1000 l 306 1000 q 267 988 279 1000 q 256 950 256 976 l 256 50 q 267 12 256 24 q 306 0 279 0 l 514 0 m 378 -151 q 360 -161 372 -157 q 335 -165 349 -165 l 126 -165 q 78 -150 93 -165 q 63 -101 63 -135 l 63 799 q 67 829 63 817 q 82 850 72 842 l 222 968 q 191 993 199 978 q 183 1043 183 1008 l 183 1156 q 187 1193 183 1179 q 199 1213 190 1207 l 378 1364 q 399 1370 385 1369 q 439 1364 414 1371 l 629 1308 q 668 1303 651 1303 q 707 1308 685 1303 l 897 1364 q 958 1367 943 1378 q 972 1307 972 1357 l 972 1194 q 967 1154 972 1168 q 950 1131 961 1140 l 771 979 q 752 968 763 974 q 728 957 742 963 l 596 910 l 639 861 l 807 1001 q 826 1010 814 1007 q 851 1014 838 1014 l 1060 1014 q 1108 999 1093 1014 q 1124 950 1124 983 l 1124 50 q 1119 19 1124 32 q 1104 -1 1114 7 l 924 -151 q 906 -161 918 -157 q 881 -165 894 -165 l 672 -165 q 624 -150 639 -165 q 608 -101 608 -135 l 608 64 l 578 101 l 578 50 q 573 19 578 32 q 558 -1 568 7 l 378 -151 z "},"O":{"ha":1163,"x_min":47,"x_max":1117,"o":"m 854 -99 q 718 -163 806 -140 q 493 -186 631 -186 q 270 -158 357 -186 q 134 -82 183 -129 q 66 26 85 -35 q 47 153 47 88 l 47 585 q 65 703 47 649 q 131 797 83 758 l 311 947 q 447 1012 360 989 q 672 1035 533 1035 q 895 1013 808 1035 q 1031 951 982 990 q 1099 856 1081 911 q 1117 736 1117 801 l 1117 263 q 1099 144 1117 199 q 1033 51 1081 90 l 854 -99 m 1103 263 l 1103 736 q 1084 852 1103 800 q 1017 942 1065 904 q 885 1000 969 979 q 672 1021 801 1021 q 458 1000 543 1021 q 326 942 374 979 q 259 852 278 904 q 240 736 240 800 l 240 263 q 259 147 240 199 q 326 58 278 94 q 458 0 374 21 q 672 -21 543 -21 q 885 0 801 -21 q 1017 58 969 21 q 1084 147 1065 94 q 1103 263 1103 199 m 951 294 q 892 159 951 211 q 669 107 832 107 q 449 159 507 107 q 390 294 390 211 l 390 704 q 449 840 390 788 q 669 892 507 892 q 892 840 832 892 q 951 704 951 788 l 951 294 m 404 294 q 460 169 404 217 q 669 121 515 121 q 881 169 824 121 q 938 294 938 217 l 938 704 q 881 830 938 782 q 669 878 824 878 q 460 830 515 878 q 404 704 404 782 l 404 294 m 556 313 l 556 686 q 576 731 556 713 q 672 750 597 750 q 768 731 747 750 q 789 686 789 713 l 789 313 q 768 266 789 285 q 672 247 747 247 q 576 266 597 247 q 556 313 556 285 m 569 313 q 575 288 569 299 q 596 271 581 278 l 596 535 q 590 559 596 549 q 569 575 585 569 l 569 313 z "},"Ò":{"ha":1163,"x_min":47,"x_max":1117,"o":"m 493 -186 q 270 -158 357 -186 q 134 -82 183 -129 q 66 26 85 -35 q 47 153 47 88 l 47 585 q 65 703 47 649 q 131 797 83 758 l 296 935 l 249 940 q 201 958 215 944 q 186 1004 186 972 l 186 1138 q 191 1167 186 1156 q 206 1188 196 1179 l 385 1339 q 403 1347 393 1344 q 428 1349 414 1350 l 913 1289 q 960 1271 946 1285 q 975 1225 975 1257 l 975 1092 q 970 1062 975 1074 q 956 1042 965 1050 l 915 1007 q 1076 901 1035 972 q 1117 736 1117 831 l 1117 263 q 1099 144 1117 199 q 1033 51 1081 90 l 854 -99 q 718 -163 806 -140 q 493 -186 631 -186 m 914 1046 q 949 1056 938 1043 q 961 1092 961 1068 l 961 1225 q 949 1262 961 1251 q 911 1275 938 1272 l 426 1335 q 391 1325 403 1338 q 379 1289 379 1313 l 379 1156 q 391 1119 379 1129 q 429 1106 403 1108 l 914 1046 m 504 1204 l 504 1218 l 836 1176 l 836 1163 l 504 1204 m 1103 263 l 1103 736 q 1084 852 1103 800 q 1017 942 1065 904 q 885 1000 969 979 q 672 1021 801 1021 q 458 1000 543 1021 q 326 942 374 979 q 259 852 278 904 q 240 736 240 800 l 240 263 q 259 147 240 199 q 326 58 278 94 q 458 0 374 21 q 672 -21 543 -21 q 885 0 801 -21 q 1017 58 969 21 q 1084 147 1065 94 q 1103 263 1103 199 m 951 294 q 892 159 951 211 q 669 107 832 107 q 449 159 507 107 q 390 294 390 211 l 390 704 q 449 840 390 788 q 669 892 507 892 q 892 840 832 892 q 951 704 951 788 l 951 294 m 404 294 q 460 169 404 217 q 669 121 515 121 q 881 169 824 121 q 938 294 938 217 l 938 704 q 881 830 938 782 q 669 878 824 878 q 460 830 515 878 q 404 704 404 782 l 404 294 m 556 313 l 556 686 q 576 731 556 713 q 672 750 597 750 q 768 731 747 750 q 789 686 789 713 l 789 313 q 768 266 789 285 q 672 247 747 247 q 576 266 597 247 q 556 313 556 285 m 569 313 q 575 288 569 299 q 596 271 581 278 l 596 535 q 590 559 596 549 q 569 575 585 569 l 569 313 z "},"Ó":{"ha":1163,"x_min":47,"x_max":1117,"o":"m 493 -186 q 270 -158 357 -186 q 134 -82 183 -129 q 66 26 85 -35 q 47 153 47 88 l 47 585 q 65 703 47 649 q 131 797 83 758 l 231 881 q 197 898 208 882 q 186 940 186 914 l 186 1074 q 191 1103 186 1092 q 204 1122 196 1115 l 385 1274 q 402 1283 390 1279 q 428 1289 414 1288 l 913 1349 q 959 1337 943 1353 q 975 1289 975 1321 l 975 1156 q 970 1125 975 1138 q 956 1107 965 1113 l 854 1021 q 983 981 932 1007 q 1064 917 1035 954 q 1105 835 1093 881 q 1117 736 1117 789 l 1117 263 q 1099 144 1117 199 q 1033 51 1081 90 l 854 -99 q 718 -163 806 -140 q 493 -186 631 -186 m 911 1106 q 949 1119 938 1108 q 961 1156 961 1129 l 961 1289 q 949 1325 961 1313 q 914 1335 938 1338 l 429 1275 q 391 1262 403 1272 q 379 1225 379 1251 l 379 1092 q 391 1056 379 1068 q 426 1046 403 1043 l 911 1106 m 504 1176 l 836 1218 l 836 1204 l 504 1163 l 504 1176 m 1103 263 l 1103 736 q 1084 852 1103 800 q 1017 942 1065 904 q 885 1000 969 979 q 672 1021 801 1021 q 458 1000 543 1021 q 326 942 374 979 q 259 852 278 904 q 240 736 240 800 l 240 263 q 259 147 240 199 q 326 58 278 94 q 458 0 374 21 q 672 -21 543 -21 q 885 0 801 -21 q 1017 58 969 21 q 1084 147 1065 94 q 1103 263 1103 199 m 951 294 q 892 159 951 211 q 669 107 832 107 q 449 159 507 107 q 390 294 390 211 l 390 704 q 449 840 390 788 q 669 892 507 892 q 892 840 832 892 q 951 704 951 788 l 951 294 m 404 294 q 460 169 404 217 q 669 121 515 121 q 881 169 824 121 q 938 294 938 217 l 938 704 q 881 830 938 782 q 669 878 824 878 q 460 830 515 878 q 404 704 404 782 l 404 294 m 556 313 l 556 686 q 576 731 556 713 q 672 750 597 750 q 768 731 747 750 q 789 686 789 713 l 789 313 q 768 266 789 285 q 672 247 747 247 q 576 266 597 247 q 556 313 556 285 m 569 313 q 575 288 569 299 q 596 271 581 278 l 596 535 q 590 559 596 549 q 569 575 585 569 l 569 313 z "},"Ô":{"ha":1163,"x_min":47,"x_max":1117,"o":"m 493 -186 q 270 -158 357 -186 q 134 -82 183 -129 q 66 26 85 -35 q 47 153 47 88 l 47 585 q 65 703 47 649 q 131 797 83 758 l 228 878 q 194 890 203 875 q 186 943 186 904 l 186 1056 q 191 1096 186 1082 q 206 1119 196 1110 l 388 1271 l 386 1269 q 405 1282 393 1276 q 432 1293 417 1288 l 608 1357 q 638 1366 622 1363 q 668 1371 654 1369 q 694 1369 682 1371 q 717 1363 707 1368 l 908 1293 q 963 1264 950 1278 q 975 1207 975 1250 l 975 1094 q 971 1058 975 1072 q 961 1039 967 1044 l 960 1038 l 921 1006 q 1077 900 1038 971 q 1117 736 1117 829 l 1117 263 q 1099 144 1117 199 q 1033 51 1081 90 l 854 -99 q 718 -163 806 -140 q 493 -186 631 -186 m 835 1181 l 714 1219 q 694 1225 704 1222 q 669 1228 683 1228 q 645 1225 656 1228 q 625 1219 635 1222 l 504 1181 l 504 1196 l 619 1233 q 643 1239 632 1236 q 669 1242 654 1242 q 696 1239 685 1242 q 719 1233 707 1236 l 835 1196 l 835 1181 m 626 1107 q 669 1113 650 1113 q 713 1107 689 1113 l 903 1051 q 950 1049 939 1040 q 961 1094 961 1057 l 961 1207 q 949 1256 961 1244 q 903 1281 938 1267 l 713 1350 q 692 1356 703 1354 q 668 1357 681 1357 q 641 1353 656 1356 q 614 1344 626 1350 l 436 1281 q 391 1256 403 1267 q 379 1207 379 1244 l 379 1094 q 390 1049 379 1057 q 436 1051 401 1040 l 626 1107 m 1103 263 l 1103 736 q 1084 852 1103 800 q 1017 942 1065 904 q 885 1000 969 979 q 672 1021 801 1021 q 458 1000 543 1021 q 326 942 374 979 q 259 852 278 904 q 240 736 240 800 l 240 263 q 259 147 240 199 q 326 58 278 94 q 458 0 374 21 q 672 -21 543 -21 q 885 0 801 -21 q 1017 58 969 21 q 1084 147 1065 94 q 1103 263 1103 199 m 951 294 q 892 159 951 211 q 669 107 832 107 q 449 159 507 107 q 390 294 390 211 l 390 704 q 449 840 390 788 q 669 892 507 892 q 892 840 832 892 q 951 704 951 788 l 951 294 m 404 294 q 460 169 404 217 q 669 121 515 121 q 881 169 824 121 q 938 294 938 217 l 938 704 q 881 830 938 782 q 669 878 824 878 q 460 830 515 878 q 404 704 404 782 l 404 294 m 556 313 l 556 686 q 576 731 556 713 q 672 750 597 750 q 768 731 747 750 q 789 686 789 713 l 789 313 q 768 266 789 285 q 672 247 747 247 q 576 266 597 247 q 556 313 556 285 m 569 313 q 575 288 569 299 q 596 271 581 278 l 596 535 q 590 559 596 549 q 569 575 585 569 l 569 313 z "},"Õ":{"ha":1163,"x_min":47,"x_max":1117,"o":"m 493 -186 q 270 -158 357 -186 q 134 -82 183 -129 q 66 26 85 -35 q 47 153 47 88 l 47 585 q 65 703 47 649 q 131 797 83 758 l 236 885 q 199 895 211 882 q 186 939 186 908 l 186 1079 q 191 1109 186 1097 q 207 1131 196 1121 l 386 1281 q 402 1291 392 1286 q 424 1300 413 1296 l 425 1300 l 425 1301 q 481 1316 458 1311 q 527 1321 504 1321 q 577 1317 550 1321 q 647 1308 604 1314 l 671 1306 l 701 1301 q 772 1292 746 1294 q 818 1290 799 1289 q 857 1297 838 1292 q 906 1313 876 1303 q 957 1310 940 1322 q 974 1263 974 1297 l 974 1122 q 968 1092 974 1104 q 953 1072 963 1081 l 885 1015 q 1069 910 1022 985 q 1117 736 1117 836 l 1117 263 q 1099 144 1117 199 q 1033 51 1081 90 l 854 -99 q 718 -163 806 -140 q 493 -186 631 -186 m 669 1061 l 692 1058 q 760 1049 733 1053 q 810 1046 788 1046 q 854 1051 832 1046 q 910 1065 876 1056 q 947 1085 933 1075 q 960 1122 960 1096 l 960 1263 q 947 1297 960 1289 q 910 1299 935 1306 q 860 1283 879 1289 q 820 1276 840 1278 q 773 1278 800 1275 q 700 1288 746 1281 l 669 1292 l 646 1294 q 577 1303 604 1300 q 528 1307 550 1307 q 485 1302 507 1307 q 429 1288 463 1297 q 392 1267 406 1278 q 379 1231 379 1257 l 379 1090 q 392 1056 379 1064 q 429 1054 404 1047 q 477 1067 457 1063 q 518 1074 497 1072 q 565 1074 539 1076 q 631 1067 592 1072 l 669 1061 m 835 1168 l 835 1154 q 775 1154 807 1151 q 690 1165 743 1157 l 668 1168 l 629 1174 q 555 1182 583 1181 q 504 1179 526 1183 l 504 1194 q 556 1195 528 1197 q 632 1188 585 1193 l 671 1182 l 693 1179 q 776 1168 746 1171 q 835 1168 807 1165 m 1103 263 l 1103 736 q 1084 852 1103 800 q 1017 942 1065 904 q 885 1000 969 979 q 672 1021 801 1021 q 458 1000 543 1021 q 326 942 374 979 q 259 852 278 904 q 240 736 240 800 l 240 263 q 259 147 240 199 q 326 58 278 94 q 458 0 374 21 q 672 -21 543 -21 q 885 0 801 -21 q 1017 58 969 21 q 1084 147 1065 94 q 1103 263 1103 199 m 951 294 q 892 159 951 211 q 669 107 832 107 q 449 159 507 107 q 390 294 390 211 l 390 704 q 449 840 390 788 q 669 892 507 892 q 892 840 832 892 q 951 704 951 788 l 951 294 m 404 294 q 460 169 404 217 q 669 121 515 121 q 881 169 824 121 q 938 294 938 217 l 938 704 q 881 830 938 782 q 669 878 824 878 q 460 830 515 878 q 404 704 404 782 l 404 294 m 556 313 l 556 686 q 576 731 556 713 q 672 750 597 750 q 768 731 747 750 q 789 686 789 713 l 789 313 q 768 266 789 285 q 672 247 747 247 q 576 266 597 247 q 556 313 556 285 m 569 313 q 575 288 569 299 q 596 271 581 278 l 596 535 q 590 559 596 549 q 569 575 585 569 l 569 313 z "},"Ö":{"ha":1163,"x_min":47,"x_max":1117,"o":"m 493 -186 q 270 -158 357 -186 q 134 -82 183 -129 q 66 26 85 -35 q 47 153 47 88 l 47 585 q 65 703 47 649 q 131 797 83 758 l 243 890 l 214 890 q 168 905 183 890 q 153 950 153 919 l 153 1118 q 158 1147 153 1136 q 171 1165 163 1158 l 350 1317 q 368 1326 357 1322 q 393 1329 379 1329 l 585 1329 q 630 1315 615 1329 q 644 1269 644 1300 l 644 1261 l 710 1317 q 727 1326 717 1322 q 751 1329 738 1329 l 943 1329 q 988 1315 974 1329 q 1003 1269 1003 1300 l 1003 1101 q 998 1073 1003 1085 q 985 1054 993 1061 l 925 1004 q 1077 899 1038 969 q 1117 736 1117 828 l 1117 263 q 1099 144 1117 199 q 1033 51 1081 90 l 854 -99 q 718 -163 806 -140 q 493 -186 631 -186 m 943 1056 q 978 1067 967 1056 q 989 1101 989 1078 l 989 1269 q 978 1304 989 1293 q 943 1315 967 1315 l 751 1315 q 717 1304 728 1315 q 706 1269 706 1293 l 706 1101 q 717 1067 706 1078 q 751 1056 728 1056 l 943 1056 m 585 1056 q 619 1067 608 1056 q 631 1101 631 1078 l 631 1269 q 619 1304 631 1293 q 585 1315 608 1315 l 393 1315 q 358 1304 369 1315 q 346 1269 346 1293 l 346 1101 q 358 1067 346 1078 q 393 1056 369 1056 l 585 1056 m 854 1153 l 840 1153 l 840 1218 l 854 1218 l 854 1153 m 496 1153 l 482 1153 l 482 1218 l 496 1218 l 496 1153 m 1103 263 l 1103 736 q 1084 852 1103 800 q 1017 942 1065 904 q 885 1000 969 979 q 672 1021 801 1021 q 458 1000 543 1021 q 326 942 374 979 q 259 852 278 904 q 240 736 240 800 l 240 263 q 259 147 240 199 q 326 58 278 94 q 458 0 374 21 q 672 -21 543 -21 q 885 0 801 -21 q 1017 58 969 21 q 1084 147 1065 94 q 1103 263 1103 199 m 951 294 q 892 159 951 211 q 669 107 832 107 q 449 159 507 107 q 390 294 390 211 l 390 704 q 449 840 390 788 q 669 892 507 892 q 892 840 832 892 q 951 704 951 788 l 951 294 m 404 294 q 460 169 404 217 q 669 121 515 121 q 881 169 824 121 q 938 294 938 217 l 938 704 q 881 830 938 782 q 669 878 824 878 q 460 830 515 878 q 404 704 404 782 l 404 294 m 556 313 l 556 686 q 576 731 556 713 q 672 750 597 750 q 768 731 747 750 q 789 686 789 713 l 789 313 q 768 266 789 285 q 672 247 747 247 q 576 266 597 247 q 556 313 556 285 m 569 313 q 575 288 569 299 q 596 271 581 278 l 596 535 q 590 559 596 549 q 569 575 585 569 l 569 313 z "},"Ō":{"ha":1163,"x_min":47,"x_max":1117,"o":"m 493 -186 q 270 -158 357 -186 q 134 -82 183 -129 q 66 26 85 -35 q 47 153 47 88 l 47 585 q 65 703 47 649 q 131 797 83 758 l 243 890 q 199 908 213 892 q 186 954 186 924 l 186 1083 q 191 1114 186 1101 q 206 1135 196 1126 l 385 1286 q 403 1295 392 1292 q 429 1299 415 1299 l 911 1299 q 960 1283 944 1299 q 975 1235 975 1268 l 975 1106 q 970 1075 975 1088 q 956 1054 965 1063 l 904 1011 q 1073 905 1029 978 q 1117 736 1117 832 l 1117 263 q 1099 144 1117 199 q 1033 51 1081 90 l 854 -99 q 718 -163 806 -140 q 493 -186 631 -186 m 911 1056 q 949 1067 938 1056 q 961 1106 961 1079 l 961 1235 q 949 1273 961 1261 q 911 1285 938 1285 l 429 1285 q 391 1273 403 1285 q 379 1235 379 1261 l 379 1106 q 391 1067 379 1079 q 429 1056 403 1056 l 911 1056 m 504 1176 l 836 1176 l 836 1163 l 504 1163 l 504 1176 m 1103 263 l 1103 736 q 1084 852 1103 800 q 1017 942 1065 904 q 885 1000 969 979 q 672 1021 801 1021 q 458 1000 543 1021 q 326 942 374 979 q 259 852 278 904 q 240 736 240 800 l 240 263 q 259 147 240 199 q 326 58 278 94 q 458 0 374 21 q 672 -21 543 -21 q 885 0 801 -21 q 1017 58 969 21 q 1084 147 1065 94 q 1103 263 1103 199 m 951 294 q 892 159 951 211 q 669 107 832 107 q 449 159 507 107 q 390 294 390 211 l 390 704 q 449 840 390 788 q 669 892 507 892 q 892 840 832 892 q 951 704 951 788 l 951 294 m 404 294 q 460 169 404 217 q 669 121 515 121 q 881 169 824 121 q 938 294 938 217 l 938 704 q 881 830 938 782 q 669 878 824 878 q 460 830 515 878 q 404 704 404 782 l 404 294 m 556 313 l 556 686 q 576 731 556 713 q 672 750 597 750 q 768 731 747 750 q 789 686 789 713 l 789 313 q 768 266 789 285 q 672 247 747 247 q 576 266 597 247 q 556 313 556 285 m 569 313 q 575 288 569 299 q 596 271 581 278 l 596 535 q 590 559 596 549 q 569 575 585 569 l 569 313 z "},"Ŏ":{"ha":1163,"x_min":47,"x_max":1117,"o":"m 493 -186 q 270 -158 357 -186 q 134 -82 183 -129 q 66 26 85 -35 q 47 153 47 88 l 47 585 q 65 703 47 649 q 131 797 83 758 l 276 918 q 197 991 218 944 q 176 1094 176 1038 l 176 1156 q 181 1186 176 1174 q 196 1207 186 1199 l 375 1358 q 394 1367 382 1364 q 419 1371 406 1371 l 553 1371 q 594 1359 582 1371 q 607 1314 607 1347 l 607 1285 q 613 1267 607 1275 q 632 1257 618 1260 l 757 1361 l 756 1360 q 771 1368 761 1365 q 796 1371 781 1371 l 922 1371 q 971 1356 956 1371 q 986 1307 986 1340 l 986 1246 q 973 1161 986 1200 q 925 1094 960 1122 l 840 1024 q 977 985 924 1011 q 1062 922 1031 958 q 1105 838 1093 885 q 1117 736 1117 790 l 1117 263 q 1099 144 1117 199 q 1033 51 1081 90 l 854 -99 q 718 -163 806 -140 q 493 -186 631 -186 m 972 1246 l 972 1307 q 960 1345 972 1333 q 922 1357 949 1357 l 796 1357 q 763 1348 772 1357 q 754 1314 754 1339 l 754 1285 q 739 1252 754 1265 q 672 1239 724 1239 q 607 1252 621 1239 q 593 1285 593 1265 l 593 1314 q 584 1348 593 1339 q 553 1357 575 1357 l 419 1357 q 381 1345 393 1357 q 369 1307 369 1333 l 369 1246 q 383 1165 369 1201 q 430 1102 396 1128 q 522 1062 464 1076 q 671 1047 581 1047 q 819 1062 761 1047 q 912 1102 878 1076 q 959 1165 946 1128 q 972 1246 972 1201 m 857 1260 l 871 1260 l 871 1247 q 863 1208 871 1228 q 835 1172 856 1188 q 774 1146 814 1156 q 669 1136 733 1136 q 567 1146 606 1136 q 508 1172 528 1156 q 481 1208 488 1188 q 475 1247 475 1228 l 475 1260 l 489 1260 l 489 1247 q 523 1180 489 1210 q 669 1150 557 1150 q 819 1180 782 1150 q 857 1247 857 1210 l 857 1260 m 1103 263 l 1103 736 q 1084 852 1103 800 q 1017 942 1065 904 q 885 1000 969 979 q 672 1021 801 1021 q 458 1000 543 1021 q 326 942 374 979 q 259 852 278 904 q 240 736 240 800 l 240 263 q 259 147 240 199 q 326 58 278 94 q 458 0 374 21 q 672 -21 543 -21 q 885 0 801 -21 q 1017 58 969 21 q 1084 147 1065 94 q 1103 263 1103 199 m 951 294 q 892 159 951 211 q 669 107 832 107 q 449 159 507 107 q 390 294 390 211 l 390 704 q 449 840 390 788 q 669 892 507 892 q 892 840 832 892 q 951 704 951 788 l 951 294 m 404 294 q 460 169 404 217 q 669 121 515 121 q 881 169 824 121 q 938 294 938 217 l 938 704 q 881 830 938 782 q 669 878 824 878 q 460 830 515 878 q 404 704 404 782 l 404 294 m 556 313 l 556 686 q 576 731 556 713 q 672 750 597 750 q 768 731 747 750 q 789 686 789 713 l 789 313 q 768 266 789 285 q 672 247 747 247 q 576 266 597 247 q 556 313 556 285 m 569 313 q 575 288 569 299 q 596 271 581 278 l 596 535 q 590 559 596 549 q 569 575 585 569 l 569 313 z "},"Ő":{"ha":1163,"x_min":47,"x_max":1117,"o":"m 493 -186 q 270 -158 357 -186 q 134 -82 183 -129 q 66 26 85 -35 q 47 153 47 88 l 47 585 q 65 703 47 649 q 131 797 83 758 l 243 890 l 232 890 q 182 908 199 890 q 172 954 165 925 l 246 1242 q 255 1272 250 1260 q 269 1292 260 1283 l 450 1443 q 465 1451 456 1449 q 489 1454 475 1454 l 636 1454 q 687 1437 669 1454 q 696 1390 704 1419 l 682 1335 l 811 1443 q 826 1451 817 1449 q 850 1454 836 1454 l 997 1454 q 1048 1437 1031 1454 q 1057 1390 1065 1419 l 983 1103 q 974 1073 979 1085 q 960 1053 968 1061 l 908 1010 q 1074 903 1032 975 q 1117 736 1117 832 l 1117 263 q 1099 144 1117 199 q 1033 51 1081 90 l 854 -99 q 718 -163 806 -140 q 493 -186 631 -186 m 726 1103 q 735 1068 721 1081 q 772 1056 749 1056 l 919 1056 q 955 1068 946 1056 q 969 1106 964 1081 l 1043 1393 q 1035 1428 1049 1415 q 997 1440 1021 1440 l 850 1440 q 815 1428 824 1440 q 800 1390 806 1415 l 726 1103 m 365 1103 q 374 1068 360 1081 q 411 1056 388 1056 l 558 1056 q 594 1068 585 1056 q 608 1106 603 1081 l 682 1393 q 674 1428 688 1415 q 636 1440 660 1440 l 489 1440 q 453 1428 463 1440 q 439 1390 444 1415 l 365 1103 m 514 1181 l 499 1181 l 533 1315 l 549 1315 l 514 1181 m 875 1181 l 860 1181 l 894 1315 l 910 1315 l 875 1181 m 1103 263 l 1103 736 q 1084 852 1103 800 q 1017 942 1065 904 q 885 1000 969 979 q 672 1021 801 1021 q 458 1000 543 1021 q 326 942 374 979 q 259 852 278 904 q 240 736 240 800 l 240 263 q 259 147 240 199 q 326 58 278 94 q 458 0 374 21 q 672 -21 543 -21 q 885 0 801 -21 q 1017 58 969 21 q 1084 147 1065 94 q 1103 263 1103 199 m 951 294 q 892 159 951 211 q 669 107 832 107 q 449 159 507 107 q 390 294 390 211 l 390 704 q 449 840 390 788 q 669 892 507 892 q 892 840 832 892 q 951 704 951 788 l 951 294 m 404 294 q 460 169 404 217 q 669 121 515 121 q 881 169 824 121 q 938 294 938 217 l 938 704 q 881 830 938 782 q 669 878 824 878 q 460 830 515 878 q 404 704 404 782 l 404 294 m 556 313 l 556 686 q 576 731 556 713 q 672 750 597 750 q 768 731 747 750 q 789 686 789 713 l 789 313 q 768 266 789 285 q 672 247 747 247 q 576 266 597 247 q 556 313 556 285 m 569 313 q 575 288 569 299 q 596 271 581 278 l 596 535 q 590 559 596 549 q 569 575 585 569 l 569 313 z "},"P":{"ha":1086,"x_min":63,"x_max":1072,"o":"m 342 -165 l 126 -165 q 78 -150 93 -165 q 63 -101 63 -135 l 63 799 q 67 829 63 817 q 82 850 72 842 l 261 1001 q 280 1010 268 1007 q 306 1014 292 1014 l 731 1014 q 896 993 829 1014 q 1001 935 963 972 q 1056 844 1040 897 q 1072 729 1072 792 l 1072 551 q 1053 430 1072 485 q 989 336 1035 375 l 808 186 q 719 138 774 157 q 585 117 664 119 l 585 50 q 580 19 585 32 q 565 -1 575 7 l 385 -151 q 367 -161 379 -157 q 342 -165 356 -165 m 521 0 q 559 12 547 0 q 571 50 571 24 l 571 281 l 731 281 q 989 356 919 281 q 1058 551 1058 431 l 1058 729 q 989 925 1058 850 q 731 1000 919 1000 l 306 1000 q 267 988 279 1000 q 256 950 256 976 l 256 50 q 267 12 256 24 q 306 0 279 0 l 521 0 m 711 399 l 425 399 l 425 125 l 411 125 l 411 875 l 711 875 q 817 860 776 875 q 881 821 858 846 q 911 761 903 796 q 919 686 919 726 l 919 583 q 911 509 919 543 q 881 451 903 475 q 817 413 858 426 q 711 399 776 399 m 425 413 l 711 413 q 810 425 772 413 q 869 460 849 438 q 898 515 890 483 q 906 583 906 546 l 906 686 q 898 756 906 724 q 869 811 890 788 q 810 848 849 835 q 711 861 772 861 l 425 861 l 425 413 m 568 740 l 693 740 q 746 719 733 740 q 758 672 758 699 l 758 599 q 746 551 758 572 q 693 531 733 531 l 568 531 l 568 740 z "},"Q":{"ha":1163,"x_min":47,"x_max":1117,"o":"m 599 -290 l 385 -290 q 336 -275 351 -290 q 321 -226 321 -260 l 321 -162 q 187 -116 240 -149 q 103 -39 133 -83 q 60 58 72 6 q 47 165 47 111 l 47 585 q 65 703 47 649 q 131 797 83 758 l 311 947 q 447 1012 360 989 q 672 1035 533 1035 q 895 1013 808 1035 q 1031 951 982 990 q 1099 856 1081 911 q 1117 736 1117 801 l 1117 275 q 1099 157 1117 211 q 1033 64 1081 103 l 854 -86 q 847 -92 850 -89 q 839 -97 843 -96 q 833 -114 838 -107 q 822 -126 828 -121 l 642 -276 q 624 -286 636 -282 q 599 -290 613 -290 m 778 -125 q 816 -113 804 -125 q 828 -75 828 -101 l 828 1 q 963 38 910 13 q 1047 97 1017 63 q 1090 177 1078 132 q 1103 275 1103 222 l 1103 736 q 1084 852 1103 800 q 1017 942 1065 904 q 885 1000 969 979 q 672 1021 801 1021 q 458 1000 543 1021 q 326 942 374 979 q 259 852 278 904 q 240 736 240 800 l 240 275 q 297 98 240 171 q 514 1 353 25 l 514 -75 q 526 -113 514 -101 q 564 -125 538 -125 l 778 -125 m 663 0 l 663 107 q 447 160 504 108 q 390 294 390 211 l 390 704 q 449 840 390 788 q 669 892 507 892 q 892 840 832 892 q 951 704 951 788 l 951 294 q 893 160 951 211 q 676 107 835 108 l 676 0 l 663 0 m 404 294 q 460 169 404 217 q 669 121 515 121 q 881 169 824 121 q 938 294 938 217 l 938 704 q 881 830 938 782 q 669 878 824 878 q 460 830 515 878 q 404 704 404 782 l 404 294 m 556 306 l 556 685 q 576 730 556 711 q 672 749 597 749 q 768 730 747 749 q 789 685 789 711 l 789 306 q 768 259 789 278 q 672 240 747 240 q 576 259 597 240 q 556 306 556 278 m 569 306 q 575 281 569 292 q 596 264 581 271 l 596 533 q 590 558 596 547 q 569 574 585 568 l 569 306 z "},"R":{"ha":1171,"x_min":63,"x_max":1146,"o":"m 722 861 l 419 861 l 419 460 l 722 460 q 838 501 808 460 q 867 619 867 543 l 867 717 q 831 821 867 781 q 722 861 796 861 m 569 750 l 674 750 q 722 731 710 750 q 735 685 735 713 l 735 638 q 722 591 735 610 q 674 572 710 572 l 569 572 l 569 750 m 419 125 l 406 125 l 406 875 l 722 875 q 842 830 803 875 q 881 717 881 785 l 881 621 q 864 516 881 557 q 797 460 847 475 l 813 460 q 939 422 897 460 q 981 311 981 383 l 981 125 l 967 125 l 967 311 q 929 413 967 379 q 813 447 892 447 l 419 447 l 419 125 m 519 0 q 558 12 546 0 q 569 50 569 24 l 569 322 l 764 322 q 805 308 793 322 q 817 263 817 293 l 817 50 q 828 12 817 24 q 867 0 840 0 l 1082 0 q 1120 12 1108 0 q 1132 50 1132 24 l 1132 344 q 1085 485 1132 432 q 964 546 1039 538 q 1024 605 1007 564 q 1042 704 1042 646 l 1042 768 q 983 935 1042 871 q 768 1000 924 1000 l 306 1000 q 267 988 279 1000 q 256 950 256 976 l 256 50 q 267 12 256 24 q 306 0 279 0 l 519 0 m 564 -1 l 383 -151 q 366 -161 378 -157 q 340 -165 354 -165 l 126 -165 q 78 -150 93 -165 q 63 -101 63 -135 l 63 799 q 67 829 63 817 q 82 850 72 842 l 261 1001 q 280 1010 268 1007 q 306 1014 292 1014 l 768 1014 q 994 945 933 1014 q 1056 768 1056 876 l 1056 704 q 1043 615 1056 653 q 1003 553 1031 576 l 1001 553 q 1106 481 1067 535 q 1146 344 1146 426 l 1146 50 q 1141 19 1146 32 q 1126 -1 1136 7 l 946 -151 q 928 -161 940 -157 q 903 -165 917 -165 l 688 -165 q 639 -150 654 -165 q 624 -101 624 -135 l 624 111 q 615 145 624 133 q 585 157 607 157 l 583 157 l 583 50 q 578 19 583 32 q 564 -1 574 7 z "},"Ŕ":{"ha":1171,"x_min":63,"x_max":1146,"o":"m 901 1106 q 940 1119 928 1108 q 951 1156 951 1129 l 951 1289 q 940 1325 951 1313 q 904 1335 928 1338 l 419 1275 q 381 1262 393 1272 q 369 1225 369 1251 l 369 1092 q 381 1056 369 1068 q 417 1046 393 1043 l 901 1106 m 494 1176 l 826 1218 l 826 1204 l 494 1163 l 494 1176 m 722 861 l 419 861 l 419 460 l 722 460 q 838 501 808 460 q 867 619 867 543 l 867 717 q 831 821 867 781 q 722 861 796 861 m 569 750 l 674 750 q 722 731 710 750 q 735 685 735 713 l 735 638 q 722 591 735 610 q 674 572 710 572 l 569 572 l 569 750 m 419 125 l 406 125 l 406 875 l 722 875 q 842 830 803 875 q 881 717 881 785 l 881 621 q 864 516 881 557 q 797 460 847 475 l 813 460 q 939 422 897 460 q 981 311 981 383 l 981 125 l 967 125 l 967 311 q 929 413 967 379 q 813 447 892 447 l 419 447 l 419 125 m 519 0 q 558 12 546 0 q 569 50 569 24 l 569 322 l 764 322 q 805 308 793 322 q 817 263 817 293 l 817 50 q 828 12 817 24 q 867 0 840 0 l 1082 0 q 1120 12 1108 0 q 1132 50 1132 24 l 1132 344 q 1085 485 1132 432 q 964 546 1039 538 q 1024 605 1007 564 q 1042 704 1042 646 l 1042 768 q 983 935 1042 871 q 768 1000 924 1000 l 306 1000 q 267 988 279 1000 q 256 950 256 976 l 256 50 q 267 12 256 24 q 306 0 279 0 l 519 0 m 383 -151 q 366 -161 378 -157 q 340 -165 354 -165 l 126 -165 q 78 -150 93 -165 q 63 -101 63 -135 l 63 799 q 67 829 63 817 q 82 850 72 842 l 176 931 l 176 1074 q 181 1103 176 1092 q 194 1122 186 1115 l 375 1274 q 392 1283 381 1279 q 418 1289 404 1288 l 903 1349 q 949 1337 933 1353 q 965 1289 965 1321 l 965 1156 q 960 1125 965 1138 q 946 1107 956 1113 l 832 1011 q 1008 931 960 997 q 1056 768 1056 864 l 1056 704 q 1043 615 1056 653 q 1003 553 1031 576 l 1001 553 q 1106 481 1067 535 q 1146 344 1146 426 l 1146 50 q 1141 19 1146 32 q 1126 -1 1136 7 l 946 -151 q 928 -161 940 -157 q 903 -165 917 -165 l 688 -165 q 639 -150 654 -165 q 624 -101 624 -135 l 624 111 q 615 145 624 133 q 585 157 607 157 l 583 157 l 583 50 q 578 19 583 32 q 564 -1 574 7 l 383 -151 z "},"Ŗ":{"ha":1171,"x_min":63,"x_max":1146,"o":"m 625 -628 q 569 -658 601 -647 q 497 -668 536 -668 l 406 -668 q 363 -655 376 -668 q 350 -611 350 -642 l 350 -564 q 354 -535 350 -546 q 367 -519 358 -525 l 408 -485 l 400 -485 q 349 -470 364 -485 q 335 -417 335 -456 l 335 -265 q 339 -230 335 -243 q 353 -208 343 -217 l 533 -58 l 532 -60 q 549 -50 538 -54 q 579 -46 561 -46 l 624 -46 l 624 111 q 615 145 624 133 q 585 157 607 157 l 583 157 l 583 50 q 578 19 583 32 q 564 -1 574 7 l 383 -151 q 366 -161 378 -157 q 340 -165 354 -165 l 126 -165 q 78 -150 93 -165 q 63 -101 63 -135 l 63 799 q 67 829 63 817 q 82 850 72 842 l 261 1001 q 280 1010 268 1007 q 306 1014 292 1014 l 768 1014 q 994 945 933 1014 q 1056 768 1056 876 l 1056 704 q 1043 615 1056 653 q 1003 553 1031 576 l 1001 553 q 1106 481 1067 535 q 1146 344 1146 426 l 1146 50 q 1141 19 1146 32 q 1126 -1 1136 7 l 946 -151 q 928 -161 940 -157 q 903 -165 917 -165 l 864 -165 l 864 -325 q 848 -415 864 -376 q 804 -476 832 -453 l 625 -628 m 722 861 l 419 861 l 419 460 l 722 460 q 838 501 808 460 q 867 619 867 543 l 867 717 q 831 821 867 781 q 722 861 796 861 m 569 750 l 674 750 q 722 731 710 750 q 735 685 735 713 l 735 638 q 722 591 735 610 q 674 572 710 572 l 569 572 l 569 750 m 419 125 l 406 125 l 406 875 l 722 875 q 842 830 803 875 q 881 717 881 785 l 881 621 q 864 516 881 557 q 797 460 847 475 l 813 460 q 939 422 897 460 q 981 311 981 383 l 981 125 l 967 125 l 967 311 q 929 413 967 379 q 813 447 892 447 l 419 447 l 419 125 m 519 0 q 558 12 546 0 q 569 50 569 24 l 569 322 l 764 322 q 805 308 793 322 q 817 263 817 293 l 817 50 q 828 12 817 24 q 867 0 840 0 l 1082 0 q 1120 12 1108 0 q 1132 50 1132 24 l 1132 344 q 1085 485 1132 432 q 964 546 1039 538 q 1024 605 1007 564 q 1042 704 1042 646 l 1042 768 q 983 935 1042 871 q 768 1000 924 1000 l 306 1000 q 267 988 279 1000 q 256 950 256 976 l 256 50 q 267 12 256 24 q 306 0 279 0 l 519 0 m 676 -503 q 803 -458 756 -503 q 850 -325 850 -414 l 850 -114 q 839 -72 850 -83 q 799 -60 828 -60 l 579 -60 q 539 -72 550 -60 q 528 -114 528 -83 l 528 -265 q 539 -308 528 -296 q 579 -319 550 -319 l 699 -319 l 699 -337 q 690 -362 699 -353 q 667 -371 682 -371 l 585 -371 q 553 -381 563 -371 q 543 -412 543 -390 l 543 -460 q 553 -492 543 -482 q 585 -503 563 -503 l 676 -503 m 771 -183 l 771 -318 q 741 -410 771 -382 q 656 -437 711 -437 l 607 -437 l 607 -424 l 656 -424 q 731 -399 706 -424 q 757 -318 757 -374 l 757 -197 l 607 -197 l 607 -183 l 771 -183 z "},"Ř":{"ha":1171,"x_min":63,"x_max":1146,"o":"m 718 1294 q 675 1289 694 1289 q 632 1294 656 1289 l 442 1350 q 394 1353 406 1361 q 383 1307 383 1344 l 383 1194 q 395 1146 383 1157 q 442 1121 407 1135 l 632 1051 q 653 1046 642 1047 q 676 1044 664 1044 q 703 1049 689 1046 q 731 1057 718 1051 l 908 1121 q 953 1146 942 1135 q 965 1194 965 1157 l 965 1307 q 954 1353 965 1344 q 908 1350 943 1361 l 718 1294 m 508 1221 l 629 1182 q 649 1176 639 1179 q 674 1174 660 1174 q 698 1176 688 1174 q 718 1182 708 1179 l 839 1221 l 839 1206 l 724 1168 q 700 1163 711 1165 q 674 1160 689 1160 q 647 1163 658 1160 q 624 1168 636 1165 l 508 1206 l 508 1221 m 722 861 l 419 861 l 419 460 l 722 460 q 838 501 808 460 q 867 619 867 543 l 867 717 q 831 821 867 781 q 722 861 796 861 m 569 750 l 674 750 q 722 731 710 750 q 735 685 735 713 l 735 638 q 722 591 735 610 q 674 572 710 572 l 569 572 l 569 750 m 419 125 l 406 125 l 406 875 l 722 875 q 842 830 803 875 q 881 717 881 785 l 881 621 q 864 516 881 557 q 797 460 847 475 l 813 460 q 939 422 897 460 q 981 311 981 383 l 981 125 l 967 125 l 967 311 q 929 413 967 379 q 813 447 892 447 l 419 447 l 419 125 m 519 0 q 558 12 546 0 q 569 50 569 24 l 569 322 l 764 322 q 805 308 793 322 q 817 263 817 293 l 817 50 q 828 12 817 24 q 867 0 840 0 l 1082 0 q 1120 12 1108 0 q 1132 50 1132 24 l 1132 344 q 1085 485 1132 432 q 964 546 1039 538 q 1024 605 1007 564 q 1042 704 1042 646 l 1042 768 q 983 935 1042 871 q 768 1000 924 1000 l 306 1000 q 267 988 279 1000 q 256 950 256 976 l 256 50 q 267 12 256 24 q 306 0 279 0 l 519 0 m 383 -151 q 366 -161 378 -157 q 340 -165 354 -165 l 126 -165 q 78 -150 93 -165 q 63 -101 63 -135 l 63 799 q 67 829 63 817 q 82 850 72 842 l 224 969 q 197 995 204 981 q 190 1043 190 1010 l 190 1156 q 194 1193 190 1179 q 206 1213 197 1207 l 385 1364 q 406 1370 392 1369 q 446 1364 421 1371 l 636 1308 q 675 1303 658 1303 q 714 1308 692 1303 l 904 1364 q 965 1367 950 1378 q 979 1307 979 1357 l 979 1194 q 974 1154 979 1168 q 957 1131 968 1140 l 817 1013 q 1004 935 953 1003 q 1056 768 1056 868 l 1056 704 q 1043 615 1056 653 q 1003 553 1031 576 l 1001 553 q 1106 481 1067 535 q 1146 344 1146 426 l 1146 50 q 1141 19 1146 32 q 1126 -1 1136 7 l 946 -151 q 928 -161 940 -157 q 903 -165 917 -165 l 688 -165 q 639 -150 654 -165 q 624 -101 624 -135 l 624 111 q 615 145 624 133 q 585 157 607 157 l 583 157 l 583 50 q 578 19 583 32 q 564 -1 574 7 l 383 -151 z "},"S":{"ha":1042,"x_min":38,"x_max":1021,"o":"m 101 -165 q 53 -150 68 -165 q 38 -101 38 -135 l 38 61 q 42 92 38 79 q 57 113 47 104 l 196 229 q 80 305 122 251 q 38 458 38 358 l 38 604 q 58 715 38 667 q 118 797 79 764 l 299 949 q 392 997 336 979 q 518 1014 447 1014 l 907 1014 q 956 999 940 1014 q 971 950 971 983 l 971 785 q 966 754 971 767 q 951 733 961 742 l 826 629 q 967 556 914 610 q 1021 390 1021 503 l 1021 244 q 1000 133 1021 182 q 939 51 979 85 l 760 -99 q 665 -148 721 -131 q 540 -165 610 -165 l 101 -165 m 719 0 q 930 63 853 0 q 1007 244 1007 126 l 1007 390 q 947 557 1007 507 q 790 621 888 607 l 583 649 q 556 663 565 650 q 546 693 546 675 q 556 723 546 711 q 583 735 565 735 l 907 735 q 945 747 933 735 q 957 785 957 758 l 957 950 q 945 988 957 976 q 907 1000 933 1000 l 518 1000 q 307 937 383 1000 q 231 756 231 874 l 231 610 q 290 443 231 493 q 446 379 349 393 l 654 350 q 681 338 672 349 q 690 303 690 326 q 681 274 690 286 q 654 263 672 263 l 281 263 q 242 251 254 263 q 231 213 231 239 l 231 50 q 242 12 231 24 q 281 0 254 0 l 719 0 m 832 875 l 832 861 l 524 861 q 431 829 465 861 q 396 749 396 797 l 396 635 q 415 567 396 586 q 467 542 435 547 l 760 482 q 828 446 801 474 q 856 346 856 418 l 856 265 q 814 165 856 204 q 701 125 772 125 l 356 125 l 356 139 l 701 139 q 803 174 765 139 q 842 265 842 210 l 842 346 q 819 435 842 411 q 757 468 796 460 l 464 528 q 405 556 428 535 q 382 635 382 578 l 382 749 q 421 840 382 804 q 524 875 460 875 l 832 875 z "},"Ś":{"ha":1042,"x_min":38,"x_max":1021,"o":"m 540 -165 l 101 -165 q 53 -150 68 -165 q 38 -101 38 -135 l 38 61 q 42 92 38 79 q 57 113 47 104 l 196 229 q 80 305 122 251 q 38 458 38 358 l 38 604 q 58 715 38 667 q 118 797 79 764 l 219 883 l 203 881 q 156 892 172 876 q 140 940 140 908 l 140 1074 q 145 1103 140 1092 q 158 1122 150 1115 l 339 1274 q 356 1283 344 1279 q 382 1289 368 1288 l 867 1349 q 913 1337 897 1353 q 929 1289 929 1321 l 929 1156 q 924 1125 929 1138 q 910 1107 919 1113 l 800 1014 l 907 1014 q 956 999 940 1014 q 971 950 971 983 l 971 785 q 966 754 971 767 q 951 733 961 742 l 826 629 q 967 556 914 610 q 1021 390 1021 503 l 1021 244 q 1000 133 1021 182 q 939 51 979 85 l 760 -99 q 665 -148 721 -131 q 540 -165 610 -165 m 865 1106 q 903 1119 892 1108 q 915 1156 915 1129 l 915 1289 q 903 1325 915 1313 q 868 1335 892 1338 l 383 1275 q 345 1262 357 1272 q 333 1225 333 1251 l 333 1092 q 345 1056 333 1068 q 381 1046 357 1043 l 865 1106 m 458 1176 l 790 1218 l 790 1204 l 458 1163 l 458 1176 m 719 0 q 930 63 853 0 q 1007 244 1007 126 l 1007 390 q 947 557 1007 507 q 790 621 888 607 l 583 649 q 556 663 565 650 q 546 693 546 675 q 556 723 546 711 q 583 735 565 735 l 907 735 q 945 747 933 735 q 957 785 957 758 l 957 950 q 945 988 957 976 q 907 1000 933 1000 l 518 1000 q 307 937 383 1000 q 231 756 231 874 l 231 610 q 290 443 231 493 q 446 379 349 393 l 654 350 q 681 338 672 349 q 690 303 690 326 q 681 274 690 286 q 654 263 672 263 l 281 263 q 242 251 254 263 q 231 213 231 239 l 231 50 q 242 12 231 24 q 281 0 254 0 l 719 0 m 832 875 l 832 861 l 524 861 q 431 829 465 861 q 396 749 396 797 l 396 635 q 415 567 396 586 q 467 542 435 547 l 760 482 q 828 446 801 474 q 856 346 856 418 l 856 265 q 814 165 856 204 q 701 125 772 125 l 356 125 l 356 139 l 701 139 q 803 174 765 139 q 842 265 842 210 l 842 346 q 819 435 842 411 q 757 468 796 460 l 464 528 q 405 556 428 535 q 382 635 382 578 l 382 749 q 421 840 382 804 q 524 875 460 875 l 832 875 z "},"Ŝ":{"ha":1042,"x_min":38,"x_max":1021,"o":"m 540 -165 l 101 -165 q 53 -150 68 -165 q 38 -101 38 -135 l 38 61 q 42 92 38 79 q 57 113 47 104 l 196 229 q 80 305 122 251 q 38 458 38 358 l 38 604 q 58 715 38 667 q 118 797 79 764 l 236 896 l 201 886 q 141 883 156 872 q 126 943 126 893 l 126 1056 q 131 1096 126 1082 q 146 1119 136 1110 l 328 1271 l 326 1269 q 345 1282 333 1276 q 372 1293 357 1288 l 549 1357 q 578 1366 563 1363 q 608 1371 594 1369 q 635 1369 622 1371 q 657 1363 647 1368 l 849 1293 q 903 1264 890 1278 q 915 1207 915 1250 l 915 1094 q 911 1058 915 1072 q 901 1039 907 1044 l 900 1038 l 871 1014 l 907 1014 q 956 999 940 1014 q 971 950 971 983 l 971 785 q 966 754 971 767 q 951 733 961 742 l 826 629 q 967 556 914 610 q 1021 390 1021 503 l 1021 244 q 1000 133 1021 182 q 939 51 979 85 l 760 -99 q 665 -148 721 -131 q 540 -165 610 -165 m 775 1181 l 654 1219 q 634 1225 644 1222 q 610 1228 624 1228 q 585 1225 596 1228 q 565 1219 575 1222 l 444 1181 l 444 1196 l 560 1233 q 583 1239 572 1236 q 610 1242 594 1242 q 636 1239 625 1242 q 660 1233 647 1236 l 775 1196 l 775 1181 m 567 1107 q 610 1113 590 1113 q 653 1107 629 1113 l 843 1051 q 890 1049 879 1040 q 901 1094 901 1057 l 901 1207 q 890 1256 901 1244 q 843 1281 878 1267 l 653 1350 q 632 1356 643 1354 q 608 1357 621 1357 q 581 1353 596 1356 q 554 1344 567 1350 l 376 1281 q 331 1256 343 1267 q 319 1207 319 1244 l 319 1094 q 331 1049 319 1057 q 376 1051 342 1040 l 567 1107 m 719 0 q 930 63 853 0 q 1007 244 1007 126 l 1007 390 q 947 557 1007 507 q 790 621 888 607 l 583 649 q 556 663 565 650 q 546 693 546 675 q 556 723 546 711 q 583 735 565 735 l 907 735 q 945 747 933 735 q 957 785 957 758 l 957 950 q 945 988 957 976 q 907 1000 933 1000 l 518 1000 q 307 937 383 1000 q 231 756 231 874 l 231 610 q 290 443 231 493 q 446 379 349 393 l 654 350 q 681 338 672 349 q 690 303 690 326 q 681 274 690 286 q 654 263 672 263 l 281 263 q 242 251 254 263 q 231 213 231 239 l 231 50 q 242 12 231 24 q 281 0 254 0 l 719 0 m 832 875 l 832 861 l 524 861 q 431 829 465 861 q 396 749 396 797 l 396 635 q 415 567 396 586 q 467 542 435 547 l 760 482 q 828 446 801 474 q 856 346 856 418 l 856 265 q 814 165 856 204 q 701 125 772 125 l 356 125 l 356 139 l 701 139 q 803 174 765 139 q 842 265 842 210 l 842 346 q 819 435 842 411 q 757 468 796 460 l 464 528 q 405 556 428 535 q 382 635 382 578 l 382 749 q 421 840 382 804 q 524 875 460 875 l 832 875 z "},"Ş":{"ha":1042,"x_min":38,"x_max":1021,"o":"m 276 -340 q 219 -319 229 -340 q 222 -267 210 -299 l 260 -165 l 101 -165 q 53 -150 68 -165 q 38 -101 38 -135 l 38 61 q 42 92 38 79 q 57 113 47 104 l 196 229 q 80 305 122 251 q 38 458 38 358 l 38 604 q 58 715 38 667 q 118 797 79 764 l 299 949 q 392 997 336 979 q 518 1014 447 1014 l 907 1014 q 956 999 940 1014 q 971 950 971 983 l 971 785 q 966 754 971 767 q 951 733 961 742 l 826 629 q 967 556 914 610 q 1021 390 1021 503 l 1021 244 q 1000 133 1021 182 q 939 51 979 85 l 760 -100 q 735 -118 749 -110 q 710 -131 721 -126 l 707 -137 q 699 -158 704 -149 q 685 -174 693 -168 l 507 -324 q 483 -336 497 -332 q 451 -340 469 -340 l 276 -340 m 631 -175 q 657 -172 646 -175 q 676 -162 668 -168 q 687 -150 682 -157 q 694 -133 692 -143 l 742 0 q 849 18 801 1 q 931 63 896 35 q 988 139 968 93 q 1007 244 1007 185 l 1007 390 q 947 557 1007 507 q 790 621 888 607 l 583 649 q 556 663 565 650 q 546 693 546 675 q 549 713 546 704 q 560 726 553 721 q 570 733 564 731 q 583 735 576 735 l 907 735 q 928 737 918 735 q 943 744 938 739 q 953 760 950 750 q 957 785 957 771 l 957 950 q 945 988 957 976 q 907 1000 933 1000 l 518 1000 q 397 984 450 1000 q 307 938 343 968 q 250 861 269 907 q 231 756 231 815 l 231 610 q 290 443 231 493 q 446 379 349 393 l 654 350 q 681 338 672 349 q 690 303 690 326 q 687 285 690 293 q 676 271 683 276 q 667 265 672 267 q 654 263 661 263 l 281 263 q 260 260 269 263 q 244 253 250 258 q 234 237 238 247 q 231 213 231 226 l 231 50 q 242 12 231 24 q 281 0 254 0 l 458 0 l 414 -119 q 413 -160 404 -144 q 456 -175 421 -175 l 631 -175 m 575 -50 l 638 125 l 356 125 l 356 139 l 701 139 q 757 147 732 139 q 800 171 782 156 q 831 212 819 188 q 842 265 842 236 l 842 346 q 819 435 842 411 q 757 468 796 460 l 464 528 q 405 556 428 535 q 382 635 382 578 l 382 749 q 393 801 382 778 q 424 843 404 825 q 467 866 442 857 q 524 875 493 875 l 832 875 l 832 861 l 524 861 q 473 853 496 861 q 433 832 450 846 q 406 795 415 817 q 396 749 396 774 l 396 635 q 415 567 396 586 q 467 542 435 547 l 760 482 q 828 446 801 474 q 856 346 856 418 l 856 265 q 843 206 856 233 q 808 160 831 178 q 762 134 789 143 q 701 125 735 125 l 653 125 l 589 -50 l 575 -50 z "},"Š":{"ha":1042,"x_min":38,"x_max":1021,"o":"m 540 -165 l 101 -165 q 53 -150 68 -165 q 38 -101 38 -135 l 38 61 q 42 92 38 79 q 57 113 47 104 l 196 229 q 80 305 122 251 q 38 458 38 358 l 38 604 q 58 715 38 667 q 118 797 79 764 l 278 931 l 207 957 q 153 986 165 972 q 140 1043 140 1000 l 140 1156 q 144 1193 140 1179 q 156 1213 147 1207 l 335 1364 q 356 1370 342 1369 q 396 1364 371 1371 l 586 1308 q 625 1303 608 1303 q 664 1308 642 1303 l 854 1364 q 915 1367 900 1378 q 929 1307 929 1357 l 929 1194 q 924 1154 929 1168 q 907 1131 918 1140 l 768 1014 l 907 1014 q 956 999 940 1014 q 971 950 971 983 l 971 785 q 966 754 971 767 q 951 733 961 742 l 826 629 q 967 556 914 610 q 1021 390 1021 503 l 1021 244 q 1000 133 1021 182 q 939 51 979 85 l 760 -99 q 665 -148 721 -131 q 540 -165 610 -165 m 668 1294 q 625 1289 644 1289 q 582 1294 606 1289 l 392 1350 q 344 1353 356 1361 q 333 1307 333 1344 l 333 1194 q 345 1146 333 1157 q 392 1121 357 1135 l 582 1051 q 603 1046 592 1047 q 626 1044 614 1044 q 653 1049 639 1046 q 681 1057 668 1051 l 858 1121 q 903 1146 892 1135 q 915 1194 915 1157 l 915 1307 q 904 1353 915 1344 q 858 1350 893 1361 l 668 1294 m 458 1221 l 579 1182 q 599 1176 589 1179 q 624 1174 610 1174 q 648 1176 638 1174 q 668 1182 658 1179 l 789 1221 l 789 1206 l 674 1168 q 650 1163 661 1165 q 624 1160 639 1160 q 597 1163 608 1160 q 574 1168 586 1165 l 458 1206 l 458 1221 m 719 0 q 930 63 853 0 q 1007 244 1007 126 l 1007 390 q 947 557 1007 507 q 790 621 888 607 l 583 649 q 556 663 565 650 q 546 693 546 675 q 556 723 546 711 q 583 735 565 735 l 907 735 q 945 747 933 735 q 957 785 957 758 l 957 950 q 945 988 957 976 q 907 1000 933 1000 l 518 1000 q 307 937 383 1000 q 231 756 231 874 l 231 610 q 290 443 231 493 q 446 379 349 393 l 654 350 q 681 338 672 349 q 690 303 690 326 q 681 274 690 286 q 654 263 672 263 l 281 263 q 242 251 254 263 q 231 213 231 239 l 231 50 q 242 12 231 24 q 281 0 254 0 l 719 0 m 832 875 l 832 861 l 524 861 q 431 829 465 861 q 396 749 396 797 l 396 635 q 415 567 396 586 q 467 542 435 547 l 760 482 q 828 446 801 474 q 856 346 856 418 l 856 265 q 814 165 856 204 q 701 125 772 125 l 356 125 l 356 139 l 701 139 q 803 174 765 139 q 842 265 842 210 l 842 346 q 819 435 842 411 q 757 468 796 460 l 464 528 q 405 556 428 535 q 382 635 382 578 l 382 749 q 421 840 382 804 q 524 875 460 875 l 832 875 z "},"Ș":{"ha":1042,"x_min":38,"x_max":1021,"o":"m 433 -668 l 342 -668 q 299 -655 313 -668 q 286 -611 286 -642 l 286 -564 q 290 -535 286 -546 q 303 -519 294 -525 l 344 -485 l 336 -485 q 285 -470 300 -485 q 271 -417 271 -456 l 271 -265 q 275 -230 271 -243 q 289 -208 279 -217 l 340 -165 l 101 -165 q 53 -150 68 -165 q 38 -101 38 -135 l 38 61 q 42 92 38 79 q 57 113 47 104 l 196 229 q 80 305 122 251 q 38 458 38 358 l 38 604 q 58 715 38 667 q 118 797 79 764 l 299 949 q 392 997 336 979 q 518 1014 447 1014 l 907 1014 q 956 999 940 1014 q 971 950 971 983 l 971 785 q 966 754 971 767 q 951 733 961 742 l 826 629 q 967 556 914 610 q 1021 390 1021 503 l 1021 244 q 1000 133 1021 182 q 939 51 979 85 l 793 -71 q 798 -89 796 -78 q 800 -114 800 -100 l 800 -325 q 784 -415 800 -376 q 740 -476 768 -453 l 561 -628 q 505 -658 538 -647 q 433 -668 472 -668 m 719 0 q 930 63 853 0 q 1007 244 1007 126 l 1007 390 q 947 557 1007 507 q 790 621 888 607 l 583 649 q 556 663 565 650 q 546 693 546 675 q 556 723 546 711 q 583 735 565 735 l 907 735 q 945 747 933 735 q 957 785 957 758 l 957 950 q 945 988 957 976 q 907 1000 933 1000 l 518 1000 q 307 937 383 1000 q 231 756 231 874 l 231 610 q 290 443 231 493 q 446 379 349 393 l 654 350 q 681 338 672 349 q 690 303 690 326 q 681 274 690 286 q 654 263 672 263 l 281 263 q 242 251 254 263 q 231 213 231 239 l 231 50 q 242 12 231 24 q 281 0 254 0 l 719 0 m 832 875 l 832 861 l 524 861 q 431 829 465 861 q 396 749 396 797 l 396 635 q 415 567 396 586 q 467 542 435 547 l 760 482 q 828 446 801 474 q 856 346 856 418 l 856 265 q 814 165 856 204 q 701 125 772 125 l 356 125 l 356 139 l 701 139 q 803 174 765 139 q 842 265 842 210 l 842 346 q 819 435 842 411 q 757 468 796 460 l 464 528 q 405 556 428 535 q 382 635 382 578 l 382 749 q 421 840 382 804 q 524 875 460 875 l 832 875 m 613 -503 q 739 -458 692 -503 q 786 -325 786 -414 l 786 -114 q 775 -72 786 -83 q 735 -60 764 -60 l 515 -60 q 475 -72 486 -60 q 464 -114 464 -83 l 464 -265 q 475 -308 464 -296 q 515 -319 486 -319 l 635 -319 l 635 -337 q 626 -362 635 -353 q 603 -371 618 -371 l 521 -371 q 489 -381 499 -371 q 479 -412 479 -390 l 479 -460 q 489 -492 479 -482 q 521 -503 499 -503 l 613 -503 m 707 -183 l 707 -318 q 677 -410 707 -382 q 592 -437 647 -437 l 543 -437 l 543 -424 l 592 -424 q 667 -399 642 -424 q 693 -318 693 -374 l 693 -197 l 543 -197 l 543 -183 l 707 -183 z "},"T":{"ha":1050,"x_min":6,"x_max":1046,"o":"m 549 -165 l 324 -165 q 275 -150 290 -165 q 260 -101 260 -135 l 260 567 l 69 567 q 21 582 36 567 q 6 631 6 597 l 6 799 q 10 829 6 817 q 25 850 15 842 l 204 1001 q 223 1010 211 1007 q 249 1014 235 1014 l 982 1014 q 1031 999 1015 1014 q 1046 950 1046 983 l 1046 782 q 1041 751 1046 764 q 1026 731 1036 739 l 846 581 q 828 571 840 575 q 803 567 817 567 l 792 567 l 792 50 q 787 19 792 32 q 772 -1 782 7 l 592 -151 q 574 -161 586 -157 q 549 -165 563 -165 m 728 0 q 766 12 754 0 q 778 50 778 24 l 778 732 l 982 732 q 1020 744 1008 732 q 1032 782 1032 756 l 1032 950 q 1020 988 1032 976 q 982 1000 1008 1000 l 249 1000 q 210 988 222 1000 q 199 950 199 976 l 199 782 q 210 744 199 756 q 249 732 222 732 l 453 732 l 453 50 q 465 12 453 24 q 503 0 476 0 l 728 0 m 608 125 l 608 861 l 324 861 l 324 875 l 907 875 l 907 861 l 622 861 l 622 125 l 608 125 z "},"Ţ":{"ha":1050,"x_min":6,"x_max":1046,"o":"m 424 -668 l 332 -668 q 290 -655 303 -668 q 276 -611 276 -642 l 276 -564 q 281 -535 276 -546 q 293 -519 285 -525 l 335 -485 l 326 -485 q 276 -470 290 -485 q 261 -417 261 -456 l 261 -265 q 265 -230 261 -243 q 279 -208 269 -217 l 331 -165 l 324 -165 q 275 -150 290 -165 q 260 -101 260 -135 l 260 567 l 69 567 q 21 582 36 567 q 6 631 6 597 l 6 799 q 10 829 6 817 q 25 850 15 842 l 204 1001 q 223 1010 211 1007 q 249 1014 235 1014 l 982 1014 q 1031 999 1015 1014 q 1046 950 1046 983 l 1046 782 q 1041 751 1046 764 q 1026 731 1036 739 l 846 581 q 828 571 840 575 q 803 567 817 567 l 792 567 l 792 50 q 787 19 792 32 q 772 -1 782 7 l 719 -46 l 725 -46 q 776 -60 761 -46 q 790 -114 790 -75 l 790 -325 q 774 -415 790 -376 q 731 -476 758 -453 l 551 -628 q 495 -658 528 -647 q 424 -668 463 -668 m 728 0 q 766 12 754 0 q 778 50 778 24 l 778 732 l 982 732 q 1020 744 1008 732 q 1032 782 1032 756 l 1032 950 q 1020 988 1032 976 q 982 1000 1008 1000 l 249 1000 q 210 988 222 1000 q 199 950 199 976 l 199 782 q 210 744 199 756 q 249 732 222 732 l 453 732 l 453 50 q 465 12 453 24 q 503 0 476 0 l 728 0 m 608 125 l 608 861 l 324 861 l 324 875 l 907 875 l 907 861 l 622 861 l 622 125 l 608 125 m 603 -503 q 729 -458 682 -503 q 776 -325 776 -414 l 776 -114 q 765 -72 776 -83 q 725 -60 754 -60 l 506 -60 q 465 -72 476 -60 q 454 -114 454 -83 l 454 -265 q 465 -308 454 -296 q 506 -319 476 -319 l 625 -319 l 625 -337 q 617 -362 625 -353 q 593 -371 608 -371 l 511 -371 q 479 -381 489 -371 q 469 -412 469 -390 l 469 -460 q 479 -492 469 -482 q 511 -503 489 -503 l 603 -503 m 697 -183 l 697 -318 q 667 -410 697 -382 q 582 -437 638 -437 l 533 -437 l 533 -424 l 582 -424 q 658 -399 632 -424 q 683 -318 683 -374 l 683 -197 l 533 -197 l 533 -183 l 697 -183 z "},"Ť":{"ha":1050,"x_min":6,"x_max":1046,"o":"m 549 -165 l 324 -165 q 275 -150 290 -165 q 260 -101 260 -135 l 260 567 l 69 567 q 21 582 36 567 q 6 631 6 597 l 6 799 q 10 829 6 817 q 25 850 15 842 l 167 969 q 138 994 144 979 q 131 1043 131 1008 l 131 1156 q 134 1193 131 1179 q 146 1213 138 1207 l 325 1364 q 347 1370 332 1369 q 386 1364 361 1371 l 576 1308 q 615 1303 599 1303 q 654 1308 632 1303 l 844 1364 q 905 1367 890 1378 q 919 1307 919 1357 l 919 1194 q 914 1154 919 1168 q 897 1131 908 1140 l 760 1014 l 982 1014 q 1031 999 1015 1014 q 1046 950 1046 983 l 1046 782 q 1041 751 1046 764 q 1026 731 1036 739 l 846 581 q 828 571 840 575 q 803 567 817 567 l 792 567 l 792 50 q 787 19 792 32 q 772 -1 782 7 l 592 -151 q 574 -161 586 -157 q 549 -165 563 -165 m 658 1294 q 615 1289 635 1289 q 572 1294 596 1289 l 382 1350 q 335 1353 346 1361 q 324 1307 324 1344 l 324 1194 q 335 1146 324 1157 q 382 1121 347 1135 l 572 1051 q 593 1046 582 1047 q 617 1044 604 1044 q 644 1049 629 1046 q 671 1057 658 1051 l 849 1121 q 894 1146 882 1135 q 906 1194 906 1157 l 906 1307 q 894 1353 906 1344 q 849 1350 883 1361 l 658 1294 m 449 1221 l 569 1182 q 590 1176 579 1179 q 614 1174 600 1174 q 638 1176 628 1174 q 658 1182 649 1179 l 779 1221 l 779 1206 l 664 1168 q 640 1163 651 1165 q 614 1160 629 1160 q 588 1163 599 1160 q 564 1168 576 1165 l 449 1206 l 449 1221 m 728 0 q 766 12 754 0 q 778 50 778 24 l 778 732 l 982 732 q 1020 744 1008 732 q 1032 782 1032 756 l 1032 950 q 1020 988 1032 976 q 982 1000 1008 1000 l 249 1000 q 210 988 222 1000 q 199 950 199 976 l 199 782 q 210 744 199 756 q 249 732 222 732 l 453 732 l 453 50 q 465 12 453 24 q 503 0 476 0 l 728 0 m 608 125 l 608 861 l 324 861 l 324 875 l 907 875 l 907 861 l 622 861 l 622 125 l 608 125 z "},"U":{"ha":1175,"x_min":56,"x_max":1121,"o":"m 499 -186 q 277 -158 364 -186 q 142 -82 190 -129 q 74 26 93 -35 q 56 153 56 88 l 56 799 q 60 829 56 817 q 75 850 65 842 l 254 1001 q 273 1010 261 1007 q 299 1014 285 1014 l 517 1014 q 565 999 550 1014 q 581 950 581 983 l 581 317 q 585 294 581 304 q 603 278 589 283 l 603 799 q 607 829 603 817 q 619 849 611 842 l 621 850 l 801 1001 q 819 1010 808 1007 q 846 1014 831 1014 l 1057 1014 q 1106 999 1090 1014 q 1121 950 1121 983 l 1121 263 q 1103 144 1121 199 q 1038 51 1085 90 l 857 -99 q 722 -163 808 -140 q 499 -186 636 -186 m 1107 263 l 1107 950 q 1095 988 1107 976 q 1057 1000 1083 1000 l 846 1000 q 808 988 819 1000 q 796 950 796 976 l 796 317 q 775 270 796 289 q 681 251 754 251 q 588 270 608 251 q 567 317 567 289 l 567 950 q 555 988 567 976 q 517 1000 543 1000 l 299 1000 q 260 988 272 1000 q 249 950 249 976 l 249 263 q 267 147 249 199 q 334 58 286 94 q 465 0 382 21 q 678 -21 549 -21 q 890 0 807 -21 q 1022 58 974 21 q 1088 147 1069 94 q 1107 263 1107 199 m 401 875 l 415 875 l 415 296 q 470 170 415 218 q 679 122 525 122 q 889 170 833 122 q 944 296 944 218 l 944 875 l 958 875 l 958 296 q 900 160 958 213 q 679 108 842 108 q 459 160 517 108 q 401 296 401 213 l 401 875 z "},"Ù":{"ha":1175,"x_min":56,"x_max":1121,"o":"m 499 -186 q 277 -158 364 -186 q 142 -82 190 -129 q 74 26 93 -35 q 56 153 56 88 l 56 799 q 60 829 56 817 q 75 850 65 842 l 199 954 q 184 974 189 961 q 179 1004 179 986 l 179 1138 q 184 1167 179 1156 q 199 1188 189 1179 l 378 1339 q 397 1347 386 1344 q 421 1349 407 1350 l 906 1289 q 953 1271 939 1285 q 968 1225 968 1257 l 968 1092 q 963 1062 968 1074 q 949 1042 958 1050 l 915 1014 l 1057 1014 q 1106 999 1090 1014 q 1121 950 1121 983 l 1121 263 q 1103 144 1121 199 q 1038 51 1085 90 l 857 -99 q 722 -163 808 -140 q 499 -186 636 -186 m 907 1046 q 942 1056 931 1043 q 954 1092 954 1068 l 954 1225 q 942 1262 954 1251 q 904 1275 931 1272 l 419 1335 q 384 1325 396 1338 q 372 1289 372 1313 l 372 1156 q 384 1119 372 1129 q 422 1106 396 1108 l 907 1046 m 497 1204 l 497 1218 l 829 1176 l 829 1163 l 497 1204 m 1107 263 l 1107 950 q 1095 988 1107 976 q 1057 1000 1083 1000 l 846 1000 q 808 988 819 1000 q 796 950 796 976 l 796 317 q 775 270 796 289 q 681 251 754 251 q 588 270 608 251 q 567 317 567 289 l 567 950 q 555 988 567 976 q 517 1000 543 1000 l 299 1000 q 260 988 272 1000 q 249 950 249 976 l 249 263 q 267 147 249 199 q 334 58 286 94 q 465 0 382 21 q 678 -21 549 -21 q 890 0 807 -21 q 1022 58 974 21 q 1088 147 1069 94 q 1107 263 1107 199 m 603 278 l 603 799 q 607 829 603 817 q 619 849 611 842 l 621 850 l 665 888 l 581 899 l 581 317 q 585 294 581 304 q 603 278 589 283 m 401 875 l 415 875 l 415 296 q 470 170 415 218 q 679 122 525 122 q 889 170 833 122 q 944 296 944 218 l 944 875 l 958 875 l 958 296 q 900 160 958 213 q 679 108 842 108 q 459 160 517 108 q 401 296 401 213 l 401 875 z "},"Ú":{"ha":1175,"x_min":56,"x_max":1121,"o":"m 499 -186 q 277 -158 364 -186 q 142 -82 190 -129 q 74 26 93 -35 q 56 153 56 88 l 56 799 q 60 829 56 817 q 75 850 65 842 l 207 961 l 207 1074 q 212 1103 207 1092 q 225 1122 217 1115 l 406 1274 q 423 1283 411 1279 q 449 1289 435 1288 l 933 1349 q 980 1337 964 1353 q 996 1289 996 1321 l 996 1156 q 991 1125 996 1138 q 976 1107 986 1113 l 867 1014 l 1057 1014 q 1106 999 1090 1014 q 1121 950 1121 983 l 1121 263 q 1103 144 1121 199 q 1038 51 1085 90 l 857 -99 q 722 -163 808 -140 q 499 -186 636 -186 m 932 1106 q 970 1119 958 1108 q 982 1156 982 1129 l 982 1289 q 970 1325 982 1313 q 935 1335 958 1338 l 450 1275 q 412 1262 424 1272 q 400 1225 400 1251 l 400 1092 q 412 1056 400 1068 q 447 1046 424 1043 l 932 1106 m 525 1176 l 857 1218 l 857 1204 l 525 1163 l 525 1176 m 1107 263 l 1107 950 q 1095 988 1107 976 q 1057 1000 1083 1000 l 846 1000 q 808 988 819 1000 q 796 950 796 976 l 796 317 q 775 270 796 289 q 681 251 754 251 q 588 270 608 251 q 567 317 567 289 l 567 950 q 555 988 567 976 q 517 1000 543 1000 l 299 1000 q 260 988 272 1000 q 249 950 249 976 l 249 263 q 267 147 249 199 q 334 58 286 94 q 465 0 382 21 q 678 -21 549 -21 q 890 0 807 -21 q 1022 58 974 21 q 1088 147 1069 94 q 1107 263 1107 199 m 603 278 l 603 799 q 607 829 603 817 q 619 849 611 842 l 621 850 l 724 936 l 581 919 l 581 317 q 585 294 581 304 q 603 278 589 283 m 401 875 l 415 875 l 415 296 q 470 170 415 218 q 679 122 525 122 q 889 170 833 122 q 944 296 944 218 l 944 875 l 958 875 l 958 296 q 900 160 958 213 q 679 108 842 108 q 459 160 517 108 q 401 296 401 213 l 401 875 z "},"Û":{"ha":1175,"x_min":56,"x_max":1121,"o":"m 499 -186 q 277 -158 364 -186 q 142 -82 190 -129 q 74 26 93 -35 q 56 153 56 88 l 56 799 q 60 829 56 817 q 75 850 65 842 l 193 950 l 193 1056 q 198 1096 193 1082 q 213 1119 203 1110 l 394 1271 l 393 1269 q 412 1282 400 1276 q 439 1293 424 1288 l 615 1357 q 645 1366 629 1363 q 675 1371 661 1369 q 701 1369 689 1371 q 724 1363 714 1368 l 915 1293 q 969 1264 957 1278 q 982 1207 982 1250 l 982 1094 q 978 1058 982 1072 q 968 1039 974 1044 l 967 1038 l 939 1014 l 1057 1014 q 1106 999 1090 1014 q 1121 950 1121 983 l 1121 263 q 1103 144 1121 199 q 1038 51 1085 90 l 857 -99 q 722 -163 808 -140 q 499 -186 636 -186 m 842 1181 l 721 1219 q 701 1225 711 1222 q 676 1228 690 1228 q 652 1225 663 1228 q 632 1219 642 1222 l 511 1181 l 511 1196 l 626 1233 q 650 1239 639 1236 q 676 1242 661 1242 q 703 1239 692 1242 q 726 1233 714 1236 l 842 1196 l 842 1181 m 633 1107 q 676 1113 657 1113 q 719 1107 696 1113 l 910 1051 q 957 1049 946 1040 q 968 1094 968 1057 l 968 1207 q 956 1256 968 1244 q 910 1281 944 1267 l 719 1350 q 699 1356 710 1354 q 675 1357 688 1357 q 648 1353 663 1356 q 621 1344 633 1350 l 443 1281 q 398 1256 410 1267 q 386 1207 386 1244 l 386 1094 q 397 1049 386 1057 q 443 1051 408 1040 l 633 1107 m 1107 263 l 1107 950 q 1095 988 1107 976 q 1057 1000 1083 1000 l 846 1000 q 808 988 819 1000 q 796 950 796 976 l 796 317 q 775 270 796 289 q 681 251 754 251 q 588 270 608 251 q 567 317 567 289 l 567 950 q 555 988 567 976 q 517 1000 543 1000 l 299 1000 q 260 988 272 1000 q 249 950 249 976 l 249 263 q 267 147 249 199 q 334 58 286 94 q 465 0 382 21 q 678 -21 549 -21 q 890 0 807 -21 q 1022 58 974 21 q 1088 147 1069 94 q 1107 263 1107 199 m 603 278 l 603 799 q 607 829 603 817 q 619 849 611 842 l 621 850 l 681 900 l 581 928 l 581 317 q 585 294 581 304 q 603 278 589 283 m 401 875 l 415 875 l 415 296 q 470 170 415 218 q 679 122 525 122 q 889 170 833 122 q 944 296 944 218 l 944 875 l 958 875 l 958 296 q 900 160 958 213 q 679 108 842 108 q 459 160 517 108 q 401 296 401 213 l 401 875 z "},"Ü":{"ha":1175,"x_min":56,"x_max":1121,"o":"m 499 -186 q 277 -158 364 -186 q 142 -82 190 -129 q 74 26 93 -35 q 56 153 56 88 l 56 799 q 60 829 56 817 q 75 850 65 842 l 163 925 q 160 937 161 931 q 160 950 160 943 l 160 1118 q 165 1147 160 1136 q 178 1165 169 1158 l 357 1317 q 375 1326 364 1322 q 400 1329 386 1329 l 592 1329 q 637 1315 622 1329 q 651 1269 651 1300 l 651 1261 l 717 1317 q 734 1326 724 1322 q 758 1329 744 1329 l 950 1329 q 995 1315 981 1329 q 1010 1269 1010 1300 l 1010 1101 q 1005 1073 1010 1085 q 992 1054 1000 1061 l 944 1014 l 1057 1014 q 1106 999 1090 1014 q 1121 950 1121 983 l 1121 263 q 1103 144 1121 199 q 1038 51 1085 90 l 857 -99 q 722 -163 808 -140 q 499 -186 636 -186 m 950 1056 q 985 1067 974 1056 q 996 1101 996 1078 l 996 1269 q 985 1304 996 1293 q 950 1315 974 1315 l 758 1315 q 724 1304 735 1315 q 713 1269 713 1293 l 713 1101 q 724 1067 713 1078 q 758 1056 735 1056 l 950 1056 m 592 1056 q 626 1067 615 1056 q 638 1101 638 1078 l 638 1269 q 626 1304 638 1293 q 592 1315 615 1315 l 400 1315 q 365 1304 376 1315 q 353 1269 353 1293 l 353 1101 q 365 1067 353 1078 q 400 1056 376 1056 l 592 1056 m 861 1153 l 847 1153 l 847 1218 l 861 1218 l 861 1153 m 503 1153 l 489 1153 l 489 1218 l 503 1218 l 503 1153 m 1107 263 l 1107 950 q 1095 988 1107 976 q 1057 1000 1083 1000 l 846 1000 q 808 988 819 1000 q 796 950 796 976 l 796 317 q 775 270 796 289 q 681 251 754 251 q 588 270 608 251 q 567 317 567 289 l 567 950 q 555 988 567 976 q 517 1000 543 1000 l 299 1000 q 260 988 272 1000 q 249 950 249 976 l 249 263 q 267 147 249 199 q 334 58 286 94 q 465 0 382 21 q 678 -21 549 -21 q 890 0 807 -21 q 1022 58 974 21 q 1088 147 1069 94 q 1107 263 1107 199 m 603 278 l 603 799 q 607 829 603 817 q 619 849 611 842 l 621 850 l 669 890 l 581 890 l 581 317 q 585 294 581 304 q 603 278 589 283 m 401 875 l 415 875 l 415 296 q 470 170 415 218 q 679 122 525 122 q 889 170 833 122 q 944 296 944 218 l 944 875 l 958 875 l 958 296 q 900 160 958 213 q 679 108 842 108 q 459 160 517 108 q 401 296 401 213 l 401 875 z "},"Ũ":{"ha":1175,"x_min":56,"x_max":1121,"o":"m 499 -186 q 277 -158 364 -186 q 142 -82 190 -129 q 74 26 93 -35 q 56 153 56 88 l 56 799 q 60 829 56 817 q 75 850 65 842 l 193 950 l 193 1079 q 198 1109 193 1097 q 214 1131 203 1121 l 393 1281 q 409 1291 399 1286 q 431 1300 419 1296 l 432 1300 l 432 1301 q 488 1316 465 1311 q 534 1321 511 1321 q 584 1317 557 1321 q 654 1308 611 1314 l 678 1306 l 708 1301 q 779 1292 753 1294 q 825 1290 806 1289 q 864 1297 844 1292 q 913 1313 883 1303 q 964 1310 947 1322 q 981 1263 981 1297 l 981 1122 q 975 1092 981 1104 q 960 1072 969 1081 l 890 1014 l 1057 1014 q 1106 999 1090 1014 q 1121 950 1121 983 l 1121 263 q 1103 144 1121 199 q 1038 51 1085 90 l 857 -99 q 722 -163 808 -140 q 499 -186 636 -186 m 676 1061 l 699 1058 q 767 1049 740 1053 q 817 1046 794 1046 q 861 1051 839 1046 q 917 1065 883 1056 q 953 1085 940 1075 q 967 1122 967 1096 l 967 1263 q 954 1297 967 1289 q 917 1299 942 1306 q 867 1283 886 1289 q 827 1276 847 1278 q 780 1278 807 1275 q 707 1288 753 1281 l 676 1292 l 653 1294 q 584 1303 611 1300 q 535 1307 557 1307 q 492 1302 514 1307 q 436 1288 469 1297 q 399 1267 413 1278 q 386 1231 386 1257 l 386 1090 q 399 1056 386 1064 q 436 1054 411 1047 q 484 1067 464 1063 q 525 1074 504 1072 q 572 1074 546 1076 q 638 1067 599 1072 l 676 1061 m 842 1168 l 842 1154 q 782 1154 814 1151 q 697 1165 750 1157 l 675 1168 l 636 1174 q 562 1182 590 1181 q 511 1179 533 1183 l 511 1194 q 563 1195 535 1197 q 639 1188 592 1193 l 678 1182 l 700 1179 q 783 1168 753 1171 q 842 1168 814 1165 m 1107 263 l 1107 950 q 1095 988 1107 976 q 1057 1000 1083 1000 l 846 1000 q 808 988 819 1000 q 796 950 796 976 l 796 317 q 775 270 796 289 q 681 251 754 251 q 588 270 608 251 q 567 317 567 289 l 567 950 q 555 988 567 976 q 517 1000 543 1000 l 299 1000 q 260 988 272 1000 q 249 950 249 976 l 249 263 q 267 147 249 199 q 334 58 286 94 q 465 0 382 21 q 678 -21 549 -21 q 890 0 807 -21 q 1022 58 974 21 q 1088 147 1069 94 q 1107 263 1107 199 m 603 278 l 603 799 q 607 829 603 817 q 619 849 611 842 l 621 850 l 658 882 q 622 881 640 881 q 581 885 603 882 l 581 317 q 585 294 581 304 q 603 278 589 283 m 401 875 l 415 875 l 415 296 q 470 170 415 218 q 679 122 525 122 q 889 170 833 122 q 944 296 944 218 l 944 875 l 958 875 l 958 296 q 900 160 958 213 q 679 108 842 108 q 459 160 517 108 q 401 296 401 213 l 401 875 z "},"Ū":{"ha":1175,"x_min":56,"x_max":1121,"o":"m 499 -186 q 277 -158 364 -186 q 142 -82 190 -129 q 74 26 93 -35 q 56 153 56 88 l 56 799 q 60 829 56 817 q 75 850 65 842 l 193 950 l 193 1083 q 198 1114 193 1101 q 213 1135 203 1126 l 392 1286 q 410 1295 399 1292 q 436 1299 422 1299 l 918 1299 q 967 1283 951 1299 q 982 1235 982 1268 l 982 1106 q 977 1075 982 1088 q 963 1054 972 1063 l 914 1014 l 1057 1014 q 1106 999 1090 1014 q 1121 950 1121 983 l 1121 263 q 1103 144 1121 199 q 1038 51 1085 90 l 857 -99 q 722 -163 808 -140 q 499 -186 636 -186 m 918 1056 q 956 1067 944 1056 q 968 1106 968 1079 l 968 1235 q 956 1273 968 1261 q 918 1285 944 1285 l 436 1285 q 398 1273 410 1285 q 386 1235 386 1261 l 386 1106 q 398 1067 386 1079 q 436 1056 410 1056 l 918 1056 m 511 1176 l 843 1176 l 843 1163 l 511 1163 l 511 1176 m 1107 263 l 1107 950 q 1095 988 1107 976 q 1057 1000 1083 1000 l 846 1000 q 808 988 819 1000 q 796 950 796 976 l 796 317 q 775 270 796 289 q 681 251 754 251 q 588 270 608 251 q 567 317 567 289 l 567 950 q 555 988 567 976 q 517 1000 543 1000 l 299 1000 q 260 988 272 1000 q 249 950 249 976 l 249 263 q 267 147 249 199 q 334 58 286 94 q 465 0 382 21 q 678 -21 549 -21 q 890 0 807 -21 q 1022 58 974 21 q 1088 147 1069 94 q 1107 263 1107 199 m 603 278 l 603 799 q 607 829 603 817 q 619 849 611 842 l 621 850 l 669 890 l 581 890 l 581 317 q 585 294 581 304 q 603 278 589 283 m 401 875 l 415 875 l 415 296 q 470 170 415 218 q 679 122 525 122 q 889 170 833 122 q 944 296 944 218 l 944 875 l 958 875 l 958 296 q 900 160 958 213 q 679 108 842 108 q 459 160 517 108 q 401 296 401 213 l 401 875 z "},"Ŭ":{"ha":1175,"x_min":56,"x_max":1121,"o":"m 499 -186 q 277 -158 364 -186 q 142 -82 190 -129 q 74 26 93 -35 q 56 153 56 88 l 56 799 q 60 829 56 817 q 75 850 65 842 l 217 969 q 191 1028 199 996 q 183 1094 183 1060 l 183 1156 q 188 1186 183 1174 q 203 1207 193 1199 l 382 1358 q 401 1367 389 1364 q 426 1371 413 1371 l 560 1371 q 601 1359 589 1371 q 614 1314 614 1347 l 614 1285 q 619 1267 614 1275 q 639 1257 625 1260 l 764 1361 l 763 1360 q 778 1368 768 1365 q 803 1371 788 1371 l 929 1371 q 978 1356 963 1371 q 993 1307 993 1340 l 993 1246 q 980 1161 993 1200 q 932 1094 967 1122 l 835 1014 l 1057 1014 q 1106 999 1090 1014 q 1121 950 1121 983 l 1121 263 q 1103 144 1121 199 q 1038 51 1085 90 l 857 -99 q 722 -163 808 -140 q 499 -186 636 -186 m 979 1246 l 979 1307 q 967 1345 979 1333 q 929 1357 956 1357 l 803 1357 q 770 1348 779 1357 q 761 1314 761 1339 l 761 1285 q 746 1252 761 1265 q 679 1239 731 1239 q 614 1252 628 1239 q 600 1285 600 1265 l 600 1314 q 591 1348 600 1339 q 560 1357 582 1357 l 426 1357 q 388 1345 400 1357 q 376 1307 376 1333 l 376 1246 q 390 1165 376 1201 q 437 1102 403 1128 q 529 1062 471 1076 q 678 1047 588 1047 q 826 1062 768 1047 q 919 1102 885 1076 q 966 1165 953 1128 q 979 1246 979 1201 m 864 1260 l 878 1260 l 878 1247 q 870 1208 878 1228 q 842 1172 863 1188 q 781 1146 821 1156 q 676 1136 740 1136 q 574 1146 613 1136 q 515 1172 535 1156 q 488 1208 494 1188 q 482 1247 482 1228 l 482 1260 l 496 1260 l 496 1247 q 530 1180 496 1210 q 676 1150 564 1150 q 826 1180 789 1150 q 864 1247 864 1210 l 864 1260 m 1107 263 l 1107 950 q 1095 988 1107 976 q 1057 1000 1083 1000 l 846 1000 q 808 988 819 1000 q 796 950 796 976 l 796 317 q 775 270 796 289 q 681 251 754 251 q 588 270 608 251 q 567 317 567 289 l 567 950 q 555 988 567 976 q 517 1000 543 1000 l 299 1000 q 260 988 272 1000 q 249 950 249 976 l 249 263 q 267 147 249 199 q 334 58 286 94 q 465 0 382 21 q 678 -21 549 -21 q 890 0 807 -21 q 1022 58 974 21 q 1088 147 1069 94 q 1107 263 1107 199 m 603 278 l 603 799 q 607 829 603 817 q 619 849 611 842 l 621 850 l 692 910 q 640 894 668 900 q 581 886 611 888 l 581 317 q 585 294 581 304 q 603 278 589 283 m 401 875 l 415 875 l 415 296 q 470 170 415 218 q 679 122 525 122 q 889 170 833 122 q 944 296 944 218 l 944 875 l 958 875 l 958 296 q 900 160 958 213 q 679 108 842 108 q 459 160 517 108 q 401 296 401 213 l 401 875 z "},"Ů":{"ha":1175,"x_min":56,"x_max":1121,"o":"m 499 -186 q 277 -158 364 -186 q 142 -82 190 -129 q 74 26 93 -35 q 56 153 56 88 l 56 799 q 60 829 56 817 q 75 850 65 842 l 217 969 q 191 1027 199 996 q 183 1094 183 1058 l 183 1231 q 196 1315 183 1276 q 243 1382 208 1354 l 424 1533 q 520 1578 458 1561 q 678 1594 582 1594 q 835 1578 774 1594 q 932 1535 897 1563 q 980 1467 967 1507 q 993 1382 993 1428 l 993 1246 q 980 1161 993 1200 q 932 1094 967 1122 l 835 1014 l 1057 1014 q 1106 999 1090 1014 q 1121 950 1121 983 l 1121 263 q 1103 144 1121 199 q 1038 51 1085 90 l 857 -99 q 722 -163 808 -140 q 499 -186 636 -186 m 979 1382 q 966 1463 979 1426 q 919 1526 953 1500 q 826 1566 885 1551 q 678 1581 768 1581 q 529 1566 588 1581 q 437 1526 471 1551 q 390 1463 403 1500 q 376 1382 376 1426 l 376 1246 q 390 1165 376 1201 q 437 1102 403 1128 q 529 1062 471 1076 q 678 1047 588 1047 q 826 1062 768 1047 q 919 1102 885 1076 q 966 1165 953 1128 q 979 1246 979 1201 l 979 1382 m 482 1278 l 482 1354 q 490 1411 482 1385 q 518 1456 497 1438 q 578 1484 539 1474 q 678 1494 617 1494 q 839 1455 801 1494 q 876 1354 876 1415 l 876 1278 q 839 1177 876 1215 q 678 1139 801 1139 q 578 1149 617 1139 q 518 1177 539 1158 q 490 1222 497 1196 q 482 1278 482 1247 m 678 1481 q 531 1447 567 1481 q 496 1354 496 1413 l 496 1278 q 531 1186 496 1219 q 678 1153 567 1153 q 826 1186 789 1153 q 863 1278 863 1219 l 863 1354 q 826 1446 863 1411 q 678 1481 789 1481 m 761 1292 q 746 1247 761 1261 q 679 1232 731 1232 q 614 1247 628 1232 q 600 1292 600 1261 l 600 1340 q 614 1381 600 1367 q 679 1396 628 1396 q 746 1381 731 1396 q 761 1340 761 1367 l 761 1292 m 1107 263 l 1107 950 q 1095 988 1107 976 q 1057 1000 1083 1000 l 846 1000 q 808 988 819 1000 q 796 950 796 976 l 796 317 q 775 270 796 289 q 681 251 754 251 q 588 270 608 251 q 567 317 567 289 l 567 950 q 555 988 567 976 q 517 1000 543 1000 l 299 1000 q 260 988 272 1000 q 249 950 249 976 l 249 263 q 267 147 249 199 q 334 58 286 94 q 465 0 382 21 q 678 -21 549 -21 q 890 0 807 -21 q 1022 58 974 21 q 1088 147 1069 94 q 1107 263 1107 199 m 603 278 l 603 799 q 607 829 603 817 q 619 849 611 842 l 621 850 l 692 910 q 640 894 669 900 q 581 885 611 888 l 581 317 q 585 294 581 304 q 603 278 589 283 m 401 875 l 415 875 l 415 296 q 470 170 415 218 q 679 122 525 122 q 889 170 833 122 q 944 296 944 218 l 944 875 l 958 875 l 958 296 q 900 160 958 213 q 679 108 842 108 q 459 160 517 108 q 401 296 401 213 l 401 875 z "},"Ű":{"ha":1175,"x_min":56,"x_max":1121,"o":"m 499 -186 q 277 -158 364 -186 q 142 -82 190 -129 q 74 26 93 -35 q 56 153 56 88 l 56 799 q 60 829 56 817 q 75 850 65 842 l 183 942 q 183 948 183 944 q 185 954 183 951 l 258 1242 q 267 1272 263 1260 q 282 1292 272 1283 l 463 1443 q 478 1451 468 1449 q 501 1454 488 1454 l 649 1454 q 699 1437 682 1454 q 708 1390 717 1419 l 694 1335 l 824 1443 q 839 1451 829 1449 q 863 1454 849 1454 l 1010 1454 q 1060 1437 1043 1454 q 1069 1390 1078 1419 l 996 1103 q 986 1073 992 1085 q 972 1053 981 1061 l 926 1014 l 1057 1014 q 1106 999 1090 1014 q 1121 950 1121 983 l 1121 263 q 1103 144 1121 199 q 1038 51 1085 90 l 857 -99 q 722 -163 808 -140 q 499 -186 636 -186 m 739 1103 q 747 1068 733 1081 q 785 1056 761 1056 l 932 1056 q 967 1068 958 1056 q 982 1106 976 1081 l 1056 1393 q 1047 1428 1061 1415 q 1010 1440 1033 1440 l 863 1440 q 827 1428 836 1440 q 813 1390 818 1415 l 739 1103 m 378 1103 q 386 1068 372 1081 q 424 1056 400 1056 l 571 1056 q 606 1068 597 1056 q 621 1106 615 1081 l 694 1393 q 686 1428 700 1415 q 649 1440 672 1440 l 501 1440 q 466 1428 475 1440 q 451 1390 457 1415 l 378 1103 m 526 1181 l 511 1181 l 546 1315 l 561 1315 l 526 1181 m 888 1181 l 872 1181 l 907 1315 l 922 1315 l 888 1181 m 1107 263 l 1107 950 q 1095 988 1107 976 q 1057 1000 1083 1000 l 846 1000 q 808 988 819 1000 q 796 950 796 976 l 796 317 q 775 270 796 289 q 681 251 754 251 q 588 270 608 251 q 567 317 567 289 l 567 950 q 555 988 567 976 q 517 1000 543 1000 l 299 1000 q 260 988 272 1000 q 249 950 249 976 l 249 263 q 267 147 249 199 q 334 58 286 94 q 465 0 382 21 q 678 -21 549 -21 q 890 0 807 -21 q 1022 58 974 21 q 1088 147 1069 94 q 1107 263 1107 199 m 603 278 l 603 799 q 607 829 603 817 q 619 849 611 842 l 621 850 l 669 890 l 606 890 q 592 891 599 890 q 581 893 586 892 l 581 317 q 585 294 581 304 q 603 278 589 283 m 401 875 l 415 875 l 415 296 q 470 170 415 218 q 679 122 525 122 q 889 170 833 122 q 944 296 944 218 l 944 875 l 958 875 l 958 296 q 900 160 958 213 q 679 108 842 108 q 459 160 517 108 q 401 296 401 213 l 401 875 z "},"Ų":{"ha":1175,"x_min":56,"x_max":1121,"o":"m 658 -437 l 504 -437 q 372 -389 408 -437 q 350 -233 335 -340 l 360 -179 q 210 -134 269 -168 q 116 -52 150 -100 q 69 53 82 -4 q 56 167 56 111 l 56 799 q 60 829 56 817 q 75 850 65 842 l 254 1001 q 273 1010 261 1007 q 299 1014 285 1014 l 517 1014 q 565 999 550 1014 q 581 950 581 983 l 581 317 q 585 294 581 304 q 603 278 589 283 l 603 799 q 607 829 603 817 q 619 849 611 842 l 621 850 l 801 1001 q 819 1010 808 1007 q 846 1014 831 1014 l 1057 1014 q 1106 999 1090 1014 q 1121 950 1121 983 l 1121 263 q 1102 144 1121 199 q 1036 51 1083 90 l 883 -78 q 894 -95 890 -83 q 897 -125 897 -107 l 897 -225 q 893 -256 897 -243 q 881 -275 889 -268 l 700 -426 q 683 -435 694 -432 q 658 -437 672 -437 m 838 -272 q 858 -270 850 -272 q 872 -264 867 -268 q 881 -249 878 -258 q 883 -225 883 -239 l 883 -125 q 873 -88 883 -99 q 833 -78 863 -78 l 776 -78 l 785 -17 q 932 11 872 -10 q 1028 63 992 32 q 1090 151 1072 100 q 1107 263 1107 201 l 1107 950 q 1095 988 1107 976 q 1057 1000 1083 1000 l 846 1000 q 824 998 833 1000 q 810 990 815 996 q 799 974 803 985 q 796 950 796 964 l 796 317 q 792 293 796 304 q 779 272 789 282 q 743 257 767 263 q 681 251 719 251 q 588 270 608 251 q 567 317 567 289 l 567 950 q 555 988 567 976 q 517 1000 543 1000 l 299 1000 q 278 998 288 1000 q 263 990 268 996 q 252 974 256 985 q 249 950 249 964 l 249 263 q 263 160 249 207 q 311 78 276 114 q 406 18 346 42 q 556 -15 465 -6 l 543 -85 q 562 -226 529 -181 q 683 -272 594 -272 l 838 -272 m 725 -175 q 660 -149 674 -175 q 654 -71 646 -122 l 671 44 q 679 81 675 68 q 696 104 683 94 q 699 106 697 106 q 701 108 700 107 l 679 108 q 459 160 517 108 q 401 296 401 213 l 401 875 l 415 875 l 415 296 q 470 170 415 218 q 679 122 525 122 q 813 136 760 122 q 896 175 865 150 q 933 228 922 197 q 944 296 944 258 l 944 875 l 958 875 l 958 296 q 947 222 958 256 q 906 164 935 188 q 835 128 879 142 q 728 110 792 114 q 715 102 721 106 q 706 96 710 99 q 692 76 696 88 q 685 44 688 65 l 668 -74 q 672 -138 663 -115 q 725 -161 682 -161 l 758 -161 l 758 -175 l 725 -175 z "},"V":{"ha":1153,"x_min":42,"x_max":1113,"o":"m 307 -165 q 256 -153 275 -165 q 224 -111 236 -142 l 88 229 q 66 284 75 261 q 51 328 57 307 q 44 374 46 350 q 42 432 42 399 l 42 799 q 47 829 42 817 q 61 850 51 842 l 240 1001 q 259 1010 247 1007 q 285 1014 271 1014 l 506 1014 q 556 998 539 1014 q 574 950 574 982 l 574 567 q 576 540 574 553 q 583 514 579 528 l 588 504 l 588 799 q 592 829 588 817 q 607 850 597 842 l 786 1001 q 805 1010 793 1007 q 831 1014 817 1014 l 1049 1014 q 1098 999 1083 1014 q 1113 950 1113 983 l 1113 583 q 1110 526 1113 550 q 1103 480 1108 501 q 1088 435 1097 458 q 1067 381 1079 413 l 931 40 q 919 18 926 28 q 906 3 913 8 l 726 -146 q 701 -160 715 -156 q 668 -165 686 -165 l 307 -165 m 847 0 q 891 10 874 0 q 918 46 908 19 l 1054 386 q 1075 440 1067 417 q 1089 483 1083 463 q 1097 527 1094 504 q 1099 583 1099 550 l 1099 950 q 1087 988 1099 976 q 1049 1000 1075 1000 l 831 1000 q 792 988 804 1000 q 781 950 781 976 l 781 568 q 778 540 781 554 q 769 511 775 526 l 704 315 q 694 297 700 301 q 678 292 689 292 l 663 292 q 646 297 651 292 q 636 315 640 301 l 571 510 q 563 539 565 525 q 560 567 560 553 l 560 950 q 546 988 560 976 q 506 1000 532 1000 l 285 1000 q 247 988 258 1000 q 235 950 235 976 l 235 583 q 237 527 235 550 q 244 483 239 504 q 258 440 250 463 q 279 386 267 417 l 415 46 q 442 10 425 19 q 486 0 460 0 l 847 0 m 392 875 l 406 875 l 406 575 q 411 506 406 539 q 428 446 417 474 l 519 224 q 551 163 533 188 q 607 139 568 139 l 729 139 q 785 163 768 139 q 817 224 803 188 l 908 446 q 925 506 919 474 q 931 575 931 539 l 931 875 l 944 875 l 944 575 q 940 503 944 536 q 922 440 935 471 l 831 218 q 793 151 814 178 q 729 125 772 125 l 607 125 q 543 151 564 125 q 506 218 522 178 l 414 440 q 397 503 401 471 q 392 575 392 536 l 392 875 z "},"W":{"ha":1293,"x_min":50,"x_max":1244,"o":"m 756 479 q 791 466 778 479 q 824 414 804 453 l 951 158 q 969 142 958 144 q 989 139 979 139 l 996 139 q 1017 148 1007 139 q 1028 168 1026 157 l 1063 326 q 1069 394 1068 353 q 1069 467 1069 436 l 1069 875 l 1083 875 l 1083 465 q 1083 393 1083 435 q 1076 325 1082 351 l 1042 168 q 1024 135 1036 146 q 996 125 1013 125 l 986 125 q 960 130 974 125 q 940 149 947 135 l 813 407 q 783 454 794 443 q 756 465 772 465 l 721 465 q 693 454 704 465 q 664 407 682 443 l 536 149 q 516 130 529 135 q 490 125 503 125 l 481 125 q 452 135 464 125 q 435 168 440 146 l 400 325 q 394 393 394 351 q 393 465 393 435 l 393 875 l 407 875 l 407 467 q 408 394 407 436 q 414 326 408 353 l 449 168 q 460 148 450 157 q 481 139 469 139 l 488 139 q 508 142 497 139 q 525 158 518 144 l 653 414 q 685 466 672 453 q 721 479 699 479 l 756 479 m 974 1000 q 935 988 947 1000 q 924 950 924 976 l 924 439 l 843 614 q 814 647 832 638 q 769 657 796 657 l 711 657 q 667 647 685 657 q 638 614 649 638 l 557 439 l 557 950 q 545 988 557 976 q 507 1000 533 1000 l 293 1000 q 255 988 267 1000 q 243 950 243 976 l 243 414 q 247 331 243 369 q 268 242 250 293 l 338 50 q 360 14 344 28 q 399 0 376 0 l 582 0 q 619 10 604 0 q 640 42 635 21 l 706 268 q 716 287 710 282 q 731 292 722 292 l 743 292 q 758 287 751 292 q 768 268 764 282 l 832 42 q 856 10 838 19 q 896 0 874 0 l 1081 0 q 1116 15 1103 0 q 1136 50 1129 29 l 1206 239 q 1227 328 1224 290 q 1231 411 1231 367 l 1231 950 q 1219 988 1231 976 q 1181 1000 1207 1000 l 974 1000 m 451 -149 q 429 -160 442 -156 q 403 -165 417 -165 l 219 -165 q 174 -149 193 -165 q 146 -106 154 -132 l 76 86 q 53 177 57 138 q 50 263 50 217 l 50 799 q 55 829 50 817 q 69 850 60 842 l 249 1001 q 267 1010 256 1007 q 293 1014 279 1014 l 507 1014 q 556 999 540 1014 q 571 950 571 983 l 571 588 l 649 653 q 676 667 660 663 q 711 671 692 671 l 731 671 l 731 799 q 735 829 731 817 q 747 849 739 842 l 749 850 l 929 1001 q 947 1010 936 1007 q 974 1014 958 1014 l 1181 1014 q 1229 999 1214 1014 q 1244 950 1244 983 l 1244 411 q 1241 326 1244 365 q 1218 235 1238 286 l 1149 46 q 1138 21 1144 32 q 1121 0 1131 10 l 942 -149 q 924 -161 933 -157 q 901 -165 914 -165 l 717 -165 q 668 -153 689 -165 q 639 -114 647 -140 l 611 -15 l 451 -149 z "}}}
